<svg width="248" height="96" viewBox="0 0 248 96" fill="none" xmlns="http://www.w3.org/2000/svg">
<g clip-path="url(#clip0_712_1003)">
<path fill-rule="evenodd" clip-rule="evenodd" d="M42.8048 24C29.0884 24 18 35.1701 18 48.9891C18 60.0353 25.1047 69.3857 34.9608 72.6951C36.1931 72.9439 36.6445 72.1574 36.6445 71.4959C36.6445 70.9165 36.6038 68.9308 36.6038 66.8618C29.7037 68.3515 28.2669 63.8829 28.2669 63.8829C27.158 60.9868 25.515 60.2425 25.515 60.2425C23.2566 58.7117 25.6795 58.7117 25.6795 58.7117C28.1846 58.8772 29.4991 61.2767 29.4991 61.2767C31.7164 65.0827 35.2893 64.0073 36.7267 63.3452C36.9318 61.7316 37.5893 60.6146 38.2875 59.9942C32.7842 59.4149 26.994 57.2636 26.994 47.6649C26.994 44.9343 27.979 42.7003 29.5398 40.9628C29.2935 40.3424 28.4309 37.7768 29.7865 34.343C29.7865 34.343 31.8809 33.6809 36.6033 36.9081C38.6252 36.3611 40.7103 36.0828 42.8048 36.0805C44.8992 36.0805 47.0342 36.3704 49.0057 36.9081C53.7286 33.6809 55.823 34.343 55.823 34.343C57.1787 37.7768 56.3155 40.3424 56.0693 40.9628C57.6712 42.7003 58.6156 44.9343 58.6156 47.6649C58.6156 57.2636 52.8254 59.3732 47.2809 59.9942C48.1847 60.7802 48.9646 62.2693 48.9646 64.6278C48.9646 67.9788 48.924 70.6682 48.924 71.4953C48.924 72.1574 49.3759 72.9439 50.6076 72.6956C60.4637 69.3852 67.5684 60.0353 67.5684 48.9891C67.609 35.1701 56.48 24 42.8048 24Z" fill="#909090"/>
</g>
<path d="M97.3897 44.5698C97.094 44.5698 96.7983 44.8664 96.7983 45.163V51.2436C96.7983 51.5402 97.094 51.8368 97.3897 51.8368H102.268V59.4005C102.268 59.4005 101.233 59.8454 98.1289 59.8454C94.5807 59.8454 89.702 58.5106 89.702 47.5359C89.702 36.5612 94.8764 35.2265 99.7551 35.2265C104.042 35.2265 105.817 35.968 106.999 36.2646C107.295 36.4129 107.738 35.968 107.738 35.6714L109.069 29.7391C109.069 29.5908 109.069 29.4425 108.773 29.2942C108.33 28.9976 105.521 27.3662 98.2767 27.3662C89.8498 27.3662 81.5708 30.7773 81.5708 47.9809C81.5708 65.0361 91.3282 67.5574 99.4594 67.5574C106.26 67.5574 110.4 64.7395 110.4 64.7395C110.547 64.5912 110.547 64.4429 110.547 64.2946V45.163C110.547 44.8664 110.252 44.5698 109.956 44.5698" fill="#909090"/>
<path d="M173.823 29.4419C173.823 29.1452 173.527 28.8486 173.231 28.8486H166.283C165.987 28.8486 165.691 29.1452 165.691 29.4419V42.9378H154.751V29.4419C154.751 29.1452 154.456 28.8486 154.16 28.8486H147.211C146.916 28.8486 146.62 29.1452 146.62 29.4419V66.0736C146.62 66.3703 146.916 66.6669 147.211 66.6669H154.16C154.456 66.6669 154.751 66.3703 154.751 66.0736V50.3531H165.691V66.0736C165.691 66.3703 165.987 66.6669 166.283 66.6669H173.231C173.527 66.6669 173.823 66.3703 173.823 66.0736V29.4419Z" fill="#909090"/>
<path d="M118.53 38.9343C121.061 38.9343 123.113 36.8759 123.113 34.3368C123.113 31.7976 121.061 29.7393 118.53 29.7393C115.999 29.7393 113.947 31.7976 113.947 34.3368C113.947 36.8759 115.999 38.9343 118.53 38.9343Z" fill="#909090"/>
<path d="M122.522 41.4555C122.522 41.1589 122.227 40.8623 121.931 40.8623H114.982C114.687 40.8623 114.391 41.1589 114.391 41.4555V65.7778C114.391 66.5194 114.835 66.6677 115.426 66.6677H121.783C122.522 66.6677 122.67 66.3711 122.67 65.7778" fill="#909090"/>
<path d="M193.485 41.0098C193.189 41.0098 192.894 41.3064 192.894 41.603V59.5481C192.894 59.5481 191.12 60.8829 188.606 60.8829C186.093 60.8829 185.502 59.6964 185.502 57.3235V41.603C185.502 41.3064 185.206 41.0098 184.91 41.0098H177.962C177.666 41.0098 177.371 41.3064 177.371 41.603V58.51C177.371 65.777 181.362 67.5567 186.98 67.5567C191.563 67.5567 195.259 65.0355 195.259 65.0355C195.259 65.0355 195.407 66.3702 195.555 66.5185C195.703 66.6668 195.851 66.8151 195.998 66.8151H200.434C200.729 66.8151 201.025 66.5185 201.025 66.2219V41.603C201.025 41.3064 200.729 41.0098 200.434 41.0098" fill="#909090"/>
<path d="M216.844 61.0312C213.887 61.0312 212.557 59.6964 212.557 59.6964V47.9802C212.557 47.9802 214.183 46.9421 216.105 46.7938C218.618 46.4971 220.984 47.387 220.984 53.3193C220.984 59.6964 220.244 61.0312 216.696 61.0312H216.844ZM212.852 41.8996V29.4419C212.852 29.1452 212.557 28.8486 212.261 28.8486H205.313C205.017 28.8486 204.721 29.1452 204.721 29.4419V66.0736C204.721 66.3702 205.017 66.6669 205.313 66.6669H210.191C210.339 66.6669 210.635 66.5186 210.635 66.3702C210.783 66.2219 210.93 64.7389 210.93 64.7389C210.93 64.7389 213.739 67.5567 219.209 67.5567C225.567 67.5567 229.263 64.294 229.263 53.0226C229.263 41.7513 223.497 40.2683 219.505 40.2683C215.513 40.2683 212.852 42.0479 212.852 42.0479V41.8996Z" fill="#909090"/>
<path d="M137.454 40.8616V33.8912C137.454 33.5946 137.306 33.4463 137.011 33.4463H129.767C129.471 33.4463 129.323 33.5946 129.323 34.0395V41.3065C129.323 41.3065 125.775 42.1964 125.479 42.1964C125.183 42.3447 125.036 42.493 125.036 42.7896V47.3871C125.036 47.6837 125.331 47.9804 125.627 47.9804H129.323V58.8067C129.323 66.9636 134.941 67.7052 138.785 67.7052C140.559 67.7052 142.629 67.1119 142.924 66.9636C143.072 66.8153 143.22 66.667 143.22 66.3704V61.4763C143.22 61.1797 142.924 60.883 142.629 60.883C142.333 60.883 141.594 61.0314 140.707 61.0314C138.193 61.0314 137.306 59.8449 137.306 58.2135C137.306 56.5821 137.306 47.9804 137.306 47.9804H142.481C142.776 47.9804 143.072 47.6837 143.072 47.3871V41.4549C143.072 41.1582 142.776 40.8616 142.481 40.8616" fill="#909090"/>
<defs>
<clipPath id="clip0_712_1003">
<rect width="49.7578" height="48.7423" fill="white" transform="translate(18 24)"/>
</clipPath>
</defs>
</svg>
