<svg width="248" height="96" viewBox="0 0 248 96" fill="none" xmlns="http://www.w3.org/2000/svg">
<g clip-path="url(#clip0_2349_183)">
<path fill-rule="evenodd" clip-rule="evenodd" d="M69.4294 42.2256C67.3118 42.2207 65.2598 42.9569 63.6315 44.3056V42.4368H58.3428V62.96H63.8435V49.84C64.4348 49.0743 65.1895 48.4491 66.053 48.0096C66.9166 47.5702 67.8675 47.3275 68.8368 47.2992C69.5871 47.2608 70.3375 47.3729 71.0435 47.6288V42.3664C70.5105 42.2733 69.9705 42.2262 69.4294 42.2256Z" fill="#F0F0F0"/>
<path fill-rule="evenodd" clip-rule="evenodd" d="M21.4688 56.6974C23.0395 58.0204 25.0332 58.7405 27.09 58.7278C28.5708 58.7278 29.7127 58.0078 29.7127 56.9934C29.7127 53.9038 19.7696 55.0046 19.7696 48.403C19.7696 44.4686 23.5776 42.0142 27.6393 42.0142C30.1058 42.0209 32.5168 42.7437 34.5775 44.0942L32.0046 48.0638C30.8689 47.2052 29.4944 46.7179 28.0697 46.6686C26.5472 46.6686 25.2768 47.2606 25.2768 48.3182C25.2768 50.9838 35.2215 49.9262 35.2215 57.035C35.2215 60.971 31.3669 63.3822 27.0547 63.3822C24.0833 63.3534 21.1963 62.394 18.8027 60.6398L21.4688 56.6974Z" fill="#F0F0F0"/>
<path fill-rule="evenodd" clip-rule="evenodd" d="M55.9943 52.507C55.9943 46.795 51.9791 42.0142 46.3033 42.0142C40.2099 42.0142 36.3168 47.0062 36.3168 52.7198C36.2564 54.1403 36.4935 55.5578 37.0132 56.8819C37.5328 58.2061 38.3236 59.408 39.3351 60.411C40.3466 61.414 41.5567 62.1962 42.8883 62.7078C44.2199 63.2193 45.6438 63.449 47.0694 63.3822C48.6553 63.4029 50.2273 63.0853 51.6797 62.4505C53.1321 61.8158 54.4313 60.8787 55.49 59.7022L52.3582 56.571C51.7023 57.2919 50.907 57.8734 50.02 58.2806C49.133 58.6878 48.1725 58.9122 47.1963 58.9406C45.8246 58.985 44.4873 58.5071 43.4568 57.6041C42.4262 56.7011 41.7798 55.4408 41.649 54.0798H55.8674C55.955 53.5601 55.9974 53.0339 55.9943 52.507ZM41.9027 50.0542C42.1001 49.0375 42.648 48.1215 43.4516 47.4647C44.2552 46.8079 45.2639 46.4516 46.3033 46.4574C47.3047 46.4589 48.271 46.8255 49.0196 47.4882C49.7682 48.1509 50.2474 49.0636 50.3667 50.0542H41.9027Z" fill="#F0F0F0"/>
<path fill-rule="evenodd" clip-rule="evenodd" d="M84.1539 54.9618L89.7815 42.437H95.4959L86.0587 62.9602H82.2507L72.8135 42.437H78.5262L84.1539 54.9618Z" fill="#F0F0F0"/>
<path fill-rule="evenodd" clip-rule="evenodd" d="M100.115 32.7999C100.811 32.8125 101.488 33.0296 102.06 33.424C102.633 33.8184 103.076 34.3724 103.333 35.0166C103.591 35.6608 103.652 36.3665 103.508 37.045C103.365 37.7236 103.023 38.3448 102.527 38.8307C102.03 39.3166 101.401 39.6455 100.717 39.7762C100.033 39.9069 99.3262 39.8336 98.6843 39.5654C98.0424 39.2972 97.4944 38.8461 97.1089 38.2687C96.7234 37.6913 96.5177 37.0133 96.5176 36.3199C96.5175 35.8522 96.611 35.3892 96.7925 34.9579C96.9741 34.5266 97.2401 34.1357 97.5751 33.808C97.91 33.4803 98.3071 33.2223 98.7433 33.0492C99.1794 32.8762 99.6458 32.7914 100.115 32.7999Z" fill="#F0F0F0"/>
<path d="M102.864 42.437H97.3633V62.9602H102.864V42.437Z" fill="#F0F0F0"/>
<path fill-rule="evenodd" clip-rule="evenodd" d="M125.607 58.7695C124.565 60.2531 123.166 61.4527 121.539 62.2585C119.912 63.0644 118.107 63.4508 116.291 63.3823C114.858 63.4185 113.432 63.1682 112.098 62.6462C110.764 62.1243 109.548 61.3412 108.523 60.3432C107.497 59.3453 106.683 58.1527 106.128 56.836C105.573 55.5193 105.288 54.1051 105.291 52.677C105.294 51.2488 105.584 49.8358 106.144 48.5212C106.704 47.2066 107.523 46.0173 108.553 45.0233C109.582 44.0293 110.801 43.251 112.137 42.7342C113.473 42.2173 114.9 41.9726 116.333 42.0143C117.99 42.002 119.628 42.3651 121.124 43.076C122.619 43.787 123.933 44.8273 124.966 46.1183L121.073 49.5455C120.53 48.7963 119.818 48.1841 118.995 47.7579C118.172 47.3317 117.261 47.1034 116.333 47.0911C115.596 47.0881 114.865 47.2325 114.185 47.5158C113.504 47.7991 112.888 48.2154 112.372 48.7403C111.856 49.2651 111.451 49.8877 111.18 50.5713C110.91 51.2549 110.78 51.9855 110.799 52.7199C110.774 53.4654 110.905 54.2079 111.182 54.9007C111.459 55.5935 111.877 56.2218 112.41 56.7462C112.942 57.2705 113.578 57.6795 114.276 57.9476C114.975 58.2156 115.722 58.337 116.47 58.3039C117.447 58.2846 118.405 58.0278 119.26 57.5561C120.116 57.0843 120.842 56.4117 121.378 55.5967L125.607 58.7695Z" fill="#F0F0F0"/>
<path fill-rule="evenodd" clip-rule="evenodd" d="M145.589 59.7007C144.53 60.8773 143.231 61.8145 141.778 62.4492C140.326 63.084 138.754 63.4016 137.168 63.3807C135.743 63.4468 134.319 63.2166 132.988 62.7048C131.657 62.193 130.448 61.4107 129.437 60.4077C128.426 59.4048 127.636 58.2031 127.116 56.8793C126.597 55.5554 126.36 54.1384 126.42 52.7183C126.42 47.0047 130.313 42.0127 136.407 42.0127C142.076 42.0127 146.096 46.7935 146.096 52.5055C146.1 53.0303 146.057 53.5544 145.969 54.0719H131.751C131.88 55.4333 132.526 56.6942 133.556 57.5982C134.586 58.5021 135.923 58.9811 137.295 58.9375C138.271 58.9089 139.232 58.6844 140.119 58.2772C141.006 57.87 141.802 57.2886 142.458 56.5679L145.589 59.7007ZM140.469 50.0543C140.35 49.0639 139.871 48.1511 139.122 47.4885C138.374 46.8258 137.408 46.459 136.407 46.4575C135.367 46.4514 134.358 46.8076 133.555 47.4645C132.751 48.1213 132.203 49.0375 132.006 50.0543H140.469Z" fill="#F0F0F0"/>
<path fill-rule="evenodd" clip-rule="evenodd" d="M148.283 62.9598V42.4366H153.572V44.0862C155.201 42.7406 157.252 42.0073 159.368 42.0142C160.724 42.0104 162.064 42.3042 163.293 42.8747C164.522 43.4452 165.609 44.2784 166.478 45.315C168.06 47.368 168.815 49.9361 168.593 52.515V62.9598H163.093V52.0798C163.17 51.3881 163.101 50.6879 162.889 50.0246C162.678 49.3612 162.329 48.7494 161.866 48.2286C161.028 47.4564 159.918 47.0457 158.777 47.0862C157.808 47.1147 156.857 47.3572 155.994 47.7964C155.13 48.2355 154.376 48.8602 153.784 49.6254V62.9598H148.283Z" fill="#F0F0F0"/>
<path fill-rule="evenodd" clip-rule="evenodd" d="M182.759 42.0144C180.346 42.0094 177.986 42.7268 175.987 44.0736C173.988 45.4204 172.44 47.3344 171.546 49.5677C170.652 51.8009 170.451 54.2503 170.971 56.5983C171.491 58.9462 172.706 61.0846 174.461 62.736C174.872 63.1263 175.41 63.357 175.977 63.3864C176.545 63.4157 177.104 63.2418 177.554 62.896C179.038 61.7958 180.838 61.2016 182.688 61.2016C184.538 61.2016 186.339 61.7958 187.823 62.896C188.277 63.2426 188.841 63.415 189.412 63.3818C189.983 63.3486 190.523 63.112 190.934 62.7152C192.674 61.0699 193.882 58.9443 194.402 56.6108C194.922 54.2774 194.73 51.8424 193.852 49.618C192.974 47.3937 191.449 45.4813 189.472 44.126C187.496 42.7708 185.158 42.0344 182.759 42.0112M182.688 60C181.895 60.0214 181.106 59.8815 180.369 59.5889C179.631 59.2964 178.962 58.8572 178.401 58.2983C177.839 57.7394 177.399 57.0724 177.105 56.3381C176.811 55.6038 176.67 54.8175 176.691 54.0272C176.691 52.4427 177.323 50.9231 178.448 49.8027C179.573 48.6823 181.098 48.0528 182.688 48.0528C184.279 48.0528 185.804 48.6823 186.929 49.8027C188.054 50.9231 188.685 52.4427 188.685 54.0272C188.707 54.8175 188.566 55.6038 188.272 56.3381C187.978 57.0724 187.537 57.7394 186.976 58.2983C186.415 58.8572 185.745 59.2964 185.008 59.5889C184.271 59.8815 183.482 60.0214 182.688 60Z" fill="#F0F0F0"/>
<path fill-rule="evenodd" clip-rule="evenodd" d="M205.569 62.9602H201.472L193.302 42.437H198.794L203.274 54.165L207.666 42.437H212.256L216.609 54.165L221.127 42.437H226.621L218.451 62.9602H214.354L209.961 51.2738L205.569 62.9602Z" fill="#F0F0F0"/>
<path d="M226.683 60.6402H226.219V61.509H225.824V59.1314H226.788C226.889 59.1309 226.989 59.1504 227.082 59.1887C227.175 59.227 227.26 59.2833 227.332 59.3544C227.403 59.4255 227.46 59.51 227.498 59.603C227.536 59.696 227.556 59.7956 227.556 59.8962C227.554 60.0452 227.509 60.1906 227.424 60.3137C227.34 60.4368 227.221 60.5321 227.082 60.5874L227.625 61.5138H227.194L226.683 60.6402ZM226.219 60.2898H226.788C226.894 60.2898 226.996 60.2476 227.072 60.1726C227.147 60.0976 227.189 59.9958 227.189 59.8898C227.189 59.7837 227.147 59.6819 227.072 59.6069C226.996 59.5319 226.894 59.4898 226.788 59.4898H226.224L226.219 60.2898Z" fill="#F0F0F0"/>
<path d="M226.627 58.1569C227.065 58.1566 227.494 58.2857 227.858 58.528C228.223 58.7702 228.507 59.1147 228.675 59.5178C228.842 59.921 228.887 60.3647 228.801 60.7928C228.716 61.2209 228.505 61.6142 228.196 61.9229C227.886 62.2316 227.491 62.4419 227.062 62.5272C226.632 62.6125 226.187 62.5689 225.782 62.4019C225.377 62.235 225.031 61.9522 224.788 61.5893C224.544 61.2264 224.414 60.7998 224.414 60.3633C224.415 59.7787 224.648 59.2182 225.063 58.8046C225.478 58.3911 226.04 58.1582 226.627 58.1569ZM226.627 57.8081C226.119 57.8081 225.622 57.9582 225.2 58.2395C224.777 58.5208 224.448 58.9207 224.253 59.3884C224.059 59.8562 224.008 60.3709 224.107 60.8675C224.206 61.3641 224.451 61.8203 224.81 62.1783C225.17 62.5363 225.628 62.7801 226.126 62.8789C226.624 62.9777 227.141 62.927 227.611 62.7332C228.08 62.5395 228.482 62.2114 228.764 61.7904C229.046 61.3694 229.197 60.8744 229.197 60.3681C229.197 59.6892 228.926 59.038 228.444 58.5579C227.962 58.0778 227.309 57.8081 226.627 57.8081Z" fill="#F0F0F0"/>
</g>
<defs>
<clipPath id="clip0_2349_183">
<rect width="212" height="32" fill="white" transform="translate(18 32)"/>
</clipPath>
</defs>
</svg>
