<svg width="248" height="96" viewBox="0 0 248 96" fill="none" xmlns="http://www.w3.org/2000/svg">
<path d="M93.408 62.6022H87.1005L92.5445 51.5753H92.6195L93.408 62.6022ZM93.7083 67.5699L94.0838 71.9355H100.992L98.7017 46.457H88.4146L75.3867 71.9355H82.445L84.6226 67.5699H93.7083Z" fill="#909090"/>
<path d="M110.679 60.7957H111.692L116.648 54.0968H123.031L116.198 62.6775L120.403 71.9355H113.607L110.867 64.7097H109.853L108.314 71.9355H102.494L107.863 46.457H113.72L110.679 60.7957Z" fill="#909090"/>
<path d="M130.502 64.5592C132.417 64.5592 133.656 64.7098 133.356 66.1775C132.943 68.0592 132.154 68.3603 129.714 68.3603C128.813 68.3603 127.161 68.3603 127.574 66.441C127.912 64.8227 129.075 64.5592 130.502 64.5592ZM132.117 71.9356H137.936L140.301 60.7958C141.615 54.6614 139.25 53.9087 133.28 53.9087C129.113 53.9087 125.096 53.8711 123.894 59.4033H129.714C130.052 57.785 131.028 57.484 132.492 57.484C135.045 57.484 134.932 58.5377 134.557 60.1936L133.956 63.0162H133.693C133.468 60.984 130.915 61.0216 129.263 61.0216C125.058 61.0216 122.543 62.3388 121.642 66.6291C120.666 71.1829 122.843 72.1614 126.898 72.1614C128.925 72.1614 131.666 71.7474 132.605 69.3012H132.792L132.117 71.9356Z" fill="#909090"/>
<path d="M149.724 54.0969L149.198 56.6184H149.424C150.587 54.5108 152.878 53.9087 154.868 53.9087C157.383 53.9087 159.861 54.3603 159.523 57.4087H159.786C160.649 54.8496 163.24 53.9087 165.493 53.9087C169.585 53.9087 171.349 55.6022 170.448 59.742L167.858 71.9356H162.038L164.216 61.6237C164.516 59.742 164.817 58.3872 162.564 58.3872C160.311 58.3872 159.523 59.8926 159.148 61.8119L157.008 71.9356H151.188L153.478 61.1345C153.741 59.5162 153.891 58.3872 151.864 58.3872C149.461 58.3872 148.748 59.6668 148.297 61.8119L146.157 71.9356H140.338L144.13 54.0969H149.724Z" fill="#909090"/>
<path d="M179.61 64.5592C181.487 64.5592 182.763 64.7098 182.463 66.1775C182.088 68.0592 181.262 68.3603 178.821 68.3603C177.958 68.3603 176.268 68.3603 176.681 66.441C177.019 64.8227 178.183 64.5592 179.61 64.5592ZM181.224 71.9356H187.043L189.409 60.7958C190.723 54.6614 188.358 53.9087 182.388 53.9087C178.221 53.9087 174.166 53.8711 173.002 59.4033H178.821C179.159 57.785 180.135 57.484 181.6 57.484C184.153 57.484 184.04 58.5377 183.664 60.1936L183.139 63.0162H182.876C182.651 60.984 180.098 61.0216 178.446 61.0216C174.241 61.0216 171.725 62.3388 170.824 66.6291C169.848 71.1829 172.026 72.1614 176.081 72.1614C178.108 72.1614 180.849 71.7474 181.825 69.3012H182.013L181.224 71.9356Z" fill="#909090"/>
<path d="M195.453 71.9354H189.634L193.388 54.0967H199.208L195.453 71.9354Z" fill="#909090"/>
<path d="M78.3526 78.1075C65.4374 74.1559 56.0138 62.1881 56.0138 48.0376C56.0138 33.6989 65.6251 21.6182 78.7656 17.8172C80.1172 17.4408 79.7418 16.5376 78.1274 16.5376C60.6693 16.5376 46.4775 30.6505 46.4775 48.0376C46.4775 65.4247 60.6317 79.5 78.1274 79.5C79.7418 79.5 79.8169 78.5591 78.3526 78.1075Z" fill="#909090"/>
<path d="M62.021 55.3765C61.9459 54.5486 61.8708 53.683 61.8708 52.8174C61.8708 39.0056 73.0215 27.8281 86.8002 27.8281C99.8281 27.8281 103.733 33.6615 104.221 33.2851C104.746 32.8711 99.4902 21.3174 84.2097 21.3174C70.4309 21.3174 59.2803 32.4948 59.2803 46.3066C59.2803 49.5056 59.881 52.5539 60.9698 55.3389C61.4203 56.5432 62.1336 56.5432 62.021 55.3765Z" fill="#909090"/>
<path d="M72.4577 37.387C78.9153 34.5644 87.0624 34.4891 95.0593 37.2741C100.428 39.1558 103.544 41.8278 103.807 41.7149C104.22 41.5267 100.691 35.8816 94.2709 33.473C86.4992 30.5375 78.1644 32.0805 72.0822 36.8601C71.4065 37.387 71.6693 37.7257 72.4577 37.387Z" fill="#909090"/>
<path d="M200.522 49.1668C200.522 50.9732 199.058 52.441 197.256 52.441C195.453 52.441 193.989 50.9732 193.989 49.1668C193.989 47.3603 195.453 45.8926 197.256 45.8926C199.058 45.8926 200.522 47.3603 200.522 49.1668Z" fill="#909090"/>
</svg>
