<svg width="248" height="96" viewBox="0 0 248 96" fill="none" xmlns="http://www.w3.org/2000/svg">
<path d="M198.299 64.6186C196.563 63.4609 195.984 62.0139 195.019 59.8915C194.247 58.155 181.899 28.4414 181.899 28.4414H178.426C177.943 29.5991 173.216 42.3335 170.612 48.5077C169.743 50.5336 168.007 54.5855 165.306 60.1809C164.244 62.4962 162.797 63.8468 161.736 64.4257V35.8698C161.736 35.8698 161.64 33.3615 163.28 32.0109C164.823 30.7567 167.717 30.8532 167.717 30.8532V28.4414H152.861V30.9497C152.861 30.9497 156.237 30.8532 157.588 32.1074C158.938 33.458 158.745 35.9663 158.745 35.9663V55.0678L139.644 28.4414H126.138V30.8532C128.935 30.8532 131.733 31.5285 131.733 35.291V60.4703C131.733 60.4703 131.83 63.1715 130.768 64.0398C129.225 65.3904 126.138 65.2939 126.138 65.2939V67.8022H141.187V65.2939C141.187 65.2939 137.521 65.3904 135.785 63.9433C134.627 62.9786 134.724 60.5668 134.724 60.5668V37.7028L157.105 67.7057H174.277V65.1974C174.277 65.1974 170.515 65.2939 169.454 64.8116C168.875 64.5221 168.586 64.1362 168.393 63.5574C168.296 63.268 168.296 62.7856 168.393 62.1103C168.875 59.5056 171.094 54.7784 171.094 54.7784H183.153C183.153 54.7784 185.372 59.9879 186.24 62.0138C187.012 63.9433 186.53 64.8116 185.372 65.101C184.407 65.2939 181.32 65.2939 181.32 65.2939V67.8022H201V65.2939C201 65.2939 199.457 65.3904 198.299 64.6186ZM172.059 51.8842L176.979 40.1146L181.899 51.8842H172.059Z" fill="#F0F0F0"/>
<path d="M116.008 44.2629C113.5 43.4911 107.133 41.5617 104.721 39.2463C102.405 36.931 103.853 33.1686 105.396 31.818C109.93 27.7661 118.13 30.4673 121.603 42.3335H123.822V28.4414H121.893C121.893 28.4414 120.639 30.4673 119.867 30.8532C119.578 31.0462 118.323 30.4673 117.648 30.1779C99.5113 20.2413 87.3557 43.4911 102.695 50.5336C105.975 52.0772 108.001 52.7525 111.763 53.9102C118.323 55.8396 118.999 60.8562 116.78 63.5574C113.307 67.8022 102.598 69.0564 97.2924 53.3313H94.6876V64.2327C94.6876 64.2327 93.53 63.5574 92.7582 62.7856C89.2852 59.795 82.918 50.5336 81.5674 48.7007C92.1794 46.6747 93.2406 36.931 88.4169 31.818L81.5674 37.7993C81.6639 39.0534 81.4709 40.5005 81.085 42.1405C79.9273 46.2888 75.8755 46.9641 73.2707 46.9641C72.499 46.9641 71.4378 46.8677 71.4378 46.8677L62.4658 54.8749V67.8022H71.4378V49.4724V49.5689C76.5508 56.2255 81.085 62.8821 84.2686 67.8022H94.6876H97.4854C97.4854 67.8022 98.0642 67.0304 98.7395 66.2587C99.5113 65.3904 100.669 65.9692 101.248 66.2587C104.142 67.6093 106.843 68.2846 110.123 68.3811C128.164 68.9599 131.926 48.8936 116.008 44.2629Z" fill="#F0F0F0"/>
<path d="M195.017 27.9585C197.043 27.9585 198.683 29.5021 198.683 31.6245C198.683 33.7468 197.043 35.2904 195.017 35.2904C192.992 35.2904 191.351 33.7468 191.351 31.6245C191.255 29.5985 192.992 27.9585 195.017 27.9585ZM195.017 34.7116C196.754 34.7116 198.008 33.361 198.008 31.528C198.008 29.7915 196.657 28.4409 195.017 28.4409C193.281 28.4409 192.027 29.7915 192.027 31.528C191.93 33.4574 193.281 34.7116 195.017 34.7116ZM193.57 29.5021H195.21C196.272 29.5021 196.657 29.8879 196.657 30.7562C196.657 31.528 196.175 31.8174 195.5 31.9139L196.754 33.8433H196.079L194.921 32.0103H194.246V33.8433H193.57V29.5021ZM194.246 31.4315H194.921C195.5 31.4315 196.079 31.4315 196.079 30.7562C196.079 30.1774 195.596 30.0809 195.114 30.0809H194.246V31.4315Z" fill="#F0F0F0"/>
<path d="M62.4646 54.7773V67.8011H47.8008L62.4646 54.7773Z" fill="#F0F0F0"/>
<path d="M71.4373 34.1323C71.4373 31.624 74.9103 30.8522 76.6468 31.0452C77.708 31.1417 79.6375 32.3958 80.7952 34.7111L86.1976 29.8875C84.6541 29.0193 82.8211 28.4404 80.6022 28.4404C72.0162 28.4404 57.2559 28.4404 57.2559 28.4404V30.9487C57.2559 30.9487 57.7382 30.9487 58.3171 30.9487C59.2818 31.0452 60.6324 31.1417 61.5971 32.2029C61.983 32.5887 62.4654 33.6499 62.4654 35.0006C62.4654 36.3512 62.4654 43.9725 62.4654 50.9185L71.4373 43.0078V34.1323Z" fill="#F0F0F0"/>
</svg>
