<svg width="248" height="96" viewBox="0 0 248 96" fill="none" xmlns="http://www.w3.org/2000/svg">
<path d="M38.9551 48.962C39.6304 48.962 40.1778 48.4146 40.1778 47.7393C40.1778 47.064 39.6304 46.5166 38.9551 46.5166C38.2798 46.5166 37.7324 47.064 37.7324 47.7393C37.7324 48.4146 38.2798 48.962 38.9551 48.962Z" fill="#909090"/>
<path d="M20.0177 48.7585C20.2189 48.7585 20.4157 48.6988 20.583 48.587C20.7504 48.4751 20.8808 48.3162 20.9578 48.1302C21.0349 47.9443 21.055 47.7397 21.0158 47.5423C20.9765 47.3449 20.8796 47.1635 20.7372 47.0212C20.5949 46.8789 20.4136 46.782 20.2162 46.7427C20.0188 46.7034 19.8142 46.7236 19.6282 46.8006C19.4423 46.8776 19.2833 47.0081 19.1715 47.1754C19.0597 47.3428 19 47.5395 19 47.7408C19.0004 48.0106 19.1078 48.2692 19.2985 48.4599C19.4893 48.6507 19.7479 48.7581 20.0177 48.7585Z" fill="#909090"/>
<path d="M39.418 57.9054C40.0933 57.9054 40.6407 57.3579 40.6407 56.6827C40.6407 56.0074 40.0933 55.46 39.418 55.46C38.7427 55.46 38.1953 56.0074 38.1953 56.6827C38.1953 57.3579 38.7427 57.9054 39.418 57.9054Z" fill="#909090"/>
<path d="M20.6918 59.6718C20.8917 59.6507 21.0809 59.5709 21.2355 59.4424C21.3901 59.3139 21.5031 59.1425 21.5605 58.9499C21.6178 58.7572 21.6167 58.5518 21.5575 58.3598C21.4982 58.1677 21.3834 57.9975 21.2275 57.8706C21.0716 57.7437 20.8817 57.6657 20.6816 57.6467C20.4814 57.6276 20.2802 57.6682 20.1031 57.7634C19.9261 57.8586 19.7812 58.0041 19.6867 58.1815C19.5923 58.359 19.5525 58.5604 19.5724 58.7604C19.5858 58.8939 19.6255 59.0233 19.6891 59.1414C19.7527 59.2594 19.839 59.3638 19.9429 59.4485C20.0469 59.5331 20.1666 59.5964 20.2951 59.6347C20.4236 59.6731 20.5584 59.6856 20.6918 59.6718Z" fill="#909090"/>
<path d="M40.8155 66.7501C41.4908 66.7501 42.0382 66.2027 42.0382 65.5274C42.0382 64.8521 41.4908 64.3047 40.8155 64.3047C40.1402 64.3047 39.5928 64.8521 39.5928 65.5274C39.5928 66.2027 40.1402 66.7501 40.8155 66.7501Z" fill="#909090"/>
<path d="M22.5046 70.4576C22.7007 70.4143 22.8797 70.314 23.0189 70.1692C23.1581 70.0244 23.2513 69.8416 23.2868 69.6439C23.3224 69.4462 23.2986 69.2424 23.2185 69.0582C23.1384 68.874 23.0056 68.7176 22.8368 68.6087C22.668 68.4999 22.4708 68.4434 22.27 68.4464C22.0691 68.4494 21.8736 68.5118 21.7082 68.6257C21.5427 68.7396 21.4147 68.8999 21.3402 69.0864C21.2657 69.273 21.248 69.4774 21.2895 69.6739C21.3174 69.8054 21.3711 69.93 21.4473 70.0407C21.5236 70.1513 21.621 70.2457 21.734 70.3186C21.8469 70.3914 21.9731 70.4412 22.1054 70.4651C22.2376 70.489 22.3733 70.4864 22.5046 70.4576Z" fill="#909090"/>
<path d="M208.17 66.8336C208.845 66.8336 209.393 66.2862 209.393 65.6109C209.393 64.9356 208.845 64.3882 208.17 64.3882C207.495 64.3882 206.947 64.9356 206.947 65.6109C206.947 66.2862 207.495 66.8336 208.17 66.8336Z" fill="#909090"/>
<path d="M226.901 68.553C226.704 68.5112 226.499 68.5286 226.312 68.6032C226.126 68.6778 225.965 68.8061 225.851 68.9719C225.737 69.1378 225.675 69.3337 225.672 69.5349C225.669 69.7362 225.726 69.9337 225.836 70.1025C225.945 70.2713 226.103 70.4038 226.288 70.4833C226.472 70.5628 226.677 70.5857 226.875 70.5491C227.073 70.5125 227.255 70.418 227.399 70.2777C227.544 70.1373 227.643 69.9574 227.685 69.7605C227.713 69.6298 227.715 69.4948 227.69 69.3633C227.666 69.2319 227.616 69.1065 227.543 68.9944C227.47 68.8823 227.376 68.7855 227.266 68.7098C227.156 68.6341 227.032 68.5808 226.901 68.553Z" fill="#909090"/>
<path d="M209.574 57.9908C210.25 57.9908 210.797 57.4434 210.797 56.7681C210.797 56.0928 210.25 55.5454 209.574 55.5454C208.899 55.5454 208.352 56.0928 208.352 56.7681C208.352 57.4434 208.899 57.9908 209.574 57.9908Z" fill="#909090"/>
<path d="M228.513 57.7355C228.313 57.7156 228.111 57.7553 227.934 57.8498C227.756 57.9443 227.611 58.0893 227.516 58.2664C227.421 58.4436 227.38 58.6449 227.399 58.8451C227.418 59.0453 227.496 59.2353 227.623 59.3911C227.75 59.547 227.921 59.6617 228.113 59.7208C228.305 59.7799 228.511 59.7808 228.703 59.7232C228.896 59.6657 229.067 59.5524 229.196 59.3975C229.324 59.2427 229.404 59.0534 229.424 58.8534C229.438 58.7201 229.425 58.5855 229.387 58.4571C229.348 58.3288 229.285 58.2093 229.2 58.1055C229.116 58.0017 229.012 57.9156 228.894 57.8521C228.776 57.7886 228.646 57.749 228.513 57.7355Z" fill="#909090"/>
<path d="M210.048 49.0489C210.723 49.0489 211.271 48.5015 211.271 47.8262C211.271 47.1509 210.723 46.6035 210.048 46.6035C209.373 46.6035 208.825 47.1509 208.825 47.8262C208.825 48.5015 209.373 49.0489 210.048 49.0489Z" fill="#909090"/>
<path d="M228.982 46.8071C228.781 46.8071 228.584 46.8668 228.417 46.9786C228.25 47.0905 228.119 47.2494 228.042 47.4353C227.965 47.6213 227.945 47.8259 227.984 48.0233C228.024 48.2207 228.121 48.4021 228.263 48.5444C228.405 48.6867 228.587 48.7836 228.784 48.8229C228.981 48.8622 229.186 48.842 229.372 48.765C229.558 48.6879 229.717 48.5575 229.829 48.3902C229.94 48.2228 230 48.0261 230 47.8248C230 47.555 229.892 47.2964 229.702 47.1056C229.511 46.9149 229.252 46.8075 228.982 46.8071Z" fill="#909090"/>
<path d="M209.583 40.106C210.258 40.106 210.806 39.5586 210.806 38.8833C210.806 38.2081 210.258 37.6606 209.583 37.6606C208.908 37.6606 208.36 38.2081 208.36 38.8833C208.36 39.5586 208.908 40.106 209.583 40.106Z" fill="#909090"/>
<path d="M228.307 35.8922C228.107 35.9133 227.918 35.9931 227.764 36.1216C227.609 36.25 227.496 36.4214 227.439 36.6141C227.381 36.8068 227.382 37.0121 227.442 37.2042C227.501 37.3963 227.616 37.5665 227.772 37.6934C227.928 37.8203 228.118 37.8982 228.318 37.9173C228.518 37.9363 228.719 37.8957 228.896 37.8005C229.073 37.7053 229.218 37.5599 229.312 37.3824C229.407 37.205 229.447 37.0035 229.427 36.8035C229.413 36.6701 229.374 36.5407 229.31 36.4226C229.246 36.3045 229.16 36.2002 229.056 36.1155C228.952 36.0309 228.833 35.9675 228.704 35.9292C228.576 35.8909 228.441 35.8783 228.307 35.8922Z" fill="#909090"/>
<path d="M208.188 31.2618C208.863 31.2618 209.41 30.7144 209.41 30.0391C209.41 29.3638 208.863 28.8164 208.188 28.8164C207.512 28.8164 206.965 29.3638 206.965 30.0391C206.965 30.7144 207.512 31.2618 208.188 31.2618Z" fill="#909090"/>
<path d="M226.498 25.1055C226.301 25.1474 226.121 25.2466 225.981 25.3908C225.841 25.5349 225.746 25.7174 225.709 25.9152C225.673 26.113 225.695 26.3173 225.775 26.5022C225.854 26.6871 225.987 26.8443 226.155 26.954C226.324 27.0637 226.521 27.1209 226.723 27.1185C226.924 27.116 227.12 27.0539 227.286 26.9402C227.451 26.8264 227.58 26.6659 227.655 26.4792C227.73 26.2924 227.747 26.0876 227.706 25.8908C227.65 25.6266 227.491 25.3955 227.264 25.2483C227.038 25.101 226.762 25.0497 226.498 25.1055Z" fill="#909090"/>
<path d="M40.8321 31.1778C41.5074 31.1778 42.0548 30.6304 42.0548 29.9551C42.0548 29.2798 41.5074 28.7324 40.8321 28.7324C40.1568 28.7324 39.6094 29.2798 39.6094 29.9551C39.6094 30.6304 40.1568 31.1778 40.8321 31.1778Z" fill="#909090"/>
<path d="M22.0985 27.0131C22.2954 27.0549 22.5002 27.0374 22.6871 26.9629C22.874 26.8883 23.0347 26.76 23.1487 26.5942C23.2627 26.4283 23.325 26.2324 23.3276 26.0312C23.3303 25.8299 23.2732 25.6324 23.1637 25.4636C23.0541 25.2948 22.897 25.1623 22.7121 25.0828C22.5272 25.0033 22.3229 24.9804 22.125 25.017C21.9271 25.0536 21.7445 25.148 21.6003 25.2884C21.4561 25.4288 21.3567 25.6087 21.3148 25.8056C21.2593 26.0696 21.3106 26.3447 21.4575 26.571C21.6044 26.7973 21.8348 26.9562 22.0985 27.0131Z" fill="#909090"/>
<path d="M39.4278 40.0206C40.1031 40.0206 40.6505 39.4732 40.6505 38.7979C40.6505 38.1226 40.1031 37.5752 39.4278 37.5752C38.7525 37.5752 38.2051 38.1226 38.2051 38.7979C38.2051 39.4732 38.7525 40.0206 39.4278 40.0206Z" fill="#909090"/>
<path d="M20.4889 37.8301C20.6889 37.85 20.8904 37.8102 21.0678 37.7157C21.2453 37.6213 21.3907 37.4764 21.4859 37.2994C21.5811 37.1223 21.6217 36.9211 21.6027 36.7209C21.5836 36.5208 21.5057 36.3308 21.3788 36.175C21.2519 36.0191 21.0817 35.9043 20.8896 35.845C20.6975 35.7858 20.4922 35.7847 20.2995 35.842C20.1068 35.8993 19.9354 36.0124 19.807 36.167C19.6785 36.3216 19.5987 36.5108 19.5776 36.7107C19.5639 36.844 19.5767 36.9788 19.6151 37.1072C19.6535 37.2356 19.7168 37.3552 19.8014 37.4591C19.886 37.5631 19.9903 37.6494 20.1083 37.713C20.2262 37.7767 20.3556 37.8165 20.4889 37.8301Z" fill="#909090"/>
<path d="M79.0264 28.0566H81.2758L83.6741 35.2835L86.2198 28.0566H87.7918L90.3375 35.2835L92.7358 28.0566H94.9853L91.1486 39.632H89.5765L86.9944 32.3065L84.4305 39.632H82.8585L79.0264 28.0566Z" fill="#909090"/>
<path d="M96.4717 39.632L101.432 28.0566H103.003L107.964 39.632H105.632L104.542 37.0697H99.8937L98.8017 39.632H96.4717ZM100.738 35.0845H103.682L102.212 31.6609L100.738 35.0845Z" fill="#909090"/>
<path d="M118.05 28.0566V30.0403H114.991V39.632H112.76V30.0403H109.701V28.0566H118.05Z" fill="#909090"/>
<path d="M123.175 33.8434C123.165 34.3657 123.26 34.8846 123.455 35.3694C123.649 35.8542 123.939 36.2948 124.308 36.6651C124.676 37.0354 125.116 37.3278 125.599 37.5249C126.083 37.7219 126.602 37.8197 127.124 37.8122C127.757 37.8195 128.383 37.6781 128.951 37.3996C129.52 37.121 130.015 36.713 130.397 36.2083L131.934 37.5753C131.346 38.2903 130.603 38.8615 129.76 39.2453C128.918 39.6291 127.999 39.8154 127.074 39.7898C126.276 39.8174 125.481 39.6845 124.736 39.3989C123.991 39.1133 123.311 38.6808 122.736 38.1271C122.161 37.5735 121.704 36.91 121.39 36.176C121.077 35.442 120.914 34.6526 120.912 33.8546C120.91 33.0565 121.068 32.2662 121.377 31.5305C121.686 30.7948 122.14 30.1287 122.712 29.5719C123.284 29.015 123.961 28.5787 124.705 28.2889C125.448 27.9991 126.243 27.8617 127.04 27.8848C128.613 27.8614 130.133 28.4546 131.274 29.5374L129.835 31.0563C129.468 30.682 129.031 30.3842 128.548 30.1798C128.066 29.9754 127.548 29.8686 127.024 29.8655C126.508 29.867 125.997 29.972 125.523 30.1741C125.048 30.3762 124.619 30.6714 124.26 31.0422C123.901 31.413 123.62 31.8519 123.434 32.333C123.247 32.8141 123.159 33.3277 123.175 33.8434Z" fill="#909090"/>
<path d="M143.598 34.7288H137.811V39.6317H135.578V28.0563H137.811V32.7405H143.598V28.0518H145.831V39.6272H143.598V34.7288Z" fill="#909090"/>
<path d="M153.023 30.04V32.7405H156.579V34.7242H153.023V37.6435H157.901V39.6272H150.79V28.0518H157.734V30.0354L153.023 30.04Z" fill="#909090"/>
<path d="M60.8987 43.6338L65.8928 55.2077H64.8994L63.3806 51.7143H57.7607L56.2418 55.2077H55.25L60.2441 43.6338H60.8987ZM58.1541 50.7725H62.9659L60.5676 45.1846L58.1541 50.7725Z" fill="#909090"/>
<path d="M69.4443 43.6338H70.105L77.8772 53.2726V43.6338H78.8705V55.2077H78.2083L70.4377 45.5673V55.2077H69.4458L69.4443 43.6338Z" fill="#909090"/>
<path d="M91.4533 54.1147C90.2833 54.912 88.8808 55.2963 87.4677 55.2068H84.1611V43.6344H87.4647C88.8778 43.5445 90.2804 43.9288 91.4502 44.7265C92.1657 45.2824 92.7447 45.9944 93.1429 46.8082C93.5412 47.622 93.7482 48.5161 93.7482 49.4221C93.7482 50.3282 93.5412 51.2222 93.1429 52.036C92.7447 52.8498 92.1657 53.5618 91.4502 54.1177L91.4533 54.1147ZM90.9399 45.5497C89.9139 44.8271 88.6691 44.4825 87.4176 44.5746H85.1514V54.2666H87.4176C88.6692 54.3589 89.914 54.0143 90.9399 53.2915C91.5091 52.82 91.9672 52.2288 92.2817 51.56C92.5961 50.8911 92.7592 50.1612 92.7592 49.4221C92.7592 48.6831 92.5961 47.9531 92.2817 47.2843C91.9672 46.6154 91.5091 46.0242 90.9399 45.5528V45.5497Z" fill="#909090"/>
<path d="M97.8018 43.6338H100.051L102.45 50.8591L104.995 43.6338H106.567L109.114 50.8591L111.51 43.6338H113.759L109.922 55.2077H108.352L105.77 47.8821L103.206 55.2077H101.634L97.8018 43.6338Z" fill="#909090"/>
<path d="M122.439 43.4714C123.613 43.4876 124.756 43.8505 125.725 44.5145C126.693 45.1786 127.443 46.1141 127.882 47.2035C128.32 48.2929 128.426 49.4874 128.187 50.637C127.948 51.7865 127.374 52.8397 126.538 53.6642C125.702 54.4886 124.641 55.0475 123.488 55.2705C122.335 55.4935 121.142 55.3706 120.059 54.9175C118.976 54.4643 118.051 53.7009 117.401 52.7235C116.75 51.746 116.403 50.598 116.403 49.4239C116.389 48.631 116.535 47.8434 116.834 47.109C117.133 46.3745 117.579 45.7087 118.144 45.1519C118.708 44.595 119.38 44.1589 120.119 43.87C120.857 43.5811 121.647 43.4455 122.439 43.4714ZM122.439 53.3927C123.232 53.4276 124.016 53.2245 124.692 52.8097C125.368 52.3949 125.904 51.7872 126.231 51.065C126.559 50.3429 126.663 49.5392 126.53 48.7575C126.396 47.9758 126.032 47.2519 125.484 46.6789C124.936 46.1059 124.229 45.7101 123.454 45.5425C122.679 45.3749 121.871 45.4431 121.135 45.7384C120.399 46.0337 119.768 46.5425 119.324 47.1993C118.88 47.8561 118.642 48.6309 118.642 49.4239C118.626 49.9347 118.712 50.4436 118.895 50.9208C119.078 51.3979 119.355 51.8338 119.708 52.2028C120.062 52.5718 120.486 52.8666 120.955 53.0698C121.424 53.2731 121.928 53.3808 122.439 53.3866V53.3927Z" fill="#909090"/>
<path d="M132.608 43.6338H134.178L140.628 51.1735V43.6338H142.86V55.2077H141.288L134.839 47.6679V55.2077H132.606L132.608 43.6338Z" fill="#909090"/>
<path d="M151.461 43.634C152.874 43.5439 154.276 43.9283 155.446 44.726C156.162 45.2819 156.741 45.994 157.139 46.8078C157.537 47.6216 157.744 48.5156 157.744 49.4217C157.744 50.3277 157.537 51.2217 157.139 52.0356C156.741 52.8494 156.162 53.5614 155.446 54.1173C154.276 54.9147 152.874 55.299 151.461 55.2094H147.815V43.634H151.461ZM154.669 46.9071C154.313 46.473 153.859 46.1297 153.345 45.9054C152.83 45.6812 152.27 45.5826 151.71 45.6176H150.057V53.2242H151.711C152.271 53.2595 152.832 53.1609 153.346 52.9367C153.861 52.7125 154.315 52.369 154.67 51.9346C155.217 51.2111 155.513 50.3288 155.513 49.4217C155.513 48.5145 155.217 47.6322 154.67 46.9087L154.669 46.9071Z" fill="#909090"/>
<path d="M164.107 45.622V48.3271H167.663V50.3169H164.107V53.2346H168.986V55.2198H161.876V43.6338H168.82V45.6174L164.107 45.622Z" fill="#909090"/>
<path d="M175.518 50.3186V55.2109H173.285V43.6355H178.203C179.127 43.5766 180.037 43.8856 180.734 44.4952C181.39 45.1545 181.759 46.0468 181.759 46.9771C181.759 47.9073 181.39 48.7997 180.734 49.4589C180.404 49.77 180.009 50.0022 179.576 50.1379L182.271 55.2124H179.743L177.263 50.3201L175.518 50.3186ZM178.071 48.3334C178.272 48.363 178.478 48.3473 178.672 48.2873C178.867 48.2274 179.045 48.1249 179.195 47.9871C179.41 47.6973 179.526 47.3461 179.526 46.9854C179.526 46.6247 179.41 46.2736 179.195 45.9837C179.047 45.8428 178.869 45.7368 178.675 45.6738C178.48 45.6107 178.274 45.592 178.071 45.6192H175.518V48.3334H178.071Z" fill="#909090"/>
<path d="M190.079 48.4611C187.801 47.9173 187.44 47.5072 187.44 46.7402V46.7068C187.44 45.9473 188.15 45.4279 189.208 45.4279C190.316 45.468 191.38 45.8757 192.232 46.5868L192.291 46.6309L193.438 44.9996L193.385 44.9585C192.22 43.9964 190.75 43.482 189.24 43.508C188.756 43.4517 188.266 43.4962 187.8 43.6387C187.335 43.7812 186.903 44.0186 186.534 44.336C186.165 44.6533 185.865 45.0438 185.654 45.4827C185.443 45.9216 185.326 46.3994 185.309 46.886V46.9194C185.309 49.058 186.65 49.7901 189.126 50.3946C191.252 50.8883 191.621 51.3272 191.621 52.0654V52.0988C191.621 52.9251 190.862 53.4658 189.691 53.4658C188.372 53.4496 187.111 52.925 186.17 52.0016L186.114 51.953L184.827 53.4977L184.879 53.5433C186.179 54.7339 187.879 55.3916 189.642 55.3857C192.138 55.3857 193.743 54.0187 193.743 51.909V51.8771C193.752 49.7886 192.283 49.0018 190.079 48.4611Z" fill="#909090"/>
<path d="M166.292 32.8863C164.014 32.3426 163.653 31.934 163.653 31.1654V31.1336C163.653 30.3741 164.363 29.8531 165.42 29.8531C166.529 29.8933 167.593 30.301 168.445 31.012L168.504 31.0576L169.651 29.4263L169.597 29.3838C168.432 28.4225 166.963 27.9086 165.452 27.9348C164.969 27.8785 164.479 27.923 164.013 28.0655C163.547 28.208 163.116 28.4454 162.747 28.7628C162.378 29.0801 162.078 29.4705 161.867 29.9094C161.656 30.3483 161.539 30.8261 161.522 31.3128V31.3447C161.522 33.4833 162.863 34.2154 165.339 34.8199C167.465 35.3135 167.834 35.7525 167.834 36.4906V36.5226C167.834 37.3488 167.075 37.8895 165.903 37.8895C164.585 37.8727 163.324 37.3477 162.383 36.4238L162.327 36.3752L161.04 37.9184L161.092 37.9655C162.392 39.1562 164.092 39.814 165.855 39.8079C168.35 39.8079 169.956 38.4409 169.956 36.3312V36.2993C169.959 34.2063 168.496 33.4195 166.292 32.8863Z" fill="#909090"/>
<path d="M134.493 65.1338H114.593V67.2587H134.493V65.1338Z" fill="#909090"/>
</svg>
