<svg width="248" height="96" viewBox="0 0 248 96" fill="none" xmlns="http://www.w3.org/2000/svg">
<g clip-path="url(#clip0_665_109)">
<path d="M94.3356 56.124C94.3356 60.8925 89.7184 64.2195 83.1012 64.2195C77.3067 64.2195 73.6186 61.8965 71.5441 59.9514L71.0264 59.4651L73.6648 56.9532L74.1364 57.4045C76.4804 59.626 79.6614 60.847 83.0977 60.847C87.4347 60.847 90.2397 59.0558 90.2397 56.2779C90.2397 53.5001 88.2184 52.594 84.9169 51.3661L80.0444 49.5678C77.9308 48.7807 72.9839 46.9334 72.9839 42.123C72.9839 37.7569 77.3315 34.5942 83.3246 34.5942C87.0482 34.5942 90.5766 35.8607 92.9987 38.0682L93.5271 38.551L91.0412 40.9405L90.566 40.5347C88.5801 38.8309 86.1439 37.9668 83.3246 37.9668C79.5302 37.9668 77.0762 39.5236 77.0762 41.9341C77.0762 44.579 79.9025 45.6075 82.1757 46.4332L87.0517 48.2314C90.5766 49.5468 94.3356 51.3521 94.3356 56.124Z" fill="#909090"/>
<path d="M122.17 35.0771V52.3807C122.17 60.0145 117.957 64.2162 110.308 64.2162C102.659 64.2162 98.4922 60.0145 98.4922 52.3807V35.0771H102.542V52.2688C102.542 57.9608 105.156 60.8436 110.308 60.8436C115.461 60.8436 118.252 57.9573 118.252 52.2688V35.0771H122.167H122.17Z" fill="#909090"/>
<path d="M151.458 35.0771V63.7299H147.646L134.163 44.6385L131.638 40.8742C131.638 40.9056 131.638 40.9406 131.645 40.9756C131.759 42.8158 131.876 44.7155 131.876 46.6887V63.7299H127.961V35.0771H131.77L145.298 54.1265L147.759 57.8699C147.639 55.9037 147.54 53.9096 147.54 51.9294V35.0771H151.455H151.458Z" fill="#909090"/>
<path d="M178.544 38.9115C175.852 36.3681 171.916 35.0771 166.848 35.0771H158.476V63.7299H166.894C176.792 63.7299 182.466 58.4751 182.466 49.3125C182.466 44.8729 181.147 41.371 178.544 38.915V38.9115ZM162.522 38.2958H166.579C174.235 38.2958 178.281 42.1056 178.281 49.309C178.281 54.3994 176.249 60.4728 166.579 60.4728H162.522V38.2958Z" fill="#909090"/>
<path d="M207.304 60.4343V63.7299H187.428V35.0771H206.815V38.3343H191.478V46.9476H204.396V50.2082H191.478V60.4343H207.304Z" fill="#909090"/>
<path d="M226.067 51.0373C230.94 50.0892 233.709 47.2239 233.709 43.0537C233.709 36.4591 227.429 35.0771 222.159 35.0771H211.953V63.7299H215.999V51.4081H221.62L230.294 63.7299H234.996L226.063 51.0408L226.067 51.0373ZM216.003 38.2958H221.535C225.532 38.2958 229.617 38.8625 229.617 43.0537C229.617 46.4578 226.897 48.186 221.535 48.186H216.003V38.2958Z" fill="#909090"/>
<path d="M15.6237 46.1216H13.0527L13.0669 45.8837C13.9038 33.0512 24.7694 23 37.8088 23C50.8483 23 61.7139 33.0512 62.5508 45.8837L62.5685 46.1216H59.9939L59.9762 45.9117C59.1641 34.4856 49.4262 25.5329 37.8088 25.5329C26.1915 25.5329 16.4571 34.4856 15.6415 45.9117L15.6273 46.1216H15.6237Z" fill="#909090"/>
<path d="M15.8438 58.9575H59.7175L59.5295 59.2899C59.1217 60.0246 58.6572 60.7627 58.1465 61.4869L58.0791 61.5849H17.4821L17.4147 61.4869C16.9041 60.7627 16.436 60.0246 16.0282 59.2899L15.8438 58.9575Z" fill="#909090"/>
<path d="M26.7916 69.4917H48.7675L47.7746 69.922C44.6113 71.3004 41.246 71.9966 37.7778 71.9966C34.3096 71.9966 30.9478 71.2969 27.781 69.922L26.7881 69.4917H26.7916Z" fill="#909090"/>
<path d="M13.7803 53.689H61.7818L61.7038 53.9723C61.4946 54.7245 61.2534 55.4627 60.9839 56.1694L60.9272 56.3163H14.6314L14.5782 56.1694C14.3051 55.4627 14.064 54.721 13.8583 53.9723L13.7803 53.689Z" fill="#909090"/>
<path d="M19.6494 64.2266H55.913L55.5371 64.6114C54.7676 65.3881 53.9307 66.1297 53.0512 66.8085L52.9909 66.8574H22.5715L22.5112 66.8085C21.6317 66.1297 20.7948 65.3916 20.0253 64.6114L19.6494 64.2266Z" fill="#909090"/>
<path d="M13 48.4238H62.5619L62.5512 48.6582C62.5193 49.3649 62.4519 50.1031 62.3455 50.8553L62.3207 51.0512H13.2411L13.2128 50.8553C13.1099 50.1031 13.0426 49.3649 13.0106 48.6582L13 48.4238Z" fill="#909090"/>
</g>
<defs>
<clipPath id="clip0_665_109">
<rect width="222" height="49" fill="white" transform="translate(13 23)"/>
</clipPath>
</defs>
</svg>
