<svg width="248" height="96" viewBox="0 0 248 96" fill="none" xmlns="http://www.w3.org/2000/svg">
<path fill-rule="evenodd" clip-rule="evenodd" d="M49.1366 39.0079C48.7421 39.9085 48.1175 40.6162 47.2956 41.1309C46.5724 41.5812 45.7834 41.8064 44.9286 41.8385C44.567 41.8385 44.2382 41.5812 44.2382 41.1952C44.2382 40.8414 44.5012 40.5197 44.8629 40.5197C45.4875 40.4875 46.0792 40.3267 46.5724 40.005C47.1641 39.6512 47.5915 39.1365 47.8874 38.461C48.0517 38.075 48.0189 37.6569 47.8216 37.2709C47.5915 36.917 47.2299 36.6919 46.8025 36.6597C45.9149 36.5954 45.1587 36.8849 44.567 37.4639C43.6136 38.3967 43.252 40.0694 43.0876 40.777C42.9561 41.3882 41.3781 48.0145 40.7535 50.6844C40.6549 51.1025 40.2932 51.392 39.833 51.392C39.4056 51.392 39.0111 51.1025 38.9125 50.6844L38.6824 49.7194C37.9591 46.6957 36.7099 41.3239 36.5784 40.777C36.414 40.0694 36.0195 38.3967 35.099 37.4639C34.5072 36.8849 33.784 36.6275 32.8635 36.6597C32.4361 36.6919 32.0745 36.917 31.8443 37.2709C31.6142 37.6247 31.5814 38.075 31.7786 38.461C32.0745 39.1044 32.5347 39.619 33.0936 40.005C33.6196 40.3267 34.1785 40.4875 34.8031 40.5197C35.1647 40.5197 35.4606 40.8414 35.4277 41.1952C35.4277 41.549 35.099 41.8385 34.7374 41.8385C33.8826 41.8064 33.0607 41.5812 32.3704 41.1309C31.5485 40.6162 30.9238 39.9085 30.5293 39.0079C30.1677 38.2359 30.2335 37.3352 30.6937 36.5954C31.154 35.8555 31.9101 35.4052 32.7649 35.373C34.047 35.3087 35.1647 35.6947 35.9866 36.5632C37.203 37.7534 37.6303 39.6834 37.8276 40.5197C37.9591 41.0344 39.044 45.6985 39.8001 48.7865C40.5233 45.6985 41.6411 41.0022 41.7726 40.5197C41.9698 39.6834 42.3972 37.7534 43.6136 36.5632C44.4684 35.7269 45.5861 35.3087 46.8354 35.373C47.6901 35.4374 48.4462 35.8877 48.9065 36.5954C49.3996 37.303 49.4654 38.2037 49.1366 39.0079ZM43.1862 28.5537C42.2986 28.5537 41.3781 28.7145 40.4905 29.004C40.096 29.1327 39.6357 29.1327 39.2412 29.004C38.3536 28.7145 37.4331 28.5537 36.5455 28.5537C31.417 28.5537 27.1104 33.636 27.1104 39.6512C27.1104 46.3419 32.2717 52.2605 39.6357 53.9975C39.8001 54.0297 39.9316 54.0297 40.096 53.9975C47.46 52.2284 52.6213 46.3097 52.6213 39.6512C52.6213 33.636 48.2819 28.5537 43.1862 28.5537Z" fill="#909090"/>
<path fill-rule="evenodd" clip-rule="evenodd" d="M40.392 55.2843C40.2277 55.3165 40.0304 55.3486 39.866 55.3486C39.6688 55.3486 39.5044 55.3165 39.34 55.2843C31.3514 53.3865 25.7955 46.9531 25.7955 39.6513C25.7955 32.9285 30.7268 27.235 36.5457 27.235C37.5648 27.235 38.6168 27.3958 39.6688 27.7496C39.8003 27.7818 39.9647 27.7818 40.0962 27.7496C41.1153 27.3958 42.1673 27.235 43.2193 27.235C49.0382 27.235 53.9694 32.9285 53.9694 39.6513C53.9365 46.9531 48.3807 53.3865 40.392 55.2843ZM53.1804 53.483C53.1804 53.8368 52.8845 54.1585 52.5229 54.1585C52.1613 54.1585 51.8654 53.869 51.8654 53.483V52.5501C51.8654 52.1963 52.1613 51.8746 52.5229 51.8746C52.8845 51.8746 53.1804 52.1641 53.1804 52.5501V53.483ZM53.1804 57.6646C53.1804 58.0185 52.8845 58.3401 52.5229 58.3401C52.1613 58.3401 51.8654 58.0506 51.8654 57.6646V56.7318C51.8654 56.378 52.1613 56.0563 52.5229 56.0563C52.8845 56.0563 53.1804 56.3458 53.1804 56.7318V57.6646ZM48.9395 59.7555C48.9395 60.1093 48.6437 60.431 48.282 60.431C47.9204 60.431 47.6245 60.1415 47.6245 59.7555V58.8226C47.6245 58.4688 47.9204 58.1471 48.282 58.1471C48.6437 58.1471 48.9395 58.4366 48.9395 58.8226V59.7555ZM48.9395 63.9371C48.9395 64.291 48.6437 64.6126 48.282 64.6126C47.9204 64.6126 47.6245 64.3231 47.6245 63.9371V63.0043C47.6245 62.6505 47.9204 62.3288 48.282 62.3288C48.6437 62.3288 48.9395 62.6183 48.9395 63.0043V63.9371ZM44.7315 61.8463C44.7315 62.2001 44.4357 62.5218 44.074 62.5218C43.7124 62.5218 43.4165 62.2323 43.4165 61.8463V60.9135C43.4165 60.5596 43.7124 60.238 44.074 60.238C44.4357 60.238 44.7315 60.5275 44.7315 60.9135V61.8463ZM44.7315 66.028C44.7315 66.3818 44.4357 66.7035 44.074 66.7035C43.7124 66.7035 43.4165 66.414 43.4165 66.028V65.0951C43.4165 64.7413 43.7124 64.4196 44.074 64.4196C44.4357 64.4196 44.7315 64.7091 44.7315 65.0951V66.028ZM40.5235 59.7555C40.5235 60.1093 40.2277 60.431 39.866 60.431C39.5044 60.431 39.2085 60.1415 39.2085 59.7555V58.8226C39.2085 58.4688 39.5044 58.1471 39.866 58.1471C40.2277 58.1471 40.5235 58.4366 40.5235 58.8226V59.7555ZM40.5235 63.9371C40.5235 64.291 40.2277 64.6126 39.866 64.6126C39.5044 64.6126 39.2085 64.3231 39.2085 63.9371V63.0043C39.2085 62.6505 39.5044 62.3288 39.866 62.3288C40.2277 62.3288 40.5235 62.6183 40.5235 63.0043V63.9371ZM36.3155 61.8463C36.3155 62.2001 36.0197 62.5218 35.658 62.5218C35.2964 62.5218 35.0005 62.2323 35.0005 61.8463V60.9135C35.0005 60.5596 35.2964 60.238 35.658 60.238C36.0197 60.238 36.3155 60.5275 36.3155 60.9135V61.8463ZM36.3155 66.028C36.3155 66.3818 36.0197 66.7035 35.658 66.7035C35.2964 66.7035 35.0005 66.414 35.0005 66.028V65.0951C35.0005 64.7413 35.2964 64.4196 35.658 64.4196C36.0197 64.4196 36.3155 64.7091 36.3155 65.0951V66.028ZM32.1075 59.7555C32.1075 60.1093 31.8117 60.431 31.45 60.431C31.0884 60.431 30.7925 60.1415 30.7925 59.7555V58.8226C30.7925 58.4688 31.0884 58.1471 31.45 58.1471C31.8117 58.1471 32.1075 58.4366 32.1075 58.8226V59.7555ZM32.1075 63.9371C32.1075 64.291 31.8117 64.6126 31.45 64.6126C31.0884 64.6126 30.7925 64.3231 30.7925 63.9371V63.0043C30.7925 62.6505 31.0884 62.3288 31.45 62.3288C31.8117 62.3288 32.1075 62.6183 32.1075 63.0043V63.9371ZM27.8995 53.483C27.8995 53.8368 27.6037 54.1585 27.242 54.1585C26.8804 54.1585 26.5845 53.869 26.5845 53.483V52.5501C26.5845 52.1963 26.8804 51.8746 27.242 51.8746C27.6037 51.8746 27.8995 52.1641 27.8995 52.5501V53.483ZM27.8995 57.6646C27.8995 58.0185 27.6037 58.3401 27.242 58.3401C26.8804 58.3401 26.5845 58.0506 26.5845 57.6646V56.7318C26.5845 56.378 26.8804 56.0563 27.242 56.0563C27.6037 56.0563 27.8995 56.3458 27.8995 56.7318V57.6646ZM39.866 23.8896C30.7597 23.8896 23.3628 31.2236 23.3628 40.2946V54.4801C23.3628 63.5511 30.7597 70.8851 39.866 70.8851C48.9724 70.8851 56.3693 63.5511 56.3693 54.4801V40.2946C56.3693 31.2236 48.9724 23.8896 39.866 23.8896Z" fill="#909090"/>
<path fill-rule="evenodd" clip-rule="evenodd" d="M75.437 46.6637C72.4125 45.8917 71.1632 45.4413 71.1632 43.7687C71.1632 42.5463 72.281 41.6135 74.2535 41.6135C76.2588 41.6135 77.5081 42.4177 78.4615 43.64L80.8942 41.6778C79.3491 39.7157 77.278 38.5898 74.1877 38.5898C70.3413 38.5898 67.7771 40.745 67.7771 43.8652C67.7771 47.2427 70.0783 48.6902 73.9576 49.7195C77.3437 50.6523 78.6916 51.36 78.6916 53.0327C78.6916 54.6089 77.278 55.5739 74.7795 55.5739C72.1823 55.5739 70.2098 54.4158 69.0263 52.4858L66.4292 54.2872C68.2044 56.957 71.0646 58.5975 74.7795 58.5975C79.4148 58.5975 82.2092 56.4424 82.2092 52.8397C82.2092 49.3657 79.6121 47.693 75.437 46.6637Z" fill="#909090"/>
<path fill-rule="evenodd" clip-rule="evenodd" d="M95.9837 55.4773C92.1374 55.4773 89.5731 52.6466 89.5731 48.6258C89.5731 44.5728 92.1374 41.7099 95.9837 41.7099C99.7972 41.7099 102.263 44.5406 102.263 48.6258C102.263 52.6466 99.7643 55.4773 95.9837 55.4773ZM102.164 42.2889C100.783 39.9086 98.4822 38.5576 95.2934 38.5576C89.9019 38.5576 85.7925 42.8679 85.7925 48.5936C85.7925 54.2871 89.9019 58.5653 95.2934 58.5653C98.4822 58.5653 100.816 57.2464 102.164 54.8661V58.1149H105.78V39.0079H102.164V42.2889Z" fill="#909090"/>
<path fill-rule="evenodd" clip-rule="evenodd" d="M134.02 38.5898C130.864 38.5898 128.694 39.7478 127.149 42.1282C125.966 39.7478 123.895 38.5898 121.265 38.5898C118.602 38.5898 116.531 39.6835 115.446 41.6778V39.0723H111.83V58.1793H115.446V47.1783C115.446 43.7043 117.287 41.7744 120.476 41.7744C123.27 41.7744 124.618 43.4148 124.618 46.4063V58.1472H128.234V47.0497C128.234 43.6722 130.009 41.7744 133.264 41.7744C135.993 41.7744 137.406 43.3505 137.406 46.3742V58.1472H141.023V45.956C141.055 41.324 138.097 38.5898 134.02 38.5898Z" fill="#909090"/>
<path fill-rule="evenodd" clip-rule="evenodd" d="M154.106 46.6637C151.082 45.8917 149.833 45.4413 149.833 43.7687C149.833 42.5463 150.95 41.6135 152.923 41.6135C154.928 41.6135 156.178 42.4177 157.131 43.64L159.564 41.6778C158.019 39.7157 155.947 38.5898 152.857 38.5898C149.011 38.5898 146.446 40.745 146.446 43.8652C146.446 47.2427 148.748 48.6902 152.627 49.7195C156.013 50.6523 157.361 51.36 157.361 53.0327C157.361 54.6089 155.947 55.5739 153.449 55.5739C150.852 55.5739 148.879 54.4158 147.696 52.4858L145.099 54.2872C146.874 56.957 149.734 58.5975 153.449 58.5975C158.084 58.5975 160.879 56.4424 160.879 52.8397C160.879 49.3657 158.282 47.693 154.106 46.6637Z" fill="#909090"/>
<path fill-rule="evenodd" clip-rule="evenodd" d="M174.654 55.4773C170.807 55.4773 168.243 52.6466 168.243 48.6258C168.243 44.5728 170.807 41.7099 174.654 41.7099C178.467 41.7099 180.933 44.5406 180.933 48.6258C180.933 52.6466 178.434 55.4773 174.654 55.4773ZM180.801 42.2889C179.421 39.9086 177.119 38.5576 173.931 38.5576C168.539 38.5576 164.43 42.8679 164.43 48.5936C164.43 54.2871 168.539 58.5653 173.931 58.5653C177.119 58.5653 179.454 57.2464 180.801 54.8661V58.1149H184.418V39.0079H180.801V42.2889Z" fill="#909090"/>
<path fill-rule="evenodd" clip-rule="evenodd" d="M213.742 55.4773C209.896 55.4773 207.331 52.6466 207.331 48.6258C207.331 44.5728 209.896 41.7099 213.742 41.7099C217.556 41.7099 220.021 44.5406 220.021 48.6258C220.054 52.6466 217.556 55.4773 213.742 55.4773ZM219.923 39.0401V42.2889C218.542 39.9086 216.241 38.5576 213.052 38.5576C207.66 38.5576 203.551 42.8679 203.551 48.5936C203.551 54.2871 207.66 58.5653 213.052 58.5653C216.241 58.5653 218.575 57.2464 219.923 54.8661V58.1149H223.539V39.0079H219.923V39.0401Z" fill="#909090"/>
<path fill-rule="evenodd" clip-rule="evenodd" d="M194.115 43.447V39.0402H190.499V58.1472H194.115V48.2077L202.137 41.2275L199.737 38.5898L194.115 43.447Z" fill="#909090"/>
</svg>
