<svg width="248" height="101" viewBox="0 0 248 101" fill="none" xmlns="http://www.w3.org/2000/svg">
<mask id="mask0_2059_1084" style="mask-type:luminance" maskUnits="userSpaceOnUse" x="25" y="32" width="11" height="16">
<path d="M25 34.8091L32.8052 47.9805L35.2127 45.5408L27.376 32.2846L25 34.8091Z" fill="white"/>
</mask>
<g mask="url(#mask0_2059_1084)">
<mask id="mask1_2059_1084" style="mask-type:luminance" maskUnits="userSpaceOnUse" x="21" y="29" width="19" height="22">
<path d="M34.5335 29.7396L39.1239 46.9366L25.6793 50.5254L21.0889 33.3284L34.5335 29.7396Z" fill="white"/>
</mask>
<g mask="url(#mask1_2059_1084)">
<path d="M25 34.8091L32.8052 47.9805L35.2127 45.5408L27.376 32.2846L25 34.8091Z" fill="#909090"/>
</g>
</g>
<mask id="mask2_2059_1084" style="mask-type:luminance" maskUnits="userSpaceOnUse" x="32" y="44" width="7" height="4">
<path d="M35.2132 45.5408L32.8057 47.9805L35.7405 46.7263L38.183 44.1304L35.2132 45.5408Z" fill="white"/>
</mask>
<g mask="url(#mask2_2059_1084)">
<mask id="mask3_2059_1084" style="mask-type:luminance" maskUnits="userSpaceOnUse" x="32" y="44" width="7" height="5">
<path d="M32.8066 48.0867L32.729 44.1315L38.1801 44.0246L38.2577 47.9798L32.8066 48.0867Z" fill="white"/>
</mask>
<g mask="url(#mask3_2059_1084)">
<path d="M35.2132 45.5408L32.8057 47.9805L35.7405 46.7263L38.183 44.1304L35.2132 45.5408Z" fill="#909090"/>
</g>
</g>
<mask id="mask4_2059_1084" style="mask-type:luminance" maskUnits="userSpaceOnUse" x="140" y="22" width="4" height="5">
<path d="M140.907 24.4537L140.608 26.1826L143.577 24.5909L143.828 22.7884L140.907 24.4537Z" fill="white"/>
</mask>
<g mask="url(#mask4_2059_1084)">
<mask id="mask5_2059_1084" style="mask-type:luminance" maskUnits="userSpaceOnUse" x="139" y="21" width="6" height="7">
<path d="M144.717 23.0396L143.59 27.0254L139.72 25.9316L140.846 21.9458L144.717 23.0396Z" fill="white"/>
</mask>
<g mask="url(#mask5_2059_1084)">
<path d="M140.907 24.4537L140.608 26.1826L143.577 24.5909L143.828 22.7884L140.907 24.4537Z" fill="#909090"/>
</g>
</g>
<mask id="mask6_2059_1084" style="mask-type:luminance" maskUnits="userSpaceOnUse" x="107" y="11" width="16" height="16">
<path d="M119.151 12.5786L107.139 26.3381H107.139L110.148 24.7709L122.016 11.0254L119.151 12.5786Z" fill="white"/>
</mask>
<g mask="url(#mask6_2059_1084)">
<mask id="mask7_2059_1084" style="mask-type:luminance" maskUnits="userSpaceOnUse" x="101" y="5" width="27" height="27">
<path d="M127.408 13.2454L119.86 31.5759L101.748 24.1179L109.296 5.78736L127.408 13.2454Z" fill="white"/>
</mask>
<g mask="url(#mask7_2059_1084)">
<path d="M119.151 12.5786L107.139 26.3381H107.139L110.148 24.7709L122.016 11.0254L119.151 12.5786Z" fill="#909090"/>
</g>
</g>
<mask id="mask8_2059_1084" style="mask-type:luminance" maskUnits="userSpaceOnUse" x="182" y="29" width="5" height="8">
<path d="M183.425 31.413L182.122 36.6707L185.06 35.1287L186.313 29.7835L183.425 31.413Z" fill="white"/>
</mask>
<g mask="url(#mask8_2059_1084)">
<mask id="mask9_2059_1084" style="mask-type:luminance" maskUnits="userSpaceOnUse" x="179" y="28" width="10" height="11">
<path d="M188.512 30.5763L185.831 38.0085L179.924 35.8782L182.605 28.446L188.512 30.5763Z" fill="white"/>
</mask>
<g mask="url(#mask9_2059_1084)">
<path d="M183.425 31.413L182.122 36.6707L185.06 35.1287L186.313 29.7835L183.425 31.413Z" fill="#909090"/>
</g>
</g>
<mask id="mask10_2059_1084" style="mask-type:luminance" maskUnits="userSpaceOnUse" x="173" y="69" width="14" height="5">
<path d="M173.966 70.8072L183.912 73.9773L186.867 72.4815L176.892 69.2582L173.966 70.8072Z" fill="white"/>
</mask>
<g mask="url(#mask10_2059_1084)">
<mask id="mask11_2059_1084" style="mask-type:luminance" maskUnits="userSpaceOnUse" x="173" y="69" width="14" height="6">
<path d="M173.97 74.2292L173.873 69.2592L186.862 69.0045L186.959 73.9746L173.97 74.2292Z" fill="white"/>
</mask>
<g mask="url(#mask11_2059_1084)">
<path d="M173.966 70.8072L183.912 73.9773L186.867 72.4815L176.892 69.2582L173.966 70.8072Z" fill="#909090"/>
</g>
</g>
<mask id="mask12_2059_1084" style="mask-type:luminance" maskUnits="userSpaceOnUse" x="165" y="34" width="6" height="3">
<path d="M165.097 36.1641L167.526 36.7229L170.455 35.1788L168.054 34.6347L165.097 36.1641Z" fill="white"/>
</mask>
<g mask="url(#mask12_2059_1084)">
<mask id="mask13_2059_1084" style="mask-type:luminance" maskUnits="userSpaceOnUse" x="164" y="31" width="8" height="9">
<path d="M164.056 35.6075L167.958 31.9616L171.497 35.7494L167.594 39.3953L164.056 35.6075Z" fill="white"/>
</mask>
<g mask="url(#mask13_2059_1084)">
<path d="M165.097 36.1641L167.526 36.7229L170.455 35.1788L168.054 34.6347L165.097 36.1641Z" fill="#909090"/>
</g>
</g>
<mask id="mask14_2059_1084" style="mask-type:luminance" maskUnits="userSpaceOnUse" x="104" y="28" width="6" height="4">
<path d="M106.941 30.0893L104.421 31.9968L107.407 30.4079L109.508 28.7238L106.941 30.0893Z" fill="white"/>
</mask>
<g mask="url(#mask14_2059_1084)">
<mask id="mask15_2059_1084" style="mask-type:luminance" maskUnits="userSpaceOnUse" x="104" y="28" width="6" height="5">
<path d="M104.424 32.0967L104.358 28.7246L109.507 28.6236L109.573 31.9957L104.424 32.0967Z" fill="white"/>
</mask>
<g mask="url(#mask15_2059_1084)">
<path d="M106.941 30.0893L104.421 31.9968L107.407 30.4079L109.508 28.7238L106.941 30.0893Z" fill="#909090"/>
</g>
</g>
<mask id="mask16_2059_1084" style="mask-type:luminance" maskUnits="userSpaceOnUse" x="173" y="65" width="4" height="6">
<path d="M173.875 66.9026L173.966 70.8074L176.891 69.2584L176.794 65.3439L173.875 66.9026Z" fill="white"/>
</mask>
<g mask="url(#mask16_2059_1084)">
<mask id="mask17_2059_1084" style="mask-type:luminance" maskUnits="userSpaceOnUse" x="173" y="65" width="4" height="6">
<path d="M173.876 70.8669L173.768 65.3464L176.89 65.2852L176.998 70.8057L173.876 70.8669Z" fill="white"/>
</mask>
<g mask="url(#mask17_2059_1084)">
<path d="M173.875 66.9026L173.966 70.8074L176.891 69.2584L176.794 65.3439L173.875 66.9026Z" fill="#909090"/>
</g>
</g>
<mask id="mask18_2059_1084" style="mask-type:luminance" maskUnits="userSpaceOnUse" x="164" y="25" width="5" height="12">
<path d="M164.991 27.3577L165.097 36.1643L168.053 34.6349L167.881 25.7072L164.991 27.3577Z" fill="white"/>
</mask>
<g mask="url(#mask18_2059_1084)">
<mask id="mask19_2059_1084" style="mask-type:luminance" maskUnits="userSpaceOnUse" x="160" y="24" width="13" height="14">
<path d="M172.738 28.6129L167.203 37.5366L160.307 33.2595L165.842 24.3357L172.738 28.6129Z" fill="white"/>
</mask>
<g mask="url(#mask19_2059_1084)">
<path d="M164.991 27.3577L165.097 36.1643L168.053 34.6349L167.881 25.7072L164.991 27.3577Z" fill="#909090"/>
</g>
</g>
<path d="M164.29 65.5266L167.219 63.986L170.436 35.1854L167.527 36.7225L164.29 65.5266Z" fill="#909090"/>
<mask id="mask20_2059_1084" style="mask-type:luminance" maskUnits="userSpaceOnUse" x="164" y="63" width="13" height="4">
<path d="M164.291 65.5266L173.874 66.9026L176.794 65.3438L167.218 63.9867L164.291 65.5266Z" fill="white"/>
</mask>
<g mask="url(#mask20_2059_1084)">
<mask id="mask21_2059_1084" style="mask-type:luminance" maskUnits="userSpaceOnUse" x="164" y="63" width="13" height="5">
<path d="M164.295 67.1482L164.233 63.988L176.788 63.7418L176.85 66.902L164.295 67.1482Z" fill="white"/>
</mask>
<g mask="url(#mask21_2059_1084)">
<path d="M164.291 65.5266L173.874 66.9026L176.794 65.3438L167.218 63.9867L164.291 65.5266Z" fill="#909090"/>
</g>
</g>
<mask id="mask22_2059_1084" style="mask-type:luminance" maskUnits="userSpaceOnUse" x="143" y="62" width="19" height="5">
<path d="M143.733 64.1272L158.198 66.6902L161.08 65.1622L146.666 62.5544L143.733 64.1272Z" fill="white"/>
</mask>
<g mask="url(#mask22_2059_1084)">
<mask id="mask23_2059_1084" style="mask-type:luminance" maskUnits="userSpaceOnUse" x="143" y="61" width="19" height="7">
<path d="M143.763 67.4053L143.562 62.5616L161.051 61.8389L161.251 66.6825L143.763 67.4053Z" fill="white"/>
</mask>
<g mask="url(#mask23_2059_1084)">
<path d="M143.733 64.1272L158.198 66.6902L161.08 65.1622L146.666 62.5544L143.733 64.1272Z" fill="#909090"/>
</g>
</g>
<mask id="mask24_2059_1084" style="mask-type:luminance" maskUnits="userSpaceOnUse" x="142" y="56" width="5" height="9">
<path d="M142.954 57.7106L143.733 64.1272L146.666 62.5544L145.915 56.121L142.954 57.7106Z" fill="white"/>
</mask>
<g mask="url(#mask24_2059_1084)">
<mask id="mask25_2059_1084" style="mask-type:luminance" maskUnits="userSpaceOnUse" x="142" y="56" width="5" height="9">
<path d="M142.956 64.2002L142.797 56.1239L146.665 56.0481L146.824 64.1243L142.956 64.2002Z" fill="white"/>
</mask>
<g mask="url(#mask25_2059_1084)">
<path d="M142.954 57.7106L143.733 64.1272L146.666 62.5544L145.915 56.121L142.954 57.7106Z" fill="#909090"/>
</g>
</g>
<mask id="mask26_2059_1084" style="mask-type:luminance" maskUnits="userSpaceOnUse" x="137" y="53" width="8" height="10">
<path d="M137.682 55.5314L141.355 62.6804L144.707 61.0649L140.614 53.9005L137.682 55.5314Z" fill="white"/>
</mask>
<g mask="url(#mask26_2059_1084)">
<mask id="mask27_2059_1084" style="mask-type:luminance" maskUnits="userSpaceOnUse" x="137" y="53" width="8" height="10">
<path d="M137.685 62.8186L137.51 53.9036L144.705 53.7625L144.879 62.6775L137.685 62.8186Z" fill="white"/>
</mask>
<g mask="url(#mask27_2059_1084)">
<path d="M137.682 55.5314L141.355 62.6804L144.707 61.0649L140.614 53.9005L137.682 55.5314Z" fill="#909090"/>
</g>
</g>
<mask id="mask28_2059_1084" style="mask-type:luminance" maskUnits="userSpaceOnUse" x="124" y="56" width="16" height="5">
<path d="M124.229 57.9951L136.96 60.0356L139.859 58.4754L127.16 56.4713L124.229 57.9951Z" fill="white"/>
</mask>
<g mask="url(#mask28_2059_1084)">
<mask id="mask29_2059_1084" style="mask-type:luminance" maskUnits="userSpaceOnUse" x="124" y="55" width="17" height="6">
<path d="M124.257 60.6797L124.083 56.4773L139.832 55.8264L140.006 60.0288L124.257 60.6797Z" fill="white"/>
</mask>
<g mask="url(#mask29_2059_1084)">
<path d="M124.229 57.9951L136.96 60.0356L139.859 58.4754L127.16 56.4713L124.229 57.9951Z" fill="#909090"/>
</g>
</g>
<mask id="mask30_2059_1084" style="mask-type:luminance" maskUnits="userSpaceOnUse" x="124" y="24" width="9" height="34">
<path d="M129.459 26.1896L124.229 57.9951L127.16 56.4713L132.373 24.5314L129.459 26.1896Z" fill="white"/>
</mask>
<g mask="url(#mask30_2059_1084)">
<mask id="mask31_2059_1084" style="mask-type:luminance" maskUnits="userSpaceOnUse" x="107" y="20" width="42" height="43">
<path d="M129.008 62.0051L107.751 44.1686L127.594 20.5212L148.85 38.3576L129.008 62.0051Z" fill="white"/>
</mask>
<g mask="url(#mask31_2059_1084)">
<path d="M129.459 26.1896L124.229 57.9951L127.16 56.4713L132.373 24.5314L129.459 26.1896Z" fill="#909090"/>
</g>
</g>
<mask id="mask32_2059_1084" style="mask-type:luminance" maskUnits="userSpaceOnUse" x="107" y="24" width="6" height="5">
<path d="M107.139 26.338L109.239 28.8457L112.19 27.3331L110.148 24.7708L107.139 26.338Z" fill="white"/>
</mask>
<g mask="url(#mask32_2059_1084)">
<mask id="mask33_2059_1084" style="mask-type:luminance" maskUnits="userSpaceOnUse" x="105" y="22" width="10" height="10">
<path d="M105.239 26.0737L110.576 22.415L114.091 27.5433L108.754 31.2019L105.239 26.0737Z" fill="white"/>
</mask>
<g mask="url(#mask33_2059_1084)">
<path d="M107.139 26.338L109.239 28.8457L112.19 27.3331L110.148 24.7708L107.139 26.338Z" fill="#909090"/>
</g>
</g>
<mask id="mask34_2059_1084" style="mask-type:luminance" maskUnits="userSpaceOnUse" x="91" y="53" width="28" height="14">
<path d="M91.9712 54.7422L115.556 66.4248L118.445 64.908L94.8766 53.1596L91.9712 54.7422Z" fill="white"/>
</mask>
<g mask="url(#mask34_2059_1084)">
<mask id="mask35_2059_1084" style="mask-type:luminance" maskUnits="userSpaceOnUse" x="91" y="52" width="28" height="16">
<path d="M91.5952 66.4139L91.9926 52.4085L118.822 53.1698L118.425 67.1753L91.5952 66.4139Z" fill="white"/>
</mask>
<g mask="url(#mask35_2059_1084)">
<path d="M91.9712 54.7424L115.556 66.425L118.445 64.9083L94.8766 53.1598L91.9712 54.7424Z" fill="#909090"/>
</g>
</g>
<mask id="mask36_2059_1084" style="mask-type:luminance" maskUnits="userSpaceOnUse" x="90" y="21" width="8" height="9">
<path d="M94.1781 22.9451L90.6074 29.7209L93.5668 28.1068L97.1052 21.275L94.1781 22.9451Z" fill="white"/>
</mask>
<g mask="url(#mask36_2059_1084)">
<mask id="mask37_2059_1084" style="mask-type:luminance" maskUnits="userSpaceOnUse" x="87" y="18" width="14" height="15">
<path d="M100.215 22.6396L96.056 32.1128L87.499 28.356L91.6581 18.8829L100.215 22.6396Z" fill="white"/>
</mask>
<g mask="url(#mask37_2059_1084)">
<path d="M94.1781 22.9451L90.6074 29.7209L93.5668 28.1068L97.1052 21.275L94.1781 22.9451Z" fill="#909090"/>
</g>
</g>
<mask id="mask38_2059_1084" style="mask-type:luminance" maskUnits="userSpaceOnUse" x="80" y="63" width="15" height="4">
<path d="M83.6227 64.9746L80.6479 66.5439L91.9027 64.8843L94.9124 63.3759L83.6227 64.9746Z" fill="white"/>
</mask>
<g mask="url(#mask38_2059_1084)">
<mask id="mask39_2059_1084" style="mask-type:luminance" maskUnits="userSpaceOnUse" x="80" y="63" width="15" height="4">
<path d="M80.6478 66.6008L80.6348 63.3758L94.9125 63.3183L94.9255 66.5433L80.6478 66.6008Z" fill="white"/>
</mask>
<g mask="url(#mask39_2059_1084)">
<path d="M83.6227 64.9746L80.6479 66.5439L91.9027 64.8843L94.9124 63.3759L83.6227 64.9746Z" fill="#909090"/>
</g>
</g>
<mask id="mask40_2059_1084" style="mask-type:luminance" maskUnits="userSpaceOnUse" x="77" y="34" width="7" height="33">
<path d="M77.8965 36.1733L80.6478 66.5439L83.6226 64.9746L80.7991 34.6068L77.8965 36.1733Z" fill="white"/>
</mask>
<g mask="url(#mask40_2059_1084)">
<mask id="mask41_2059_1084" style="mask-type:luminance" maskUnits="userSpaceOnUse" x="71" y="33" width="19" height="35">
<path d="M89.7964 65.302L78.1195 67.6506L71.7231 35.8491L83.4 33.5005L89.7964 65.302Z" fill="white"/>
</mask>
<g mask="url(#mask41_2059_1084)">
<path d="M77.8965 36.1733L80.6478 66.5439L83.6226 64.9746L80.7991 34.6068L77.8965 36.1733Z" fill="#909090"/>
</g>
</g>
<mask id="mask42_2059_1084" style="mask-type:luminance" maskUnits="userSpaceOnUse" x="74" y="26" width="5" height="11">
<path d="M74.7227 28.31L75.1372 36.8743L78.0888 35.3078L77.6421 26.6552L74.7227 28.31Z" fill="white"/>
</mask>
<g mask="url(#mask42_2059_1084)">
<mask id="mask43_2059_1084" style="mask-type:luminance" maskUnits="userSpaceOnUse" x="74" y="26" width="5" height="11">
<path d="M78.0858 26.5578L78.3844 36.8654L74.7249 36.9714L74.4263 26.6638L78.0858 26.5578Z" fill="white"/>
</mask>
<g mask="url(#mask43_2059_1084)">
<path d="M74.7227 28.31L75.1372 36.8743L78.0888 35.3078L77.6421 26.6552L74.7227 28.31Z" fill="#909090"/>
</g>
</g>
<mask id="mask44_2059_1084" style="mask-type:luminance" maskUnits="userSpaceOnUse" x="48" y="69" width="16" height="7">
<path d="M51.2465 73.2532L48.3032 75.2161L60.2456 71.3744L63.2043 69.4949L51.2465 73.2532Z" fill="white"/>
</mask>
<g mask="url(#mask44_2059_1084)">
<mask id="mask45_2059_1084" style="mask-type:luminance" maskUnits="userSpaceOnUse" x="47" y="68" width="17" height="9">
<path d="M48.3529 76.075L47.9731 69.5137L63.1547 68.635L63.5345 75.1962L48.3529 76.075Z" fill="white"/>
</mask>
<g mask="url(#mask45_2059_1084)">
<path d="M51.2465 73.2532L48.3032 75.2161L60.2456 71.3744L63.2042 69.4949L51.2465 73.2532Z" fill="#909090"/>
</g>
</g>
<mask id="mask46_2059_1084" style="mask-type:luminance" maskUnits="userSpaceOnUse" x="35" y="44" width="17" height="32">
<path d="M35.7402 46.7264L48.303 75.2161L51.2463 73.2532L38.1828 44.1298L35.7402 46.7264Z" fill="white"/>
</mask>
<g mask="url(#mask46_2059_1084)">
<mask id="mask47_2059_1084" style="mask-type:luminance" maskUnits="userSpaceOnUse" x="24" y="38" width="39" height="43">
<path d="M37.8984 80.5833L24.98 48.4566L49.0879 38.7626L62.0063 70.8892L37.8984 80.5833Z" fill="white"/>
</mask>
<g mask="url(#mask47_2059_1084)">
<path d="M35.7402 46.7264L48.303 75.2161L51.2463 73.2532L38.1828 44.1298L35.7402 46.7264Z" fill="#909090"/>
</g>
</g>
<mask id="mask48_2059_1084" style="mask-type:luminance" maskUnits="userSpaceOnUse" x="58" y="50" width="23" height="17">
<path d="M58.7393 53.0271C58.7393 53.0271 59.3821 56.3785 60.2133 58.7266C61.0431 61.0718 63.0193 62.9702 63.0193 62.9702C64.2889 64.1971 65.8344 65.0955 67.576 65.6025C70.9085 66.5682 74.6739 65.9421 77.9056 63.8812C78.7473 63.3469 79.8986 62.4905 80.6052 61.807C77.4266 63.7447 73.3868 64.5556 70.1368 63.6158C67.0521 62.7216 64.5774 60.5823 63.1643 57.5886C62.4465 56.0599 61.7945 52.637 61.7539 50.9445C61.0845 51.7176 59.7203 52.5488 58.7393 53.0271Z" fill="white"/>
</mask>
<g mask="url(#mask48_2059_1084)">
<mask id="mask49_2059_1084" style="mask-type:luminance" maskUnits="userSpaceOnUse" x="53" y="42" width="34" height="33">
<path d="M62.1947 74.5449L53.0391 53.4142L77.1491 42.9676L86.3047 64.0983L62.1947 74.5449Z" fill="white"/>
</mask>
<g mask="url(#mask49_2059_1084)">
<path d="M58.7393 53.0271C58.7393 53.0271 59.3821 56.3785 60.2133 58.7266C61.0432 61.0718 63.0193 62.9702 63.0193 62.9702C64.2889 64.1971 65.8344 65.0955 67.576 65.6025C70.9085 66.5682 74.6739 65.9421 77.9056 63.8812C78.7473 63.3469 79.8986 62.4905 80.6052 61.807C77.4266 63.7447 73.3868 64.5556 70.1368 63.6158C67.0522 62.7216 64.5774 60.5823 63.1643 57.5886C62.4465 56.0599 61.7945 52.637 61.7539 50.9445C61.0845 51.7176 59.7203 52.5488 58.7393 53.0271Z" fill="#909090"/>
</g>
</g>
<mask id="mask50_2059_1084" style="mask-type:luminance" maskUnits="userSpaceOnUse" x="75" y="34" width="6" height="3">
<path d="M78.0888 35.3075L75.1372 36.8748L77.8963 36.1731L80.7989 34.608L78.0888 35.3075Z" fill="white"/>
</mask>
<g mask="url(#mask50_2059_1084)">
<mask id="mask51_2059_1084" style="mask-type:luminance" maskUnits="userSpaceOnUse" x="75" y="34" width="6" height="3">
<path d="M75.1394 36.9856L75.0928 34.6089L80.7965 34.497L80.8432 36.8737L75.1394 36.9856Z" fill="white"/>
</mask>
<g mask="url(#mask51_2059_1084)">
<path d="M78.0888 35.3075L75.1372 36.8748L77.8963 36.1731L80.7989 34.608L78.0888 35.3075Z" fill="#909090"/>
</g>
</g>
<mask id="mask52_2059_1084" style="mask-type:luminance" maskUnits="userSpaceOnUse" x="160" y="58" width="8" height="4">
<path d="M165.52 59.7646C163.775 60.2856 161.956 60.3486 160.267 60.1672L160.435 61.5713C161.461 61.448 162.548 61.3157 163.467 60.9943C164.546 60.6168 166.884 59.5874 167.775 58.8031C167.444 58.9327 165.865 59.6637 165.52 59.7646Z" fill="white"/>
</mask>
<g mask="url(#mask52_2059_1084)">
<mask id="mask53_2059_1084" style="mask-type:luminance" maskUnits="userSpaceOnUse" x="160" y="58" width="8" height="4">
<path d="M160.114 61.5623L160.29 58.3893L167.928 58.8117L167.752 61.9846L160.114 61.5623Z" fill="white"/>
</mask>
<g mask="url(#mask53_2059_1084)">
<path d="M165.52 59.7646C163.775 60.2856 161.956 60.3486 160.267 60.1672L160.435 61.5713C161.461 61.448 162.548 61.3157 163.467 60.9943C164.546 60.6168 166.884 59.5874 167.775 58.8031C167.444 58.9327 165.865 59.6637 165.52 59.7646Z" fill="#909090"/>
</g>
</g>
<mask id="mask54_2059_1084" style="mask-type:luminance" maskUnits="userSpaceOnUse" x="118" y="50" width="11" height="6">
<path d="M127.185 50.9449C125.294 51.9834 120.233 53.5086 118.441 53.5359L118.486 55.1423C120.897 54.7922 122.974 53.8937 125.014 52.6683C126.289 51.9064 127.703 50.7537 128.139 50.4449C127.825 50.6459 127.508 50.7656 127.185 50.9449Z" fill="white"/>
</mask>
<g mask="url(#mask54_2059_1084)">
<mask id="mask55_2059_1084" style="mask-type:luminance" maskUnits="userSpaceOnUse" x="118" y="50" width="11" height="6">
<path d="M118.453 55.519L118.284 50.4507L128.126 50.0673L128.295 55.1357L118.453 55.519Z" fill="white"/>
</mask>
<g mask="url(#mask55_2059_1084)">
<path d="M127.185 50.9452C125.294 51.9837 120.233 53.5088 118.441 53.5362L118.486 55.1426C120.897 54.7924 122.974 53.894 125.014 52.6685C126.289 51.9066 127.703 50.754 128.139 50.4452C127.825 50.6461 127.508 50.7659 127.185 50.9452Z" fill="#909090"/>
</g>
</g>
<mask id="mask56_2059_1084" style="mask-type:luminance" maskUnits="userSpaceOnUse" x="25" y="11" width="175" height="90">
<path d="M25 100.457H200V11H25V100.457Z" fill="white"/>
</mask>
<g mask="url(#mask56_2059_1084)">
<path d="M112.421 44.4197C112.597 44.6004 112.432 44.4659 112.638 44.606L114.059 43.7292C113.853 43.5892 113.594 43.3553 113.406 43.1809C111.435 41.3798 111.946 37.3407 113.233 35.1264C109.861 37.8435 110.038 42.0248 112.421 44.4197Z" fill="#909090"/>
<path d="M128.838 46.2448C126.596 48.1006 124.035 49.3134 120.65 50.1292C119.909 50.305 119.191 50.4262 118.475 50.4941C113.107 51.0193 108.604 48.5473 106.889 44.5495C106.686 44.0747 106.52 43.574 106.398 43.0551C105.604 39.6861 106.277 36.6757 107.943 34.3193C108.105 34.0924 108.277 33.8704 108.459 33.654C108.379 33.7212 108.296 33.7857 108.216 33.8557C107.581 34.4187 107.014 35.0447 106.534 35.7282C104.87 38.0874 104.193 41.0937 104.987 44.4655C105.11 44.9823 105.274 45.4823 105.48 45.957C107.196 49.9584 111.698 52.4289 117.068 51.9051C117.777 51.8351 118.502 51.7167 119.239 51.5382C122.625 50.7245 125.189 49.5102 127.429 47.6538C127.977 47.2021 128.507 46.7105 129.026 46.1762L128.972 46.1237C128.928 46.1643 128.884 46.2091 128.838 46.2448Z" fill="#909090"/>
<path d="M96.9974 27.6409L96.7538 27.4126L90.9653 35.542L90.9968 36.0693L96.9974 27.6409Z" fill="#909090"/>
<path d="M125.054 20.201L121.563 15.4567L120.27 17.0162L123.262 21.0911L125.054 20.201Z" fill="#909090"/>
<path d="M64.5896 34.357C63.6393 32.1687 62.0035 30.4509 59.8571 29.2479C58.3018 28.2108 56.5127 27.7094 54.8327 27.5168C50.0632 26.6793 44.12 27.4685 37.8764 30.1218C35.6523 31.0685 33.5676 32.1498 31.6538 33.3647L31.9031 33.7835C33.3443 32.9649 34.8687 32.2107 36.464 31.5335C42.7104 28.8795 48.6556 28.0896 53.4231 28.9271C55.1051 29.1169 56.8915 29.6183 58.4468 30.6554C60.5945 31.8599 62.2303 33.5762 63.1792 35.7646C64.8697 39.6608 63.3781 44.8239 59.3957 49.1565C64.3914 44.5781 66.4642 38.6861 64.5896 34.357Z" fill="#909090"/>
<path d="M84.886 47.063C84.8432 46.8431 84.7942 46.6295 84.7312 46.4152C84.178 44.4517 83.0099 42.8901 81.4679 41.8446C78.9757 40.1527 75.5058 39.8082 72.0458 41.2704C70.2258 42.0561 68.6383 43.264 67.3862 44.7171C68.3498 43.8915 69.4436 43.1947 70.6369 42.6821C74.0962 41.2136 77.5667 41.5617 80.059 43.2521C81.5989 44.2983 82.769 45.8585 83.3237 47.8242C83.3818 48.0392 83.4329 48.2521 83.4756 48.4705C83.6325 49.2205 83.6941 49.9817 83.6682 50.7443C83.5947 53.0167 82.7585 55.2933 81.3566 57.2351C81.1416 57.5334 80.9063 57.8268 80.6605 58.1069C81.456 57.4256 82.1647 56.6588 82.769 55.8241C84.1682 53.8815 85.0036 51.6077 85.0799 49.3368C85.1044 48.5728 85.0414 47.8123 84.886 47.063Z" fill="#909090"/>
<path d="M75.3386 44.1783C75.3218 44.2 76.7461 42.7644 76.7286 42.7644C74.9534 42.7028 74.2006 44.3764 74.1411 44.5088C74.5011 44.3337 74.9072 44.2154 75.3386 44.1783Z" fill="#909090"/>
<path d="M78.681 46.2247C78.7545 46.4614 78.7986 46.7072 78.7986 46.9649C78.7986 47.3368 78.7118 47.6897 78.5654 48.0139C78.8483 47.876 80.8973 46.8767 80.099 44.7626C80.1494 44.8277 78.6348 46.2233 78.681 46.2247Z" fill="#909090"/>
<path d="M70.6032 47.4004C70.6032 46.5258 72.0857 44.4271 72.5514 43.7191C70.2055 45.2121 69.1929 47.2296 69.1929 48.8094C69.1929 51.5404 71.5794 53.7239 74.44 53.7239C75.7957 53.7239 78.2663 53.0089 79.8825 50.3836C79.0387 50.9417 76.8776 52.2827 75.7509 52.2827C72.8903 52.2827 70.6032 50.1294 70.6032 47.4004Z" fill="#909090"/>
<path d="M90.7456 60.8911L92.1595 60.6964L92.1496 48.4459L90.7085 49.8906L90.7456 60.8911Z" fill="#909090"/>
<path d="M89.612 37.9924L90.9901 36.0562L90.4047 26.0381L80.6772 28.9366L80.7228 29.9134L88.9957 27.4506L89.612 37.9924Z" fill="#909090"/>
<path d="M98.1633 26.0034L96.998 27.6406L103.84 34.0635L105.162 32.6692L98.1633 26.0034Z" fill="#909090"/>
<path d="M109.133 51.4451C107.165 50.2322 105.604 48.5705 104.571 46.6259L95.3944 42.995L94.0674 44.3962L103.164 48.0369C104.196 49.9794 105.753 51.6426 107.726 52.8541C109.632 54.0256 111.807 54.7287 114.115 54.9437V59.4338L115.524 60.1396V53.5333C113.215 53.3162 111.04 52.6167 109.133 51.4451Z" fill="#909090"/>
<path d="M119.185 44.7368C121.427 44.199 122.722 43.0296 123.835 41.7383C122.993 42.4302 121.975 43.0002 120.596 43.3314C119.818 43.5191 118.774 43.6899 118.111 43.5751L116.726 45.0457C117.36 45.0989 118.411 44.9259 119.185 44.7368Z" fill="#909090"/>
<path d="M115.467 29.4777C113.196 30.0232 111.197 31.0505 109.628 32.4454C109.205 32.8208 108.814 33.229 108.459 33.6541C109.99 32.3621 111.904 31.4055 114.056 30.8831C119.177 29.6514 123.68 31.2144 126.469 34.6653L127.845 33.1961C125.094 29.8068 120.59 28.241 115.467 29.4777Z" fill="#909090"/>
<path d="M128.972 46.1243C129.473 45.7048 129.96 45.258 130.436 44.7643L129.252 43.702L125.357 40.1965C124.933 40.6979 124.483 41.1846 123.967 41.6229L127.843 45.111L128.972 46.1243Z" fill="#909090"/>
<path d="M157.188 59.4201C156.898 59.2969 156.618 59.1694 156.34 59.0231C153.617 57.5749 151.712 55.0756 150.975 51.9812C150.018 47.984 151.403 43.6206 154.257 40.3707L152.012 25.8037H146.615L146.364 27.2147H150.603L152.847 41.7789C149.992 45.0296 148.607 49.3937 149.566 53.3915C150.299 56.4825 152.207 58.9838 154.933 60.432C155.206 60.5784 155.489 60.7079 155.777 60.8291L155.812 61.051L157.48 61.3066L157.188 59.4201Z" fill="#909090"/>
<path d="M143.086 39.1663L144.492 37.7405L142.613 27.4473H135.058L134.819 28.8576H141.199L143.086 39.1663Z" fill="#909090"/>
<path d="M143.923 52.7771L144.396 53.7925L147.383 46.0524L145.984 47.4536L143.923 52.7771Z" fill="#909090"/>
<path d="M138.45 45.5242L136.931 55.1277L138.077 55.3293L139.868 44.1047L138.45 45.5242Z" fill="#909090"/>
<path d="M168.543 41.0316C169.371 41.6303 170.081 42.3873 170.629 43.2802C171.043 43.9692 171.369 44.7367 171.569 45.5792C172.267 48.4811 171.429 51.5959 169.601 54.1084C169.413 54.3612 169.215 54.6098 169.007 54.8535C169.761 54.2128 170.434 53.4859 171.006 52.6995C172.84 50.1869 173.672 47.0735 172.974 44.1716C172.775 43.3292 172.457 42.5603 172.036 41.8691C171.491 40.977 170.784 40.2193 169.949 39.6227C167.649 37.9763 164.401 37.5401 161.106 38.7851C159.689 39.3258 158.409 40.1346 157.313 41.1219C156.909 41.4854 156.54 41.8789 156.188 42.2872C157.218 41.4105 158.402 40.6906 159.696 40.1941C162.995 38.9518 166.24 39.3867 168.543 41.0316Z" fill="#909090"/>
<path d="M163.626 41.6588C163.65 41.7204 165.021 40.2414 165.053 40.2379C163.323 40.3079 162.485 41.1434 162.57 41.5376C162.47 41.6791 162.385 41.8296 162.313 41.99C162.687 41.8093 163.371 41.6707 163.626 41.6588Z" fill="#909090"/>
<path d="M166.887 43.8388C166.952 44.079 166.979 44.3269 166.967 44.5839C166.957 44.9116 166.877 45.2253 166.748 45.5117C167.01 45.3843 169.1 44.7407 168.306 42.4312C168.325 42.4929 166.863 43.8486 166.887 43.8388Z" fill="#909090"/>
<path d="M162.279 51.1877C164.241 51.2675 166.412 50.0554 167.963 47.9258C167.065 48.5197 164.861 49.7633 163.654 49.7143C160.796 49.5974 158.601 47.3544 158.708 44.6269C158.742 43.8307 159.778 42.1108 160.197 41.4596C158.693 42.5562 157.362 44.6542 157.3 46.1346C157.191 48.8628 159.418 51.0715 162.279 51.1877Z" fill="#909090"/>
<path d="M188.242 33.2616L187.848 34.896L194.746 36.424L184.154 68.504L185.009 68.7561L196.153 35.0137L188.242 33.2616Z" fill="#909090"/>
<path d="M183.25 49.541L184.663 48.1118L181.159 31.5448L170.76 29.4566L170.67 31.1281L179.757 32.9523L183.25 49.541Z" fill="#909090"/>
<path d="M175.084 62.2624L176.214 62.4431L179.008 46.7207L177.585 48.1177L175.084 62.2624Z" fill="#909090"/>
<path d="M55.4413 52.0436L53.8853 53.134L57.8229 67.8928L59.5574 67.6057L55.4413 52.0436Z" fill="#909090"/>
<path d="M58.588 44.723C57.6069 45.7615 55.4389 47.781 54.1952 48.5828L53.4431 46.1676L51.7968 40.8743L50.7485 37.2889L49.7261 38.6054L50.7716 42.1901L52.4179 47.4813L53.1707 49.8979C54.8625 48.8062 57.3324 46.7558 58.588 44.723Z" fill="#909090"/>
<path d="M118.796 35.1785C117.457 34.6603 115.557 34.8137 114.53 35.9397C114.29 36.2016 113.834 36.8605 113.688 37.1624C114.676 36.3746 116.444 36.2037 117.603 36.6196L118.796 35.1785Z" fill="#909090"/>
<path d="M57.3607 39.9625C57.2101 39.1621 56.4349 38.5396 56.0554 38.3589C55.3719 38.0333 54.201 37.9821 53.3369 38.1411C53.4917 38.6726 53.6723 39.3057 53.7445 39.5563C54.0925 39.604 54.6639 39.7027 54.9643 39.8463C55.3481 40.0304 56.0049 40.4499 56.1548 41.2503C56.3572 42.3168 56.3047 43.3077 55.8663 44.1228C57.0778 42.9253 57.6695 41.6235 57.3607 39.9625Z" fill="#909090"/>
<path d="M184.963 68.6662C184.827 68.6248 179.659 67.0794 179.554 67.0492C179.554 66.94 179.074 46.7071 179.074 46.7071C179.074 46.6665 179.04 46.6385 179.002 46.6336C178.965 46.6308 178.928 46.6595 178.923 46.6952C178.923 46.6952 176.18 62.2132 176.153 62.3567C176.012 62.3371 170.392 61.4415 170.255 61.4198C170.269 61.2853 170.68 56.957 170.68 56.957C173.993 54.1783 175.886 50.1924 175.886 46.2905C175.886 45.378 175.781 44.4726 175.571 43.5874C175.07 41.4978 173.996 39.647 172.458 38.2311C172.46 38.1674 172.959 32.9188 172.959 32.916C172.959 32.8831 172.935 32.8537 172.901 32.8439C172.901 32.8439 170.798 32.283 170.68 32.2501C170.689 32.1359 170.827 29.7039 170.832 29.5477C170.998 29.5793 181.005 31.5904 181.093 31.6093C181.119 31.7046 184.586 48.1455 184.586 48.1455C184.593 48.1812 184.622 48.2043 184.659 48.2043C184.693 48.2064 184.722 48.1826 184.734 48.1483C184.734 48.1483 188.262 33.4938 188.298 33.3523C188.439 33.3824 195.896 35.033 196.058 35.0687C196.005 35.2269 185.009 68.5275 184.963 68.6662ZM168.123 55.4528C167.278 56.0571 166.37 56.541 165.43 56.8995C163.578 57.5991 161.671 57.7847 159.912 57.4388C158.733 57.2077 157.662 56.7476 156.728 56.0739C155.186 54.9654 154.125 53.3527 153.661 51.4101C153.111 49.1042 153.555 46.5482 154.905 44.2051C155.552 43.0839 156.38 42.0623 157.365 41.1806C158.492 40.1617 159.758 39.3802 161.129 38.8564C164.253 37.6779 167.536 37.9902 169.904 39.6855C170.745 40.285 171.438 41.0322 171.972 41.9089C172.397 42.6127 172.71 43.3753 172.908 44.1897C173.07 44.8661 173.152 45.5608 173.152 46.2688C173.152 48.4417 172.388 50.6819 170.949 52.6538C170.155 53.7385 169.204 54.6804 168.123 55.4528ZM149.576 60.0213C149.559 59.9149 147.467 46.0349 147.467 46.0349C147.464 46.0013 147.436 45.9768 147.404 45.9719C147.367 45.9698 147.334 45.9873 147.324 46.0195C147.324 46.0195 144.513 53.2848 144.39 53.6006C144.249 53.2932 139.974 44.0804 139.974 44.0804C139.965 44.0531 139.904 44.037 139.873 44.0391C139.841 44.0461 139.792 44.0713 139.785 44.1021C139.785 44.1021 138.044 55.0929 138.018 55.2392C137.872 55.2154 130.831 53.9906 130.689 53.9654C130.713 53.8219 131.724 47.7869 131.724 47.7813C131.738 47.7904 132.54 47.004 132.54 47.004L134.96 44.5083C134.977 44.4929 134.979 44.4747 134.979 44.4572V44.4551C134.979 44.4334 134.974 44.4124 134.955 44.4011C134.955 44.4011 132.705 42.3697 132.64 42.3164C132.654 42.2359 135.102 27.6465 135.119 27.5219H142.55C142.57 27.6444 144.417 37.7724 144.417 37.7724C144.424 37.8095 144.457 37.8347 144.492 37.8347C144.53 37.8347 144.561 37.8095 144.568 37.7724C144.568 37.7724 146.659 26.0016 146.679 25.879H151.949C151.968 26.0065 154.167 40.2899 154.176 40.3508C151.856 43.009 150.596 46.2366 150.596 49.3787C150.596 50.2638 150.696 51.144 150.898 52.0005C151.643 55.1139 153.561 57.6313 156.304 59.0879C156.304 59.0879 157.015 59.4205 157.12 59.4716C157.132 59.5452 157.363 61.0423 157.39 61.2167C157.19 61.188 149.685 60.0396 149.576 60.0213ZM129.819 39.7745C129.64 39.6113 128 38.1358 127.895 38.0462C127.995 37.9391 130.067 35.7332 130.067 35.7332C130.067 35.7332 130.381 35.4006 130.566 35.2017C130.493 35.6275 129.86 39.5308 129.819 39.7745ZM128.789 46.1882C126.547 48.0446 124.028 49.2386 120.627 50.0558C119.921 50.2281 119.195 50.3506 118.473 50.4193C113.235 50.9305 108.716 48.6147 106.958 44.5188C106.753 44.0412 106.589 43.5461 106.468 43.0363C105.719 39.8459 106.249 36.8459 108.005 34.3635C108.475 33.6954 109.036 33.0708 109.675 32.5029C111.241 31.1086 113.249 30.0905 115.483 29.5477C120.332 28.3797 124.911 29.7431 127.745 33.1968C127.65 33.2942 118.049 43.5237 118.049 43.5237C118.035 43.5377 118.027 43.5566 118.027 43.5748C118.027 43.5818 118.027 43.5888 118.03 43.5986C118.042 43.621 118.063 43.6421 118.09 43.6484C118.877 43.7898 120.116 43.5237 120.61 43.4047C122.805 42.8739 124.105 41.7793 125.36 40.3018C125.469 40.3991 130.084 44.5496 130.325 44.7646C129.829 45.273 129.311 45.7534 128.789 46.1882ZM103.276 43.0671C103.06 42.9831 100.446 41.9719 100.251 41.8949C100.401 41.7485 102.822 39.3991 103.065 39.1659C103.029 39.5441 103.008 39.925 103.008 40.3081C103.008 41.2226 103.102 42.147 103.276 43.0671ZM115.452 60.0192C115.233 59.91 92.1515 48.3647 92.1515 48.3647C92.1291 48.3514 92.0997 48.357 92.0794 48.3689C92.0577 48.3836 92.0423 48.406 92.0423 48.4333C92.0423 48.4333 92.0829 60.5017 92.085 60.6313C91.9582 60.6474 86.3239 61.4177 86.1726 61.4387C86.1621 61.2881 85.7525 56.4556 85.7525 56.4556C87.0816 54.2021 87.7741 51.7014 87.7741 49.2757C87.7741 48.1602 87.6257 47.0573 87.3288 46.0048C86.7966 44.1224 85.7973 42.4243 84.4408 41.0917C84.4408 41.0917 84.443 41.0917 84.443 41.0903C84.443 40.8816 83.5977 30.8257 83.5977 30.8257C83.5949 30.804 83.5809 30.7816 83.5641 30.7697C83.5452 30.7557 83.5235 30.7529 83.5039 30.7578C83.5039 30.7578 81.0361 31.4007 80.8653 31.4469C80.859 31.2767 80.7616 29.0996 80.7546 28.9924C80.8653 28.9567 90.1585 26.1928 90.3364 26.143C90.3476 26.3272 90.9232 36.0743 90.9232 36.0743C90.9246 36.1037 90.9449 36.131 90.9772 36.1415C91.0087 36.1513 91.0402 36.1394 91.0591 36.1135C91.0591 36.1135 98.0758 26.2565 98.1731 26.1157C98.2985 26.2334 104.955 32.5694 105.059 32.673C104.957 32.7788 95.3237 42.9369 95.3237 42.9369C95.309 42.9488 95.3034 42.9684 95.3034 42.9887C95.3034 42.9922 95.3034 43.0006 95.3048 43.0041C95.309 43.0307 95.3272 43.0482 95.3496 43.058L104.544 46.6952C105.548 48.6266 107.134 50.3016 109.099 51.511C110.985 52.6706 113.12 53.3688 115.452 53.5985V60.0192ZM82.7063 55.7791C81.3247 57.6965 79.4738 59.1901 77.3583 60.0949C74.5082 61.3021 71.5944 61.3203 69.1547 60.1509C67.0007 59.1166 65.4482 57.2301 64.7759 54.8352C63.3417 49.7421 66.6148 43.6883 72.0755 41.3403C75.3591 39.9488 78.8555 40.1617 81.4269 41.9068C83.0095 42.9803 84.1264 44.5461 84.6593 46.4354L84.8113 47.0755C84.9647 47.8087 85.0291 48.5698 85.0025 49.3345C84.9303 51.5383 84.1152 53.8275 82.7063 55.7791ZM55.3839 51.99C55.3615 52.0033 55.3496 52.0257 55.3496 52.0544C55.3496 52.0579 55.3517 52.0649 55.3517 52.0719C55.3517 52.0719 59.2781 67.1564 59.3138 67.2929C59.1829 67.3343 53.122 69.2719 52.9988 69.3111C52.9428 69.1879 39.7861 39.8137 39.7861 39.8137C39.777 39.7955 39.7623 39.7815 39.7427 39.7745C39.7231 39.7661 39.7007 39.7696 39.6818 39.7801L37.5782 40.8235C37.5782 40.8235 36.5887 41.3081 36.4745 41.3613C36.4066 41.2464 31.8353 33.5197 31.7582 33.3915C33.6244 32.213 35.6881 31.1332 37.9045 30.1913C43.882 27.6493 49.8896 26.7271 54.8188 27.5912C56.7571 27.8132 58.4357 28.3916 59.8138 29.3097C62.0126 30.5442 63.596 32.2522 64.5217 34.3873C64.9741 35.4335 65.1905 36.5609 65.1905 37.7325C65.1905 42.598 61.4601 48.2386 55.3839 51.99ZM121.557 15.5781C121.669 15.723 124.838 20.0353 124.94 20.1732C124.782 20.2517 115.212 24.9953 115.094 25.052C115.031 24.9596 114.523 24.1886 114.47 24.1116C114.541 24.0261 121.438 15.723 121.557 15.5781ZM199.99 33.103C199.98 33.0876 199.963 33.0729 199.942 33.0694L186.375 29.7767C186.35 29.7697 186.334 29.7767 186.314 29.7837C186.297 29.7935 186.283 29.811 186.28 29.83C186.28 29.83 185.212 34.2353 185.074 34.8138C184.951 34.222 183.948 29.2564 183.948 29.2564C183.943 29.2263 183.919 29.2032 183.892 29.1983L167.949 25.69C167.93 25.6865 167.903 25.69 167.881 25.7068C167.865 25.7208 167.854 25.739 167.854 25.7649L167.972 34.6296C167.977 34.6625 168 34.6926 168.033 34.7003C168.033 34.7003 170.241 35.1926 170.367 35.2199C170.358 35.3327 170.23 36.465 170.206 36.6464C167.22 35.0715 163.515 34.9202 160.031 36.2318C158.931 36.6548 157.872 37.2248 156.882 37.9209C156.849 37.7017 154.503 22.8532 154.503 22.8532C154.497 22.8154 154.468 22.7881 154.432 22.7881H143.829C143.794 22.7881 143.759 22.8154 143.754 22.8532C143.754 22.8532 143.488 24.4141 143.466 24.531H132.373C132.336 24.531 132.304 24.5555 132.297 24.5926C132.297 24.5926 131.104 31.9231 131.051 32.2403C130.885 32.0351 130.225 31.2284 130.225 31.2284C127.596 27.9826 123.777 26.1283 119.468 25.9694C119.902 25.7341 128.712 21.0017 128.712 21.0017C128.733 20.9919 128.748 20.9751 128.752 20.9547V20.9358C128.752 20.9232 128.748 20.9085 128.741 20.8945L122.134 11.0319C122.121 11.0144 122.1 11.0011 122.078 11.0004C122.051 11.0004 122.03 11.006 122.017 11.0263L110.076 24.7789C110.064 24.7922 110.055 24.8111 110.055 24.8265C110.055 24.8468 110.064 24.8622 110.074 24.8762C110.074 24.8762 111.963 27.1773 112.078 27.3202C110.282 28.0646 108.693 29.0737 107.352 30.3292C107.256 30.2438 97.1682 21.2916 97.1682 21.2916C97.1493 21.2769 97.1283 21.2713 97.1052 21.2748C97.0807 21.2769 97.0625 21.2916 97.052 21.3126C97.052 21.3126 93.8889 27.3678 93.6144 27.8902C93.6263 27.3104 93.746 21.6193 93.746 21.6193C93.746 21.5955 93.7355 21.5703 93.7152 21.5612C93.6984 21.5444 93.6697 21.5409 93.6487 21.5493L77.6426 26.6556C77.6111 26.6654 77.5866 26.6977 77.5901 26.7299L77.9977 35.3327C77.9984 35.3565 78.0117 35.3782 78.0285 35.3922C78.046 35.4048 78.0712 35.4076 78.0915 35.4041C78.0915 35.4041 80.5691 34.7577 80.7294 34.7164C80.7455 34.8789 81.0943 38.6449 81.1174 38.8704C78.0117 37.5147 74.2814 37.5637 70.857 39.0126C69.9026 39.4236 68.9831 39.9502 68.1176 40.563C68.3298 39.5721 68.4439 38.5938 68.4439 37.6422C68.4439 36.0231 68.1379 34.4818 67.5308 33.0827C66.3459 30.3482 64.2507 28.0366 61.6275 26.5737C59.8376 25.3811 57.6752 24.6136 55.3825 24.3574C49.8385 23.3854 43.174 24.3847 36.6202 27.1717C34.2113 28.1969 31.9627 29.3678 29.9347 30.6584L27.3759 32.2844C27.3402 32.3082 27.3283 32.3523 27.3507 32.3866L33.6854 43.0923C35.1923 45.6378 35.1923 45.6378 35.2589 45.607C35.2624 45.607 38.0613 44.2408 38.1517 44.1974C38.2147 44.336 51.1718 73.2718 51.1718 73.2718C51.1893 73.3061 51.2271 73.323 51.2656 73.3131L63.2038 69.4939C63.2353 69.4848 63.2591 69.4526 63.2591 69.4232C63.2591 69.4155 63.2591 69.4085 63.2549 69.4042C63.2549 69.4042 59.1198 53.5222 59.096 53.4311C60.0064 52.7561 60.8684 52.0257 61.6786 51.2617C61.631 51.7169 61.596 52.1692 61.596 52.6146C61.596 53.7098 61.7416 54.777 62.028 55.7959C62.9307 59.0025 65.035 61.5388 67.9474 62.9429C71.0944 64.4526 74.9347 64.4547 78.4823 62.9513C80.1706 62.2321 81.7119 61.1978 83.0697 59.8862C83.097 60.1677 83.5431 64.968 83.5431 64.968C83.5452 64.9884 83.5557 65.0101 83.5725 65.0192C83.5865 65.0325 83.6096 65.0374 83.6285 65.0325L94.9127 63.3763C94.9519 63.3693 94.9792 63.3392 94.9792 63.3035C94.9792 63.3035 94.9645 53.5341 94.9645 53.2967C95.1802 53.4038 118.446 64.9078 118.446 64.9078C118.466 64.9218 118.494 64.9197 118.515 64.905C118.538 64.891 118.552 64.8658 118.552 64.842V53.6125C119.51 53.5285 120.459 53.38 121.384 53.1601C123.947 52.5411 126.131 51.6867 128.056 50.5537C128.009 50.8401 127.09 56.4626 127.09 56.4626V56.471C127.09 56.4899 127.093 56.5032 127.105 56.5172C127.114 56.534 127.132 56.5445 127.158 56.5466L139.868 58.5522C139.887 58.5571 139.909 58.5494 139.926 58.5389C139.94 58.5298 139.951 58.5102 139.955 58.4906C139.955 58.4906 140.564 54.5298 140.627 54.1307C140.824 54.499 143.843 60.0753 143.843 60.0753C143.852 60.0977 143.88 60.1117 143.907 60.1117C143.935 60.1117 143.96 60.0949 143.974 60.0704C143.974 60.0704 145.683 56.7679 145.885 56.3736C145.934 56.8309 146.596 62.5528 146.596 62.5528C146.601 62.5878 146.625 62.6151 146.659 62.6172L161.081 65.1627C161.107 65.1655 161.129 65.1627 161.148 65.1438C161.163 65.127 161.172 65.1095 161.172 65.0885C161.172 65.0857 161.172 65.0808 161.17 65.0787C161.17 65.0787 160.447 60.4947 160.418 60.3183C162.39 60.5227 164.464 60.2482 166.418 59.513C166.418 59.513 167.366 59.0879 167.706 58.9394C167.678 59.1866 167.137 63.9821 167.137 63.987C167.137 64.0234 167.165 64.0556 167.2 64.0584C167.2 64.0584 176.611 65.3777 176.738 65.3945C176.738 65.5185 176.813 69.2649 176.813 69.2649C176.813 69.2971 176.835 69.3258 176.866 69.3349L186.866 72.4805C186.906 72.4924 186.949 72.4714 186.961 72.4322L199.993 33.1646C200 33.1471 199.998 33.1233 199.99 33.103Z" fill="#909090"/>
<path d="M55.9288 39.0963C56.2866 39.2665 56.9015 39.658 57.0422 40.3974C57.0976 40.7049 57.1284 40.9997 57.1284 41.2819C57.1284 42.4513 56.5857 43.4429 55.5199 44.4576C55.3798 44.0087 54.1753 40.1348 54.1753 40.1348C54.1739 40.132 53.8665 39.0739 53.8021 38.8526C54.5962 38.735 55.3315 38.8113 55.9288 39.0963ZM50.6803 37.1692C50.6222 37.2007 50.5935 37.2679 50.6131 37.3345L51.6593 40.9149C51.6607 40.9163 54.0591 48.6249 54.0591 48.6249C54.0724 48.669 54.1053 48.7005 54.1466 48.7159C54.1886 48.732 54.2349 48.7257 54.2713 48.7019C57.4351 46.6662 60.4539 44.3077 59.629 39.9121C59.3699 38.5347 58.4344 37.3702 57.0597 36.7154C55.2026 35.8352 52.8203 36.0039 50.6803 37.1692Z" fill="#909090"/>
<path d="M113.71 39.074C113.71 38.2309 114.019 37.394 114.616 36.7421C115.527 35.7421 116.907 35.4116 118.188 35.8142C117.898 36.1448 114.386 40.1524 114.076 40.5053C113.863 40.0446 113.71 39.5635 113.71 39.074ZM116.907 33.3682C115.382 33.4361 113.978 34.0944 112.949 35.219C111.979 36.2813 111.453 37.6391 111.453 39.0684C111.453 39.1559 111.455 39.2428 111.457 39.3282C111.525 40.8548 112.184 42.2602 113.31 43.2875L113.917 43.7637C113.978 43.8106 114.055 43.7973 114.104 43.7413L121.42 35.4578C121.468 35.4011 121.471 35.3191 121.417 35.2666L121.016 34.8605C119.889 33.8304 118.43 33.3003 116.907 33.3682Z" fill="#909090"/>
<path d="M160.093 41.4072C159.158 42.2699 158.616 43.4114 158.566 44.6221C158.455 47.4351 160.69 49.7348 163.65 49.8573C166.641 49.9785 169.073 47.8686 169.185 45.0528C169.224 44.1088 168.954 43.174 168.411 42.3526C168.377 42.2979 168.309 42.2853 168.246 42.3091C168.184 42.3287 168.148 42.403 168.155 42.4681L168.239 43.1705C168.177 44.6326 166.78 45.7685 165.13 45.7019C164.27 45.6669 163.464 45.307 162.917 44.7153C162.45 44.2083 162.209 43.5731 162.235 42.9233C162.291 41.5521 163.499 40.4653 165.042 40.3939C165.117 40.3925 165.181 40.333 165.185 40.2595C165.188 40.1845 165.139 40.1222 165.068 40.1138L164.093 39.9842C162.599 39.9226 161.142 40.4415 160.093 41.4072Z" fill="#909090"/>
<path d="M70.4604 47.4004C70.4604 50.2197 72.7839 52.4263 75.7503 52.4263C78.7425 52.4263 81.0856 50.2197 81.0856 47.4004C81.0856 46.4572 80.7824 45.5328 80.2089 44.731C80.1704 44.6778 80.1032 44.6673 80.0401 44.6918C79.9806 44.717 79.9449 44.7905 79.9554 44.8557L80.0625 45.5531C80.0625 47.023 78.7145 48.2156 77.0598 48.2156C75.4022 48.2156 74.0549 47.023 74.0549 45.5531C74.0549 44.1834 75.2181 43.0455 76.7587 42.9103C76.8315 42.9054 76.8945 42.8438 76.8931 42.7696C76.8931 42.696 76.8434 42.6344 76.7699 42.6288L75.7958 42.5427C72.854 42.5427 70.4604 44.7219 70.4604 47.4004Z" fill="#909090"/>
</g>
<mask id="mask57_2059_1084" style="mask-type:luminance" maskUnits="userSpaceOnUse" x="27" y="11" width="173" height="63">
<path d="M110.232 24.8309C110.309 24.9255 112.255 27.298 112.255 27.298C112.267 27.312 112.271 27.3288 112.271 27.3477C112.271 27.3533 112.271 27.3582 112.27 27.3652C112.267 27.389 112.244 27.4072 112.225 27.4164C110.386 28.1663 108.764 29.1985 107.405 30.4814C107.376 30.5095 107.331 30.5094 107.304 30.4842C107.304 30.4842 97.2824 21.5971 97.1409 21.4697C97.0527 21.6335 93.5961 28.2462 93.5961 28.2462C93.5821 28.2728 93.545 28.2903 93.5128 28.2826C93.4785 28.2728 93.4561 28.2462 93.4561 28.2077C93.4561 28.2077 93.5919 21.9269 93.5933 21.7232C93.3959 21.7869 77.8513 26.749 77.7427 26.7826C77.7484 26.8953 78.1335 35.0563 78.144 35.2334C78.3107 35.1928 80.7784 34.5465 80.7784 34.5465C80.8008 34.5423 80.8211 34.5437 80.8414 34.5584C80.8575 34.5731 80.8681 34.5906 80.8737 34.6109L81.277 38.9764C81.2812 38.9988 81.2665 39.0261 81.2455 39.0429C81.2252 39.0555 81.1965 39.0618 81.1713 39.0513C78.0824 37.6634 74.3444 37.7005 70.9165 39.1535C69.9201 39.5807 68.9572 40.1283 68.0594 40.7782C68.0328 40.7978 67.9985 40.7999 67.9726 40.781C67.9474 40.7635 67.932 40.7334 67.9418 40.6997C68.5559 37.9974 68.3655 35.3826 67.3928 33.1439C66.2212 30.4373 64.1491 28.1516 61.549 26.6993C59.7738 25.5207 57.6352 24.7623 55.3587 24.5074C49.8405 23.5404 43.2076 24.5354 36.6783 27.3092C34.2778 28.3288 32.0362 29.4976 30.0138 30.7861C30.0138 30.7861 27.635 32.3 27.5181 32.3743C27.7036 32.6887 33.8142 43.0162 33.8142 43.0162C33.8142 43.0162 35.1958 45.3411 35.2588 45.4399C35.5691 45.2886 38.1573 44.0253 38.1573 44.0253C38.1748 44.0176 38.1951 44.0176 38.2147 44.0253C38.2315 44.0309 38.249 44.0463 38.256 44.0645C38.256 44.0645 51.2306 73.0312 51.2817 73.146C51.6052 73.0445 62.9629 69.4157 63.0882 69.375C63.0567 69.2413 58.9405 53.4215 58.9405 53.4215C58.937 53.4145 58.9356 53.411 58.9356 53.404C58.9356 53.3802 58.9468 53.3571 58.9678 53.3431C59.9363 52.6309 60.8572 51.8536 61.7108 51.0371C61.7353 51.0161 61.7661 51.0112 61.7969 51.0231C61.8249 51.0371 61.841 51.0707 61.8375 51.1001C61.6443 52.7178 61.7591 54.2857 62.1744 55.7548C63.0637 58.9208 65.1358 61.42 68.0139 62.8051C71.1203 64.2981 74.9144 64.3023 78.4248 62.8121C80.1419 62.0817 81.7084 61.0278 83.0795 59.6784C83.1005 59.6574 83.1306 59.6504 83.1593 59.6581C83.1838 59.6707 83.2055 59.6945 83.2076 59.7225C83.2076 59.7225 83.6712 64.7253 83.6852 64.8737C83.8407 64.852 94.7033 63.2554 94.8293 63.2379C94.8293 63.1098 94.8146 53.1729 94.8146 53.1729C94.8146 53.1498 94.8293 53.126 94.851 53.1113C94.8713 53.0973 94.8979 53.0973 94.9231 53.1085C94.9231 53.1085 118.187 64.6118 118.404 64.719V53.5476C118.404 53.5084 118.431 53.4754 118.473 53.4726C119.441 53.3935 120.41 53.2416 121.348 53.0133C123.954 52.3872 126.172 51.5126 128.114 50.3494C128.142 50.334 128.171 50.339 128.197 50.3537C128.213 50.3677 128.231 50.3887 128.231 50.4153C128.231 50.4174 128.231 50.4223 128.227 50.4265C128.227 50.4265 127.278 56.2674 127.25 56.4124C127.399 56.4341 139.67 58.3696 139.817 58.3921C139.843 58.2506 140.51 53.8858 140.51 53.8858C140.513 53.8529 140.538 53.8284 140.573 53.8214C140.605 53.8158 140.634 53.8326 140.649 53.8613C140.649 53.8613 143.775 59.6371 143.905 59.8745C144.025 59.6385 145.865 56.0875 145.865 56.0875C145.88 56.058 145.915 56.0447 145.947 56.0517C145.978 56.0538 146.002 56.0804 146.004 56.1134C146.004 56.1134 146.728 62.3717 146.742 62.4788C146.847 62.4991 160.8 64.9627 161.005 64.9956C160.969 64.796 160.253 60.2477 160.253 60.2477V60.2344C160.253 60.2155 160.26 60.2001 160.272 60.1819C160.293 60.1672 160.314 60.1588 160.337 60.1595C162.317 60.3829 164.4 60.1112 166.367 59.371L167.757 58.752C167.782 58.7401 167.816 58.7401 167.837 58.759C167.854 58.7723 167.867 58.794 167.867 58.8164C167.867 58.822 167.311 63.7799 167.297 63.9193C167.436 63.9396 176.823 65.2561 176.823 65.2561C176.861 65.2596 176.888 65.2876 176.888 65.3296C176.888 65.3296 176.959 69.1027 176.963 69.2098C177.065 69.2413 186.702 72.2721 186.843 72.3169C186.884 72.1783 199.778 33.349 199.826 33.1943C199.671 33.1564 186.553 29.973 186.408 29.9387C186.375 30.0823 185.14 35.1788 185.14 35.1788C185.13 35.2096 185.098 35.2334 185.066 35.2334C185.028 35.2334 184.999 35.2096 184.992 35.1732C184.992 35.1732 183.831 29.4275 183.81 29.3323C183.717 29.3162 168.19 25.8996 168.006 25.8575C168.012 26.0431 168.123 34.4491 168.123 34.5654C168.234 34.5906 170.464 35.0871 170.464 35.0871C170.501 35.0941 170.527 35.1235 170.527 35.162C170.527 35.1641 170.344 36.7719 170.344 36.7719C170.338 36.7978 170.324 36.8217 170.304 36.8322C170.283 36.842 170.255 36.8419 170.232 36.8307C170.232 36.8307 170.206 36.8132 170.165 36.7908C167.213 35.2236 163.541 35.071 160.082 36.3707C158.958 36.8027 157.879 37.3847 156.87 38.1031C156.849 38.1228 156.821 38.1227 156.798 38.1143C156.774 38.1031 156.755 38.0821 156.752 38.0555C156.752 38.0555 154.386 23.0663 154.364 22.9381H143.894C143.867 23.0572 143.606 24.6188 143.606 24.6188C143.602 24.6545 143.565 24.6818 143.532 24.6818H132.436C132.42 24.8043 131.169 32.4282 131.169 32.4282C131.167 32.4569 131.143 32.48 131.117 32.4912C131.085 32.4961 131.058 32.487 131.036 32.4625L130.112 31.3217C127.453 28.0473 123.575 26.193 119.205 26.1005C119.171 26.0977 119.142 26.0753 119.135 26.0431C119.129 26.0361 119.129 26.0312 119.129 26.0242C119.129 25.9969 119.143 25.971 119.171 25.9598C119.171 25.9598 128.425 20.9865 128.571 20.9095C128.48 20.7764 122.171 11.3578 122.064 11.1981C121.934 11.3445 110.314 24.7378 110.232 24.8309ZM115.007 25.1916L114.314 24.1447C114.297 24.1181 114.297 24.0831 114.322 24.0558L121.506 15.4067C121.519 15.3899 121.538 15.3815 121.566 15.3815C121.587 15.3815 121.608 15.3934 121.622 15.4102L125.113 20.1573C125.128 20.1735 125.135 20.1987 125.128 20.2197C125.121 20.24 125.108 20.2617 125.089 20.2687L115.101 25.2175C115.09 25.2224 115.08 25.2245 115.068 25.2245C115.045 25.2245 115.02 25.2147 115.007 25.1916ZM146.54 25.7903C146.547 25.756 146.579 25.7301 146.615 25.7301H152.01C152.051 25.7301 152.082 25.756 152.088 25.7917L154.328 40.3566C154.335 40.3804 154.328 40.4007 154.313 40.4196C151.347 43.7942 150.125 48.1121 151.045 51.9643C151.779 55.035 153.667 57.5202 156.375 58.9564L157.217 59.3535C157.239 59.3647 157.258 59.385 157.265 59.4088L157.552 61.294C157.557 61.3206 157.545 61.3444 157.531 61.3584C157.516 61.3766 157.489 61.3857 157.469 61.3836L149.498 60.1644C149.468 60.1588 149.441 60.1322 149.436 60.0972C149.436 60.0972 147.443 46.8754 147.362 46.3383C147.172 46.8334 144.466 53.8214 144.466 53.8214C144.457 53.8522 144.428 53.8669 144.401 53.8669C144.369 53.8732 144.341 53.8529 144.332 53.8256C144.332 53.8256 140.042 44.5743 139.909 44.2921C139.856 44.6143 138.155 55.341 138.155 55.341C138.151 55.3613 138.142 55.3781 138.123 55.3907C138.109 55.4033 138.088 55.4054 138.067 55.4033L130.592 54.1015C130.551 54.098 130.529 54.063 130.529 54.028V54.0133C130.529 54.0133 131.578 47.7592 131.601 47.7136L132.436 46.9013C132.436 46.9013 134.691 44.568 134.8 44.4588C134.688 44.3614 132.507 42.4014 132.507 42.4014C132.494 42.3881 132.486 42.3692 132.486 42.3454V42.3349L134.984 27.4332C134.988 27.3953 135.018 27.3722 135.058 27.3722H142.612C142.647 27.3722 142.679 27.3953 142.687 27.4332C142.687 27.4332 144.354 36.5773 144.492 37.335C144.627 36.5668 146.54 25.7903 146.54 25.7903ZM98.101 25.9598C98.1136 25.9409 98.1339 25.9276 98.1563 25.9269C98.1766 25.9269 98.1983 25.9339 98.2151 25.9465L105.216 32.6173C105.233 32.6306 105.24 32.6523 105.24 32.6698C105.24 32.6887 105.233 32.7069 105.218 32.7209C105.218 32.7209 95.6598 42.7992 95.5086 42.9609C96.5198 43.3587 104.602 46.5561 104.638 46.5925C105.667 48.5308 107.237 50.187 109.176 51.3809C111.059 52.5406 113.199 53.2415 115.531 53.4586C115.571 53.4607 115.6 53.4944 115.6 53.5329V60.1392C115.6 60.1672 115.586 60.1882 115.566 60.2065C115.543 60.2156 115.515 60.2205 115.489 60.2065C115.489 60.2065 92.4092 48.6625 92.1942 48.5532C92.1942 48.7934 92.2348 60.6952 92.2348 60.6952C92.2348 60.7359 92.2075 60.7659 92.169 60.7729L86.1131 61.6021C86.0942 61.6021 86.0732 61.5986 86.0549 61.5839C86.0416 61.5713 86.0311 61.5516 86.0311 61.5313C86.0311 61.5313 85.6145 56.5825 85.6145 56.4271V56.4215C86.9387 54.1638 87.6221 51.6765 87.6221 49.2759C87.6221 48.1688 87.4772 47.0841 87.1838 46.047C86.6593 44.1892 85.6754 42.5155 84.3141 41.1528C84.3141 41.1528 83.4681 31.0991 83.452 30.9247C83.291 30.966 80.8155 31.6145 80.8155 31.6145C80.7938 31.618 80.7686 31.6144 80.7539 31.6004C80.7336 31.5885 80.7231 31.5676 80.7203 31.5445L80.6034 28.9387C80.6013 28.9037 80.6251 28.8743 80.6573 28.8645L90.3833 25.9696C90.405 25.9612 90.4302 25.964 90.4491 25.978C90.4666 25.9906 90.4785 26.0158 90.4785 26.0361C90.4785 26.0361 91.036 35.4442 91.0584 35.8539C91.2986 35.5171 98.101 25.9598 98.101 25.9598ZM36.38 41.4988L31.5901 33.4022C31.5691 33.3679 31.5796 33.3217 31.6139 33.3014C33.5005 32.1018 35.5999 31.0073 37.8463 30.0542C43.8497 27.4997 49.8861 26.5718 54.8405 27.4429C56.7998 27.667 58.4973 28.2518 59.8908 29.1803C62.117 30.4275 63.7192 32.16 64.6575 34.3301C65.119 35.391 65.341 36.5352 65.341 37.7292C65.341 42.6346 61.6009 48.3075 55.5071 52.084C55.5358 52.1849 59.4783 67.3226 59.4783 67.3226V67.3415C59.4783 67.3723 59.4594 67.4031 59.4272 67.4136L52.9784 69.4731C52.942 69.485 52.9035 69.4661 52.8867 69.4367C52.8867 69.4367 39.7441 40.0891 39.6796 39.9455C39.5459 40.0135 37.6433 40.9582 37.6433 40.9582L36.478 41.5282C36.4675 41.5338 36.4549 41.538 36.4444 41.538C36.4192 41.538 36.3947 41.5233 36.38 41.4988ZM106.821 44.58C106.611 44.094 106.446 43.5876 106.324 43.075C105.562 39.837 106.099 36.795 107.88 34.2762C108.356 33.6011 108.926 32.9646 109.579 32.389C111.158 30.9807 113.19 29.9478 115.447 29.403C120.381 28.2153 125.036 29.6166 127.905 33.1487C127.914 33.1627 127.921 33.181 127.921 33.1971C127.921 33.216 127.914 33.2321 127.905 33.2454C127.905 33.2454 118.473 43.2886 118.269 43.512C119.025 43.5947 120.118 43.3692 120.575 43.2599C122.761 42.734 124.047 41.6332 125.299 40.1472C125.312 40.1325 125.332 40.1227 125.353 40.1199C125.371 40.1199 125.391 40.1269 125.406 40.1381L130.487 44.7095C130.5 44.7221 130.508 44.7424 130.508 44.7627C130.508 44.7844 130.505 44.8026 130.491 44.8187C129.972 45.3531 129.432 45.8509 128.886 46.3033C126.618 48.1758 124.089 49.3782 120.666 50.201C119.944 50.3754 119.213 50.4986 118.482 50.5707C117.999 50.6184 117.52 50.6408 117.05 50.6408C117.049 50.6408 117.047 50.6408 117.046 50.6408C112.365 50.6408 108.439 48.3516 106.821 44.58ZM176.199 62.518L170.162 61.5566C170.123 61.5517 170.099 61.5223 170.099 61.483V61.476C170.099 61.476 170.532 56.9411 170.554 56.8893C173.858 54.1015 175.735 50.1513 175.735 46.2907C175.735 45.3895 175.637 44.4931 175.423 43.6213C174.928 41.5471 173.858 39.7131 172.327 38.316C172.313 38.3013 172.299 38.2782 172.299 38.2593C172.299 38.2579 172.796 33.0976 172.803 32.973C172.687 32.9443 170.588 32.3799 170.588 32.3799C170.554 32.3701 170.532 32.342 170.532 32.3084C170.532 32.3056 170.689 29.4492 170.689 29.4492C170.689 29.4275 170.698 29.4072 170.717 29.3932C170.733 29.3806 170.754 29.3778 170.774 29.3806L181.175 31.4695C181.207 31.4772 181.228 31.4996 181.233 31.5304C181.233 31.5304 184.532 47.1625 184.663 47.7886C184.812 47.1695 188.167 33.244 188.167 33.244C188.177 33.204 188.213 33.181 188.255 33.188L196.172 34.9386C196.193 34.9435 196.207 34.961 196.218 34.9757C196.232 34.9968 196.232 35.0171 196.226 35.0388L185.084 68.7819C185.07 68.8197 185.028 68.8449 184.991 68.8316L179.459 67.1762C179.421 67.1699 179.404 67.1398 179.404 67.1069C179.404 67.1069 178.974 48.86 178.941 47.4665C178.704 48.8089 176.29 62.4571 176.29 62.4571C176.281 62.4928 176.247 62.5194 176.211 62.5194C176.206 62.5194 176.203 62.5194 176.199 62.518ZM129.819 39.9778L127.743 38.1052C127.723 38.0947 127.717 38.073 127.713 38.0534C127.713 38.0324 127.719 38.0128 127.732 37.9974L130.625 34.9197C130.647 34.8966 130.684 34.8896 130.712 34.9043C130.74 34.9183 130.758 34.9491 130.754 34.9828L129.944 39.9337C129.94 39.9624 129.92 39.9848 129.894 39.9939C129.885 39.9967 129.878 39.9981 129.869 39.9981C129.852 39.9981 129.833 39.9911 129.819 39.9778ZM159.884 57.5846C158.684 57.3493 157.592 56.8823 156.638 56.1918C155.065 55.0644 153.987 53.4215 153.515 51.4454C152.959 49.1051 153.404 46.505 154.775 44.1318C155.43 42.9952 156.27 41.9616 157.265 41.066C158.405 40.0359 159.688 39.2474 161.078 38.7131C164.246 37.5184 167.582 37.837 169.991 39.5604C170.847 40.1766 171.559 40.9379 172.098 41.83C172.531 42.5422 172.852 43.3278 173.053 44.1528C173.722 46.9629 173.003 50.0918 171.072 52.7409C170.269 53.8403 169.307 54.7933 168.207 55.5776C167.352 56.1855 166.435 56.6778 165.481 57.0391C164.218 57.5146 162.925 57.7562 161.673 57.7562C161.066 57.7562 160.467 57.6995 159.884 57.5846ZM103.341 43.2543L100.088 41.9925C100.064 41.9854 100.048 41.9616 100.039 41.9364C100.036 41.9105 100.046 41.8867 100.064 41.8664L103.092 38.9253C103.116 38.9029 103.149 38.8972 103.177 38.9098C103.205 38.9252 103.223 38.9561 103.221 38.9848C103.088 40.3566 103.163 41.7656 103.444 43.1689C103.448 43.1969 103.438 43.2256 103.416 43.2466C103.403 43.255 103.387 43.2613 103.37 43.2613C103.361 43.2613 103.35 43.2585 103.341 43.2543ZM69.0881 60.2827C66.8984 59.2344 65.313 57.3108 64.6295 54.8767C63.1744 49.7143 66.4887 43.5799 72.016 41.2039C75.3464 39.7901 78.8954 40.0072 81.5088 41.7837C83.1243 42.8727 84.2588 44.4707 84.8043 46.3936L84.9597 47.0463C85.1145 47.7907 85.1782 48.5631 85.1544 49.3389C85.0795 51.5728 84.2552 53.8886 82.8288 55.864C81.4304 57.8073 79.5571 59.3171 77.4199 60.2303C75.9515 60.8521 74.4669 61.1637 73.0348 61.1637C71.6469 61.1637 70.3108 60.8703 69.0881 60.2827Z" fill="white"/>
</mask>
<g mask="url(#mask57_2059_1084)">
<mask id="mask58_2059_1084" style="mask-type:luminance" maskUnits="userSpaceOnUse" x="26" y="9" width="175" height="66">
<path d="M27.538 74.9622L26.8657 11.2038L199.808 9.38038L200.48 73.1387L27.538 74.9622Z" fill="white"/>
</mask>
<g mask="url(#mask58_2059_1084)">
<path d="M110.232 24.8309C110.309 24.9255 112.255 27.298 112.255 27.298C112.267 27.312 112.271 27.3288 112.271 27.3477C112.271 27.3533 112.271 27.3582 112.27 27.3652C112.267 27.389 112.244 27.4072 112.225 27.4164C110.386 28.1663 108.764 29.1985 107.405 30.4814C107.376 30.5095 107.331 30.5094 107.304 30.4842C107.304 30.4842 97.2824 21.5971 97.1409 21.4697C97.0527 21.6335 93.5961 28.2462 93.5961 28.2462C93.5821 28.2728 93.545 28.2903 93.5128 28.2826C93.4785 28.2728 93.4561 28.2462 93.4561 28.2077C93.4561 28.2077 93.5919 21.9269 93.5933 21.7232C93.3959 21.7869 77.8513 26.749 77.7428 26.7826C77.7484 26.8953 78.1335 35.0563 78.144 35.2334C78.3107 35.1928 80.7784 34.5465 80.7784 34.5465C80.8008 34.5423 80.8211 34.5437 80.8414 34.5584C80.8575 34.5731 80.8681 34.5906 80.8737 34.6109L81.277 38.9764C81.2812 38.9988 81.2665 39.0261 81.2455 39.0429C81.2252 39.0555 81.1965 39.0618 81.1713 39.0513C78.0824 37.6634 74.3444 37.7005 70.9165 39.1536C69.9201 39.5807 68.9572 40.1283 68.0594 40.7782C68.0328 40.7978 67.9985 40.7999 67.9726 40.781C67.9474 40.7635 67.932 40.7334 67.9418 40.6997C68.5559 37.9974 68.3655 35.3826 67.3928 33.1439C66.2212 30.4373 64.1491 28.1516 61.549 26.6993C59.7739 25.5207 57.6352 24.7623 55.3587 24.5074C49.8405 23.5404 43.2076 24.5354 36.6783 27.3092C34.2778 28.3288 32.0362 29.4976 30.0138 30.7861C30.0138 30.7861 27.635 32.3 27.5181 32.3743C27.7036 32.6887 33.8142 43.0162 33.8142 43.0162C33.8142 43.0162 35.1958 45.3411 35.2588 45.4399C35.5691 45.2886 38.1573 44.0253 38.1573 44.0253C38.1748 44.0176 38.1951 44.0176 38.2147 44.0253C38.2315 44.0309 38.249 44.0463 38.256 44.0645C38.256 44.0645 51.2306 73.0312 51.2817 73.146C51.6052 73.0445 62.9629 69.4157 63.0882 69.375C63.0567 69.2413 58.9405 53.4215 58.9405 53.4215C58.937 53.4145 58.9356 53.411 58.9356 53.404C58.9356 53.3802 58.9468 53.3571 58.9678 53.3431C59.9363 52.6309 60.8572 51.8536 61.7108 51.0371C61.7353 51.0161 61.7661 51.0112 61.7969 51.0231C61.8249 51.0371 61.841 51.0707 61.8375 51.1001C61.6443 52.7178 61.7591 54.2857 62.1744 55.7548C63.0637 58.9208 65.1358 61.42 68.0139 62.8051C71.1203 64.2981 74.9144 64.3023 78.4248 62.8121C80.1419 62.0817 81.7084 61.0278 83.0795 59.6784C83.1005 59.6574 83.1306 59.6504 83.1593 59.6581C83.1838 59.6707 83.2055 59.6945 83.2076 59.7225C83.2076 59.7225 83.6712 64.7253 83.6852 64.8737C83.8407 64.852 94.7033 63.2554 94.8293 63.2379C94.8293 63.1098 94.8146 53.1729 94.8146 53.1729C94.8146 53.1498 94.8293 53.126 94.851 53.1113C94.8713 53.0973 94.8979 53.0973 94.9231 53.1085C94.9231 53.1085 118.187 64.6118 118.404 64.719V53.5476C118.404 53.5084 118.431 53.4754 118.473 53.4726C119.441 53.3935 120.41 53.2416 121.348 53.0133C123.954 52.3872 126.172 51.5126 128.114 50.3494C128.142 50.334 128.171 50.339 128.197 50.3537C128.213 50.3677 128.231 50.3887 128.231 50.4153C128.231 50.4174 128.231 50.4223 128.227 50.4265C128.227 50.4265 127.278 56.2674 127.25 56.4124C127.399 56.4341 139.67 58.3696 139.817 58.3921C139.843 58.2506 140.51 53.8858 140.51 53.8858C140.513 53.8529 140.538 53.8284 140.573 53.8214C140.605 53.8158 140.634 53.8326 140.649 53.8613C140.649 53.8613 143.775 59.6371 143.905 59.8745C144.025 59.6385 145.865 56.0875 145.865 56.0875C145.88 56.058 145.915 56.0447 145.947 56.0517C145.978 56.0538 146.002 56.0804 146.004 56.1134C146.004 56.1134 146.728 62.3717 146.742 62.4788C146.847 62.4991 160.8 64.9627 161.005 64.9956C160.969 64.796 160.253 60.2477 160.253 60.2477V60.2344C160.253 60.2155 160.26 60.2001 160.272 60.1819C160.293 60.1672 160.314 60.1588 160.337 60.1595C162.317 60.3829 164.4 60.1112 166.367 59.371L167.757 58.752C167.782 58.7401 167.816 58.7401 167.837 58.759C167.854 58.7723 167.867 58.794 167.867 58.8164C167.867 58.822 167.311 63.7799 167.297 63.9193C167.436 63.9396 176.823 65.2561 176.823 65.2561C176.861 65.2596 176.888 65.2876 176.888 65.3296C176.888 65.3296 176.959 69.1027 176.963 69.2098C177.065 69.2413 186.702 72.2721 186.843 72.3169C186.884 72.1783 199.778 33.349 199.826 33.1943C199.671 33.1564 186.553 29.973 186.408 29.9387C186.375 30.0823 185.14 35.1788 185.14 35.1788C185.13 35.2096 185.098 35.2334 185.066 35.2334C185.028 35.2334 184.999 35.2096 184.992 35.1732C184.992 35.1732 183.831 29.4275 183.81 29.3323C183.717 29.3162 168.19 25.8996 168.006 25.8575C168.012 26.0431 168.123 34.4491 168.123 34.5654C168.234 34.5906 170.464 35.0871 170.464 35.0871C170.501 35.0941 170.527 35.1235 170.527 35.162C170.527 35.1641 170.344 36.7719 170.344 36.7719C170.338 36.7978 170.324 36.8217 170.304 36.8322C170.283 36.842 170.255 36.842 170.232 36.8307C170.232 36.8307 170.206 36.8132 170.165 36.7908C167.213 35.2236 163.541 35.071 160.082 36.3707C158.958 36.8027 157.879 37.3847 156.87 38.1031C156.849 38.1228 156.821 38.1227 156.798 38.1143C156.774 38.1031 156.755 38.0821 156.752 38.0555C156.752 38.0555 154.386 23.0663 154.364 22.9381H143.894C143.867 23.0572 143.606 24.6188 143.606 24.6188C143.602 24.6545 143.565 24.6818 143.532 24.6818H132.436C132.42 24.8043 131.169 32.4282 131.169 32.4282C131.167 32.4569 131.143 32.48 131.117 32.4912C131.085 32.4961 131.058 32.487 131.036 32.4625L130.112 31.3217C127.453 28.0473 123.575 26.193 119.205 26.1005C119.171 26.0977 119.142 26.0753 119.135 26.0431C119.129 26.0361 119.129 26.0312 119.129 26.0242C119.129 25.9969 119.143 25.971 119.171 25.9598C119.171 25.9598 128.425 20.9865 128.571 20.9095C128.48 20.7764 122.171 11.3578 122.064 11.1981C121.934 11.3445 110.314 24.7378 110.232 24.8309ZM115.007 25.1916L114.314 24.1447C114.297 24.1181 114.297 24.0831 114.322 24.0558L121.506 15.4067C121.519 15.3899 121.538 15.3815 121.566 15.3815C121.587 15.3815 121.608 15.3934 121.622 15.4102L125.113 20.1573C125.128 20.1735 125.135 20.1987 125.128 20.2197C125.121 20.24 125.108 20.2617 125.089 20.2687L115.101 25.2175C115.09 25.2224 115.08 25.2245 115.068 25.2245C115.045 25.2245 115.02 25.2147 115.007 25.1916ZM146.54 25.7903C146.547 25.756 146.579 25.7301 146.615 25.7301H152.01C152.051 25.7301 152.082 25.756 152.088 25.7917L154.328 40.3566C154.335 40.3804 154.328 40.4007 154.313 40.4196C151.347 43.7942 150.125 48.1121 151.045 51.9643C151.779 55.035 153.667 57.5202 156.375 58.9564L157.217 59.3535C157.239 59.3647 157.258 59.385 157.265 59.4088L157.552 61.294C157.557 61.3206 157.545 61.3444 157.531 61.3584C157.516 61.3766 157.489 61.3857 157.469 61.3836L149.498 60.1644C149.469 60.1588 149.441 60.1322 149.436 60.0972C149.436 60.0972 147.443 46.8754 147.362 46.3383C147.172 46.8334 144.466 53.8214 144.466 53.8214C144.457 53.8522 144.428 53.8669 144.401 53.8669C144.369 53.8732 144.341 53.8529 144.332 53.8256C144.332 53.8256 140.042 44.5743 139.909 44.2921C139.856 44.6143 138.155 55.341 138.155 55.341C138.151 55.3613 138.142 55.3781 138.123 55.3907C138.109 55.4033 138.088 55.4054 138.067 55.4033L130.592 54.1015C130.551 54.098 130.529 54.063 130.529 54.028V54.0133C130.529 54.0133 131.578 47.7592 131.601 47.7136L132.436 46.9013C132.436 46.9013 134.691 44.568 134.8 44.4588C134.688 44.3614 132.507 42.4014 132.507 42.4014C132.494 42.3881 132.486 42.3692 132.486 42.3454V42.3349L134.984 27.4332C134.988 27.3953 135.018 27.3722 135.058 27.3722H142.612C142.647 27.3722 142.679 27.3953 142.687 27.4332C142.687 27.4332 144.354 36.5773 144.492 37.335C144.627 36.5668 146.54 25.7903 146.54 25.7903ZM98.101 25.9598C98.1136 25.9409 98.1339 25.9276 98.1563 25.9269C98.1766 25.9269 98.1983 25.9339 98.2151 25.9465L105.216 32.6173C105.233 32.6306 105.24 32.6523 105.24 32.6698C105.24 32.6887 105.233 32.7069 105.218 32.7209C105.218 32.7209 95.6598 42.7992 95.5086 42.9609C96.5198 43.3587 104.602 46.5561 104.638 46.5925C105.667 48.5308 107.237 50.187 109.176 51.3809C111.059 52.5406 113.199 53.2415 115.531 53.4586C115.571 53.4607 115.6 53.4944 115.6 53.5329V60.1392C115.6 60.1672 115.586 60.1882 115.566 60.2065C115.543 60.2156 115.515 60.2205 115.489 60.2065C115.489 60.2065 92.4092 48.6625 92.1942 48.5532C92.1942 48.7934 92.2348 60.6952 92.2348 60.6952C92.2348 60.7359 92.2075 60.7659 92.169 60.7729L86.1131 61.6021C86.0942 61.6021 86.0732 61.5986 86.0549 61.5839C86.0416 61.5713 86.0311 61.5516 86.0311 61.5313C86.0311 61.5313 85.6145 56.5825 85.6145 56.4271V56.4215C86.9387 54.1638 87.6221 51.6765 87.6221 49.2759C87.6221 48.1688 87.4772 47.0841 87.1838 46.047C86.6593 44.1892 85.6754 42.5155 84.3141 41.1528C84.3141 41.1528 83.4681 31.0991 83.452 30.9247C83.291 30.966 80.8155 31.6145 80.8155 31.6145C80.7938 31.618 80.7686 31.6144 80.7539 31.6004C80.7336 31.5885 80.7231 31.5676 80.7203 31.5445L80.6034 28.9387C80.6013 28.9037 80.6251 28.8743 80.6573 28.8645L90.3833 25.9696C90.405 25.9612 90.4302 25.964 90.4491 25.978C90.4666 25.9906 90.4785 26.0158 90.4785 26.0361C90.4785 26.0361 91.036 35.4442 91.0584 35.8539C91.2986 35.5171 98.101 25.9598 98.101 25.9598ZM36.38 41.4988L31.5901 33.4022C31.5691 33.3679 31.5796 33.3217 31.6139 33.3014C33.5005 32.1018 35.5999 31.0073 37.8463 30.0542C43.8497 27.4997 49.8861 26.5718 54.8405 27.4429C56.7998 27.667 58.4973 28.2518 59.8908 29.1803C62.117 30.4275 63.7192 32.16 64.6575 34.3301C65.119 35.391 65.341 36.5352 65.341 37.7292C65.341 42.6346 61.6009 48.3075 55.5071 52.084C55.5358 52.1849 59.4783 67.3226 59.4783 67.3226V67.3415C59.4783 67.3723 59.4594 67.4031 59.4272 67.4136L52.9784 69.4731C52.942 69.485 52.9035 69.4661 52.8867 69.4367C52.8867 69.4367 39.7441 40.0891 39.6796 39.9455C39.5459 40.0135 37.6433 40.9582 37.6433 40.9582L36.478 41.5282C36.4675 41.5338 36.4549 41.538 36.4444 41.538C36.4192 41.538 36.3947 41.5233 36.38 41.4988ZM106.821 44.58C106.611 44.094 106.446 43.5876 106.324 43.075C105.562 39.837 106.099 36.795 107.88 34.2762C108.356 33.6011 108.926 32.9646 109.579 32.389C111.158 30.9807 113.19 29.9478 115.447 29.403C120.381 28.2153 125.036 29.6166 127.905 33.1487C127.914 33.1627 127.921 33.181 127.921 33.1971C127.921 33.216 127.914 33.2321 127.905 33.2454C127.905 33.2454 118.473 43.2886 118.269 43.512C119.025 43.5947 120.118 43.3692 120.575 43.2599C122.761 42.734 124.047 41.6332 125.299 40.1472C125.312 40.1325 125.332 40.1227 125.353 40.1199C125.371 40.1199 125.391 40.1269 125.406 40.1381L130.487 44.7095C130.5 44.7221 130.508 44.7424 130.508 44.7627C130.508 44.7844 130.505 44.8026 130.491 44.8187C129.972 45.353 129.432 45.8509 128.886 46.3033C126.618 48.1758 124.089 49.3782 120.666 50.201C119.944 50.3754 119.213 50.4986 118.482 50.5707C117.999 50.6184 117.52 50.6408 117.05 50.6408C117.049 50.6408 117.047 50.6408 117.046 50.6408C112.365 50.6408 108.439 48.3516 106.821 44.58ZM176.199 62.518L170.162 61.5566C170.123 61.5517 170.099 61.5223 170.099 61.483V61.476C170.099 61.476 170.532 56.9411 170.554 56.8893C173.858 54.1015 175.735 50.1513 175.735 46.2907C175.735 45.3895 175.637 44.4931 175.423 43.6213C174.928 41.5471 173.858 39.7131 172.327 38.316C172.313 38.3013 172.299 38.2782 172.299 38.2593C172.299 38.2579 172.796 33.0976 172.803 32.973C172.687 32.9443 170.588 32.3799 170.588 32.3799C170.554 32.3701 170.532 32.342 170.532 32.3084C170.532 32.3056 170.689 29.4492 170.689 29.4492C170.689 29.4275 170.698 29.4072 170.717 29.3932C170.733 29.3806 170.754 29.3778 170.774 29.3806L181.175 31.4695C181.207 31.4772 181.228 31.4996 181.233 31.5304C181.233 31.5304 184.532 47.1625 184.663 47.7886C184.812 47.1695 188.167 33.244 188.167 33.244C188.177 33.204 188.213 33.181 188.255 33.188L196.172 34.9386C196.193 34.9435 196.207 34.961 196.218 34.9757C196.232 34.9968 196.232 35.0171 196.226 35.0388L185.084 68.7819C185.07 68.8197 185.028 68.8449 184.991 68.8316L179.459 67.1762C179.421 67.1699 179.404 67.1398 179.404 67.1069C179.404 67.1069 178.974 48.86 178.941 47.4665C178.704 48.8089 176.29 62.4571 176.29 62.4571C176.281 62.4928 176.247 62.5194 176.211 62.5194C176.206 62.5194 176.203 62.5194 176.199 62.518ZM129.819 39.9778L127.743 38.1052C127.723 38.0947 127.717 38.073 127.713 38.0534C127.713 38.0324 127.719 38.0128 127.732 37.9974L130.625 34.9197C130.647 34.8966 130.684 34.8896 130.712 34.9043C130.74 34.9183 130.758 34.9491 130.754 34.9828L129.944 39.9337C129.94 39.9624 129.92 39.9848 129.894 39.9939C129.885 39.9967 129.878 39.9981 129.869 39.9981C129.852 39.9981 129.833 39.9911 129.819 39.9778ZM159.884 57.5846C158.684 57.3493 157.592 56.8823 156.638 56.1918C155.065 55.0644 153.987 53.4215 153.515 51.4454C152.959 49.1051 153.404 46.505 154.775 44.1318C155.43 42.9952 156.269 41.9616 157.265 41.066C158.405 40.0359 159.688 39.2474 161.078 38.7131C164.246 37.5184 167.582 37.837 169.991 39.5604C170.847 40.1766 171.559 40.9379 172.098 41.83C172.531 42.5422 172.852 43.3278 173.053 44.1528C173.722 46.9629 173.003 50.0918 171.072 52.7409C170.269 53.8403 169.307 54.7933 168.207 55.5776C167.352 56.1855 166.435 56.6778 165.481 57.0391C164.218 57.5146 162.925 57.7562 161.673 57.7562C161.066 57.7562 160.467 57.6995 159.884 57.5846ZM103.341 43.2543L100.088 41.9925C100.064 41.9854 100.048 41.9616 100.039 41.9364C100.036 41.9105 100.046 41.8867 100.064 41.8664L103.092 38.9253C103.116 38.9029 103.149 38.8972 103.177 38.9098C103.205 38.9252 103.223 38.9561 103.221 38.9848C103.088 40.3566 103.163 41.7656 103.444 43.1689C103.448 43.1969 103.438 43.2256 103.416 43.2466C103.403 43.255 103.387 43.2613 103.371 43.2613C103.361 43.2613 103.35 43.2585 103.341 43.2543ZM69.0881 60.2827C66.8984 59.2344 65.313 57.3108 64.6295 54.8767C63.1744 49.7143 66.4887 43.5799 72.016 41.2039C75.3464 39.7901 78.8954 40.0072 81.5088 41.7837C83.1243 42.8727 84.2588 44.4707 84.8043 46.3936L84.9597 47.0463C85.1145 47.7907 85.1782 48.5631 85.1544 49.3389C85.0795 51.5728 84.2553 53.8886 82.8288 55.864C81.4304 57.8073 79.5571 59.3171 77.4199 60.2303C75.9515 60.8521 74.4669 61.1637 73.0348 61.1637C71.6469 61.1637 70.3108 60.8703 69.0881 60.2827Z" fill="#909090"/>
</g>
</g>
<mask id="mask59_2059_1084" style="mask-type:luminance" maskUnits="userSpaceOnUse" x="50" y="36" width="10" height="13">
<path d="M50.75 37.2942L51.7976 40.8732L53.4432 46.1694L54.1953 48.5818C57.2401 46.6217 60.3003 44.2738 59.4901 39.9384C59.086 37.7844 57.0258 36.2963 54.4579 36.2963C53.2899 36.2963 52.0189 36.603 50.75 37.2942ZM54.0392 40.1765C54.0392 40.1765 53.841 39.4916 53.6169 38.7269C54.481 38.5707 55.3095 38.6422 55.9901 38.9706C56.3711 39.1485 57.0321 39.5693 57.1834 40.3712C57.5181 42.1687 56.9054 43.4572 55.4614 44.7485C55.0153 43.3074 54.0476 40.201 54.0392 40.1765Z" fill="white"/>
</mask>
<g mask="url(#mask59_2059_1084)">
<mask id="mask60_2059_1084" style="mask-type:luminance" maskUnits="userSpaceOnUse" x="50" y="36" width="11" height="13">
<path d="M50.7502 48.6826L50.6196 36.2972L60.2982 36.1951L60.4288 48.5806L50.7502 48.6826Z" fill="white"/>
</mask>
<g mask="url(#mask60_2059_1084)">
<path d="M50.75 37.2942L51.7976 40.8732L53.4432 46.1694L54.1953 48.5818C57.2401 46.6217 60.3003 44.2738 59.4901 39.9384C59.086 37.7844 57.0258 36.2963 54.4579 36.2963C53.2899 36.2963 52.0189 36.603 50.75 37.2942ZM54.0392 40.1765C54.0392 40.1765 53.841 39.4916 53.6169 38.7269C54.481 38.5707 55.3095 38.6422 55.9901 38.9706C56.3711 39.1485 57.0321 39.5693 57.1834 40.3712C57.5181 42.1687 56.9054 43.4572 55.4614 44.7485C55.0153 43.3074 54.0476 40.201 54.0392 40.1765Z" fill="#909090"/>
</g>
</g>
<mask id="mask61_2059_1084" style="mask-type:luminance" maskUnits="userSpaceOnUse" x="111" y="33" width="11" height="11">
<path d="M113.055 35.3168C110.98 37.5843 111.136 41.1088 113.407 43.183C113.594 43.3552 113.792 43.5058 113.998 43.6472L121.313 35.3638C121.188 35.2272 121.058 35.0914 120.921 34.9639C119.853 33.987 118.507 33.5045 117.165 33.5045C115.657 33.5045 114.152 34.1145 113.055 35.3168ZM114.51 36.6473C115.537 35.5206 117.117 35.2041 118.46 35.7209L114.009 40.7999C113.292 39.4862 113.445 37.8098 114.51 36.6473Z" fill="white"/>
</mask>
<g mask="url(#mask61_2059_1084)">
<mask id="mask62_2059_1084" style="mask-type:luminance" maskUnits="userSpaceOnUse" x="110" y="33" width="12" height="11">
<path d="M110.981 43.7568L110.873 33.5059L121.312 33.3959L121.42 43.6467L110.981 43.7568Z" fill="white"/>
</mask>
<g mask="url(#mask62_2059_1084)">
<path d="M113.055 35.3168C110.98 37.5843 111.136 41.1088 113.407 43.183C113.594 43.3552 113.792 43.5058 113.998 43.6472L121.313 35.3638C121.188 35.2272 121.058 35.0914 120.921 34.9639C119.853 33.987 118.507 33.5045 117.165 33.5045C115.657 33.5045 114.152 34.1145 113.055 35.3168ZM114.51 36.6473C115.537 35.5206 117.117 35.2041 118.46 35.7209L114.009 40.7999C113.292 39.4862 113.445 37.8098 114.51 36.6473Z" fill="#909090"/>
</g>
</g>
<mask id="mask63_2059_1084" style="mask-type:luminance" maskUnits="userSpaceOnUse" x="158" y="40" width="12" height="10">
<path d="M158.707 44.626C158.602 47.3536 160.797 49.5965 163.654 49.7142C166.559 49.8318 168.931 47.7765 169.041 45.0455C169.079 44.1022 168.801 43.201 168.291 42.4321C168.356 42.6695 168.393 42.9188 168.381 43.1772C168.313 44.7164 166.858 45.9138 165.123 45.8445C163.383 45.7745 162.027 44.4615 162.09 42.9188C162.153 41.4664 163.441 40.3243 165.034 40.2522C164.729 40.1822 164.413 40.138 164.089 40.1268C164.008 40.124 163.928 40.1212 163.85 40.1212C161.056 40.1212 158.81 42.1352 158.707 44.626Z" fill="white"/>
</mask>
<g mask="url(#mask63_2059_1084)">
<mask id="mask64_2059_1084" style="mask-type:luminance" maskUnits="userSpaceOnUse" x="158" y="40" width="12" height="10">
<path d="M158.603 49.9419L158.499 40.1223L169.078 40.0108L169.182 49.8303L158.603 49.9419Z" fill="white"/>
</mask>
<g mask="url(#mask64_2059_1084)">
<path d="M158.707 44.626C158.602 47.3536 160.797 49.5965 163.654 49.7142C166.559 49.8318 168.931 47.7765 169.041 45.0455C169.079 44.1022 168.801 43.201 168.291 42.4321C168.356 42.6695 168.393 42.9188 168.381 43.1772C168.313 44.7164 166.858 45.9138 165.123 45.8445C163.383 45.7745 162.027 44.4615 162.09 42.9188C162.153 41.4664 163.441 40.3243 165.034 40.2522C164.729 40.1822 164.413 40.138 164.089 40.1268C164.008 40.124 163.928 40.1212 163.85 40.1212C161.056 40.1212 158.81 42.1352 158.707 44.626Z" fill="#909090"/>
</g>
</g>
<mask id="mask65_2059_1084" style="mask-type:luminance" maskUnits="userSpaceOnUse" x="70" y="42" width="11" height="11">
<path d="M70.6035 47.4C70.6035 50.1296 72.8892 52.283 75.7498 52.283C78.6531 52.283 80.9437 50.1296 80.9437 47.4C80.9437 46.4532 80.6286 45.5639 80.0929 44.8139C80.1629 45.0499 80.2056 45.2999 80.2056 45.5541C80.2056 47.101 78.7981 48.3572 77.0593 48.3572C75.3212 48.3572 73.913 47.101 73.913 45.5541C73.913 44.1024 75.1581 42.9084 76.7456 42.7684C76.4368 42.7166 76.1216 42.6829 75.796 42.6829C72.8892 42.6829 70.6035 44.8349 70.6035 47.4Z" fill="white"/>
</mask>
<g mask="url(#mask65_2059_1084)">
<mask id="mask66_2059_1084" style="mask-type:luminance" maskUnits="userSpaceOnUse" x="70" y="42" width="12" height="11">
<path d="M70.6048 52.3916L70.5024 42.684L80.9423 42.5739L81.0447 52.2815L70.6048 52.3916Z" fill="white"/>
</mask>
<g mask="url(#mask66_2059_1084)">
<path d="M70.604 47.4C70.604 50.1296 72.8897 52.283 75.7503 52.283C78.6536 52.283 80.9442 50.1296 80.9442 47.4C80.9442 46.4532 80.6291 45.5639 80.0933 44.8139C80.1634 45.0499 80.2061 45.2999 80.2061 45.5541C80.2061 47.101 78.7985 48.3572 77.0598 48.3572C75.3217 48.3572 73.9135 47.101 73.9135 45.5541C73.9135 44.1024 75.1586 42.9084 76.7461 42.7684C76.4372 42.7166 76.1221 42.6829 75.7965 42.6829C72.8897 42.6829 70.604 44.8349 70.604 47.4Z" fill="#909090"/>
</g>
</g>
<path d="M195.67 72.427H195.105V70.1049H195.093L194.342 72.427H194.009L193.259 70.1049H193.246V72.427H192.68V69.5475H193.591L194.176 71.2513L194.759 69.5475H195.67V72.427ZM192.367 70.1049H191.578V72.427H190.955V70.1049H190.167V69.5475H192.367V70.1049Z" fill="#909090"/>
</svg>
