<svg width="248" height="96" viewBox="0 0 248 96" fill="none" xmlns="http://www.w3.org/2000/svg">
<path fill-rule="evenodd" clip-rule="evenodd" d="M49.1376 39.0079C48.7431 39.9085 48.1185 40.6162 47.2966 41.1309C46.5733 41.5812 45.7843 41.8064 44.9296 41.8385C44.568 41.8385 44.2392 41.5812 44.2392 41.1952C44.2392 40.8414 44.5022 40.5197 44.8638 40.5197C45.4885 40.4875 46.0802 40.3267 46.5733 40.005C47.1651 39.6512 47.5925 39.1365 47.8883 38.461C48.0527 38.075 48.0198 37.6569 47.8226 37.2709C47.5925 36.917 47.2308 36.6919 46.8035 36.6597C45.9158 36.5954 45.1597 36.8849 44.568 37.4639C43.6146 38.3967 43.253 40.0694 43.0886 40.777C42.9571 41.3882 41.3791 48.0145 40.7545 50.6844C40.6558 51.1025 40.2942 51.392 39.834 51.392C39.4066 51.392 39.0121 51.1025 38.9135 50.6844L38.6833 49.7194C37.9601 46.6957 36.7108 41.3239 36.5793 40.777C36.415 40.0694 36.0205 38.3967 35.1 37.4639C34.5082 36.8849 33.785 36.6275 32.8645 36.6597C32.4371 36.6919 32.0755 36.917 31.8453 37.2709C31.6152 37.6247 31.5823 38.075 31.7796 38.461C32.0755 39.1044 32.5357 39.619 33.0946 40.005C33.6206 40.3267 34.1795 40.4875 34.8041 40.5197C35.1657 40.5197 35.4616 40.8414 35.4287 41.1952C35.4287 41.549 35.1 41.8385 34.7383 41.8385C33.8836 41.8064 33.0617 41.5812 32.3713 41.1309C31.5495 40.6162 30.9248 39.9085 30.5303 39.0079C30.1687 38.2359 30.2345 37.3352 30.6947 36.5954C31.155 35.8555 31.9111 35.4052 32.7658 35.373C34.048 35.3087 35.1657 35.6947 35.9876 36.5632C37.204 37.7534 37.6313 39.6834 37.8286 40.5197C37.9601 41.0344 39.045 45.6985 39.8011 48.7865C40.5243 45.6985 41.6421 41.0022 41.7736 40.5197C41.9708 39.6834 42.3982 37.7534 43.6146 36.5632C44.4693 35.7269 45.5871 35.3087 46.8363 35.373C47.6911 35.4374 48.4472 35.8877 48.9075 36.5954C49.4006 37.303 49.4663 38.2037 49.1376 39.0079ZM43.1872 28.5537C42.2996 28.5537 41.3791 28.7145 40.4915 29.004C40.097 29.1327 39.6367 29.1327 39.2422 29.004C38.3546 28.7145 37.4341 28.5537 36.5465 28.5537C31.418 28.5537 27.1113 33.636 27.1113 39.6512C27.1113 46.3419 32.2727 52.2605 39.6367 53.9975C39.8011 54.0297 39.9326 54.0297 40.097 53.9975C47.461 52.2284 52.6223 46.3097 52.6223 39.6512C52.6223 33.636 48.2828 28.5537 43.1872 28.5537Z" fill="#909090"/>
<path fill-rule="evenodd" clip-rule="evenodd" d="M40.3925 55.2843C40.2282 55.3165 40.0309 55.3486 39.8665 55.3486C39.6693 55.3486 39.5049 55.3165 39.3405 55.2843C31.3519 53.3865 25.796 46.9531 25.796 39.6513C25.796 32.9285 30.7273 27.235 36.5462 27.235C37.5653 27.235 38.6173 27.3958 39.6693 27.7496C39.8008 27.7818 39.9652 27.7818 40.0967 27.7496C41.1158 27.3958 42.1678 27.235 43.2198 27.235C49.0387 27.235 53.9699 32.9285 53.9699 39.6513C53.937 46.9531 48.3812 53.3865 40.3925 55.2843ZM53.1809 53.483C53.1809 53.8368 52.885 54.1585 52.5234 54.1585C52.1618 54.1585 51.8659 53.869 51.8659 53.483V52.5501C51.8659 52.1963 52.1618 51.8746 52.5234 51.8746C52.885 51.8746 53.1809 52.1642 53.1809 52.5501V53.483ZM53.1809 57.6646C53.1809 58.0185 52.885 58.3401 52.5234 58.3401C52.1618 58.3401 51.8659 58.0506 51.8659 57.6646V56.7318C51.8659 56.378 52.1618 56.0563 52.5234 56.0563C52.885 56.0563 53.1809 56.3458 53.1809 56.7318V57.6646ZM48.94 59.7555C48.94 60.1093 48.6442 60.431 48.2825 60.431C47.9209 60.431 47.625 60.1415 47.625 59.7555V58.8227C47.625 58.4688 47.9209 58.1471 48.2825 58.1471C48.6442 58.1471 48.94 58.4366 48.94 58.8227V59.7555ZM48.94 63.9371C48.94 64.291 48.6442 64.6126 48.2825 64.6126C47.9209 64.6126 47.625 64.3231 47.625 63.9371V63.0043C47.625 62.6505 47.9209 62.3288 48.2825 62.3288C48.6442 62.3288 48.94 62.6183 48.94 63.0043V63.9371ZM44.732 61.8463C44.732 62.2001 44.4362 62.5218 44.0745 62.5218C43.7129 62.5218 43.417 62.2323 43.417 61.8463V60.9135C43.417 60.5597 43.7129 60.238 44.0745 60.238C44.4362 60.238 44.732 60.5275 44.732 60.9135V61.8463ZM44.732 66.028C44.732 66.3818 44.4362 66.7035 44.0745 66.7035C43.7129 66.7035 43.417 66.414 43.417 66.028V65.0951C43.417 64.7413 43.7129 64.4196 44.0745 64.4196C44.4362 64.4196 44.732 64.7091 44.732 65.0951V66.028ZM40.524 59.7555C40.524 60.1093 40.2282 60.431 39.8665 60.431C39.5049 60.431 39.209 60.1415 39.209 59.7555V58.8227C39.209 58.4688 39.5049 58.1471 39.8665 58.1471C40.2282 58.1471 40.524 58.4366 40.524 58.8227V59.7555ZM40.524 63.9371C40.524 64.291 40.2282 64.6126 39.8665 64.6126C39.5049 64.6126 39.209 64.3231 39.209 63.9371V63.0043C39.209 62.6505 39.5049 62.3288 39.8665 62.3288C40.2282 62.3288 40.524 62.6183 40.524 63.0043V63.9371ZM36.316 61.8463C36.316 62.2001 36.0202 62.5218 35.6585 62.5218C35.2969 62.5218 35.001 62.2323 35.001 61.8463V60.9135C35.001 60.5597 35.2969 60.238 35.6585 60.238C36.0202 60.238 36.316 60.5275 36.316 60.9135V61.8463ZM36.316 66.028C36.316 66.3818 36.0202 66.7035 35.6585 66.7035C35.2969 66.7035 35.001 66.414 35.001 66.028V65.0951C35.001 64.7413 35.2969 64.4196 35.6585 64.4196C36.0202 64.4196 36.316 64.7091 36.316 65.0951V66.028ZM32.108 59.7555C32.108 60.1093 31.8122 60.431 31.4505 60.431C31.0889 60.431 30.793 60.1415 30.793 59.7555V58.8227C30.793 58.4688 31.0889 58.1471 31.4505 58.1471C31.8122 58.1471 32.108 58.4366 32.108 58.8227V59.7555ZM32.108 63.9371C32.108 64.291 31.8122 64.6126 31.4505 64.6126C31.0889 64.6126 30.793 64.3231 30.793 63.9371V63.0043C30.793 62.6505 31.0889 62.3288 31.4505 62.3288C31.8122 62.3288 32.108 62.6183 32.108 63.0043V63.9371ZM27.9 53.483C27.9 53.8368 27.6042 54.1585 27.2425 54.1585C26.8809 54.1585 26.585 53.869 26.585 53.483V52.5501C26.585 52.1963 26.8809 51.8746 27.2425 51.8746C27.6042 51.8746 27.9 52.1642 27.9 52.5501V53.483ZM27.9 57.6646C27.9 58.0185 27.6042 58.3401 27.2425 58.3401C26.8809 58.3401 26.585 58.0506 26.585 57.6646V56.7318C26.585 56.378 26.8809 56.0563 27.2425 56.0563C27.6042 56.0563 27.9 56.3458 27.9 56.7318V57.6646ZM39.8665 23.8896C30.7602 23.8896 23.3633 31.2236 23.3633 40.2946V54.4802C23.3633 63.5512 30.7602 70.8852 39.8665 70.8852C48.9729 70.8852 56.3698 63.5512 56.3698 54.4802V40.2946C56.3698 31.2236 48.9729 23.8896 39.8665 23.8896Z" fill="#909090"/>
<path fill-rule="evenodd" clip-rule="evenodd" d="M75.4374 46.6637C72.4129 45.8917 71.1637 45.4413 71.1637 43.7687C71.1637 42.5463 72.2814 41.6135 74.2539 41.6135C76.2593 41.6135 77.5086 42.4177 78.4619 43.64L80.8947 41.6778C79.3496 39.7157 77.2784 38.5898 74.1882 38.5898C70.3418 38.5898 67.7776 40.745 67.7776 43.8652C67.7776 47.2427 70.0788 48.6902 73.9581 49.7195C77.3442 50.6523 78.6921 51.36 78.6921 53.0327C78.6921 54.6089 77.2784 55.5739 74.7799 55.5739C72.1828 55.5739 70.2103 54.4158 69.0268 52.4858L66.4297 54.2872C68.2049 56.957 71.0651 58.5975 74.7799 58.5975C79.4153 58.5975 82.2097 56.4424 82.2097 52.8397C82.2097 49.3657 79.6126 47.693 75.4374 46.6637Z" fill="#909090"/>
<path fill-rule="evenodd" clip-rule="evenodd" d="M95.9842 55.4773C92.1378 55.4773 89.5736 52.6466 89.5736 48.6258C89.5736 44.5728 92.1378 41.7099 95.9842 41.7099C99.7977 41.7099 102.263 44.5406 102.263 48.6258C102.263 52.6466 99.7648 55.4773 95.9842 55.4773ZM102.165 42.2889C100.784 39.9086 98.4827 38.5576 95.2938 38.5576C89.9023 38.5576 85.793 42.8679 85.793 48.5936C85.793 54.2871 89.9023 58.5653 95.2938 58.5653C98.4827 58.5653 100.817 57.2464 102.165 54.8661V58.1149H105.781V39.0079H102.165V42.2889Z" fill="#909090"/>
<path fill-rule="evenodd" clip-rule="evenodd" d="M134.021 38.5898C130.865 38.5898 128.695 39.7478 127.15 42.1282C125.966 39.7478 123.895 38.5898 121.265 38.5898C118.602 38.5898 116.531 39.6835 115.446 41.6778V39.0723H111.83V58.1793H115.446V47.1783C115.446 43.7043 117.287 41.7744 120.476 41.7744C123.271 41.7744 124.618 43.4148 124.618 46.4063V58.1472H128.235V47.0497C128.235 43.6722 130.01 41.7744 133.265 41.7744C135.993 41.7744 137.407 43.3505 137.407 46.3742V58.1472H141.023V45.956C141.056 41.324 138.097 38.5898 134.021 38.5898Z" fill="#909090"/>
<path fill-rule="evenodd" clip-rule="evenodd" d="M154.107 46.6637C151.083 45.8917 149.834 45.4413 149.834 43.7687C149.834 42.5463 150.951 41.6135 152.924 41.6135C154.929 41.6135 156.178 42.4177 157.132 43.64L159.565 41.6778C158.019 39.7157 155.948 38.5898 152.858 38.5898C149.012 38.5898 146.447 40.745 146.447 43.8652C146.447 47.2427 148.749 48.6902 152.628 49.7195C156.014 50.6523 157.362 51.36 157.362 53.0327C157.362 54.6089 155.948 55.5739 153.45 55.5739C150.853 55.5739 148.88 54.4158 147.697 52.4858L145.1 54.2872C146.875 56.957 149.735 58.5975 153.45 58.5975C158.085 58.5975 160.88 56.4424 160.88 52.8397C160.88 49.3657 158.282 47.693 154.107 46.6637Z" fill="#909090"/>
<path fill-rule="evenodd" clip-rule="evenodd" d="M174.654 55.4773C170.807 55.4773 168.243 52.6466 168.243 48.6258C168.243 44.5728 170.807 41.7099 174.654 41.7099C178.467 41.7099 180.933 44.5406 180.933 48.6258C180.933 52.6466 178.434 55.4773 174.654 55.4773ZM180.801 42.2889C179.421 39.9086 177.119 38.5576 173.931 38.5576C168.539 38.5576 164.43 42.8679 164.43 48.5936C164.43 54.2871 168.539 58.5653 173.931 58.5653C177.119 58.5653 179.454 57.2464 180.801 54.8661V58.1149H184.418V39.0079H180.801V42.2889Z" fill="#909090"/>
<path fill-rule="evenodd" clip-rule="evenodd" d="M213.743 55.4773C209.897 55.4773 207.332 52.6466 207.332 48.6258C207.332 44.5728 209.897 41.7099 213.743 41.7099C217.557 41.7099 220.022 44.5406 220.022 48.6258C220.055 52.6466 217.557 55.4773 213.743 55.4773ZM219.924 39.0401V42.2889C218.543 39.9086 216.242 38.5576 213.053 38.5576C207.661 38.5576 203.552 42.8679 203.552 48.5936C203.552 54.2871 207.661 58.5653 213.053 58.5653C216.242 58.5653 218.576 57.2464 219.924 54.8661V58.1149H223.54V39.0079H219.924V39.0401Z" fill="#909090"/>
<path fill-rule="evenodd" clip-rule="evenodd" d="M194.116 43.447V39.0402H190.5V58.1472H194.116V48.2077L202.138 41.2275L199.738 38.5898L194.116 43.447Z" fill="#909090"/>
</svg>
