<svg width="248" height="96" viewBox="0 0 248 96" fill="none" xmlns="http://www.w3.org/2000/svg">
<g clip-path="url(#clip0_2048_146)">
<path fill-rule="evenodd" clip-rule="evenodd" d="M69.4294 42.2256C67.3118 42.2207 65.2598 42.9569 63.6315 44.3056V42.4368H58.3428V62.96H63.8435V49.84C64.4348 49.0743 65.1895 48.4491 66.053 48.0096C66.9166 47.5702 67.8675 47.3275 68.8368 47.2992C69.5871 47.2608 70.3375 47.3729 71.0435 47.6288V42.3664C70.5105 42.2733 69.9705 42.2262 69.4294 42.2256Z" fill="#909090"/>
<path fill-rule="evenodd" clip-rule="evenodd" d="M21.4693 56.6976C23.04 58.0206 25.0336 58.7408 27.0905 58.728C28.5713 58.728 29.7132 58.008 29.7132 56.9936C29.7132 53.904 19.7701 55.0048 19.7701 48.4032C19.7701 44.4688 23.578 42.0144 27.6398 42.0144C30.1063 42.0212 32.5173 42.744 34.5779 44.0944L32.005 48.064C30.8694 47.2055 29.4949 46.7181 28.0702 46.6688C26.5476 46.6688 25.2773 47.2608 25.2773 48.3184C25.2773 50.984 35.222 49.9264 35.222 57.0352C35.222 60.9712 31.3674 63.3824 27.0552 63.3824C24.0838 63.3537 21.1968 62.3942 18.8032 60.64L21.4693 56.6976Z" fill="#909090"/>
<path fill-rule="evenodd" clip-rule="evenodd" d="M55.9948 52.5072C55.9948 46.7952 51.9796 42.0144 46.3038 42.0144C40.2104 42.0144 36.3173 47.0064 36.3173 52.72C36.2569 54.1405 36.494 55.558 37.0137 56.8822C37.5333 58.2064 38.3241 59.4083 39.3356 60.4113C40.3471 61.4143 41.5572 62.1965 42.8888 62.708C44.2204 63.2195 45.6443 63.4492 47.0699 63.3824C48.6558 63.4032 50.2278 63.0855 51.6802 62.4508C53.1326 61.816 54.4318 60.8789 55.4905 59.7024L52.3587 56.5712C51.7028 57.2921 50.9075 57.8736 50.0205 58.2808C49.1335 58.688 48.173 58.9125 47.1968 58.9408C45.825 58.9853 44.4878 58.5074 43.4573 57.6044C42.4267 56.7013 41.7803 55.4411 41.6495 54.08H55.8679C55.9554 53.5603 55.9979 53.0341 55.9948 52.5072ZM41.9032 50.0544C42.1006 49.0377 42.6485 48.1218 43.4521 47.465C44.2556 46.8082 45.2644 46.4518 46.3038 46.4576C47.3052 46.4591 48.2715 46.8258 49.0201 47.4884C49.7687 48.1511 50.2479 49.0639 50.3671 50.0544H41.9032Z" fill="#909090"/>
<path fill-rule="evenodd" clip-rule="evenodd" d="M84.1539 54.9616L89.7815 42.4368H95.4959L86.0587 62.96H82.2507L72.8135 42.4368H78.5262L84.1539 54.9616Z" fill="#909090"/>
<path fill-rule="evenodd" clip-rule="evenodd" d="M100.115 32.7999C100.811 32.8125 101.487 33.0296 102.06 33.424C102.632 33.8184 103.075 34.3724 103.333 35.0166C103.59 35.6608 103.651 36.3665 103.508 37.045C103.364 37.7236 103.023 38.3448 102.526 38.8307C102.03 39.3166 101.4 39.6455 100.716 39.7762C100.033 39.9069 99.3258 39.8336 98.6839 39.5654C98.042 39.2972 97.4939 38.8461 97.1084 38.2687C96.7229 37.6913 96.5172 37.0133 96.5171 36.3199C96.517 35.8522 96.6105 35.3892 96.7921 34.9579C96.9736 34.5266 97.2397 34.1357 97.5746 33.808C97.9095 33.4803 98.3067 33.2223 98.7428 33.0492C99.1789 32.8762 99.6453 32.7914 100.115 32.7999Z" fill="#909090"/>
<path d="M102.864 42.4368H97.3633V62.96H102.864V42.4368Z" fill="#909090"/>
<path fill-rule="evenodd" clip-rule="evenodd" d="M125.606 58.7695C124.564 60.2531 123.166 61.4527 121.539 62.2585C119.911 63.0644 118.107 63.4508 116.291 63.3823C114.858 63.4185 113.432 63.1682 112.098 62.6462C110.763 62.1243 109.548 61.3412 108.522 60.3432C107.497 59.3453 106.682 58.1527 106.127 56.836C105.572 55.5193 105.288 54.1051 105.291 52.677C105.293 51.2488 105.583 49.8358 106.144 48.5212C106.704 47.2066 107.523 46.0173 108.552 45.0233C109.581 44.0293 110.8 43.251 112.137 42.7342C113.473 42.2173 114.9 41.9726 116.333 42.0143C117.99 42.002 119.628 42.3651 121.123 43.076C122.619 43.787 123.933 44.8273 124.965 46.1183L121.072 49.5455C120.529 48.7963 119.818 48.1841 118.995 47.7579C118.172 47.3317 117.26 47.1034 116.333 47.0911C115.595 47.0881 114.865 47.2325 114.184 47.5158C113.504 47.7991 112.887 48.2154 112.371 48.7403C111.855 49.2651 111.45 49.8877 111.18 50.5713C110.91 51.2549 110.78 51.9855 110.798 52.7199C110.774 53.4654 110.904 54.2079 111.181 54.9007C111.459 55.5935 111.877 56.2218 112.409 56.7462C112.942 57.2705 113.577 57.6795 114.276 57.9476C114.974 58.2156 115.721 58.337 116.469 58.3039C117.447 58.2846 118.405 58.0278 119.26 57.5561C120.115 57.0843 120.842 56.4117 121.377 55.5967L125.606 58.7695Z" fill="#909090"/>
<path fill-rule="evenodd" clip-rule="evenodd" d="M145.589 59.7007C144.53 60.8773 143.231 61.8145 141.778 62.4492C140.326 63.084 138.754 63.4016 137.168 63.3807C135.743 63.4468 134.319 63.2166 132.988 62.7048C131.657 62.193 130.448 61.4107 129.437 60.4077C128.426 59.4048 127.636 58.2031 127.116 56.8793C126.597 55.5554 126.36 54.1384 126.42 52.7183C126.42 47.0047 130.313 42.0127 136.407 42.0127C142.076 42.0127 146.096 46.7935 146.096 52.5055C146.1 53.0303 146.057 53.5544 145.969 54.0719H131.751C131.88 55.4333 132.526 56.6942 133.556 57.5982C134.586 58.5021 135.923 58.9811 137.295 58.9375C138.271 58.9089 139.232 58.6844 140.119 58.2772C141.006 57.87 141.802 57.2886 142.458 56.5679L145.589 59.7007ZM140.469 50.0543C140.35 49.0639 139.871 48.1511 139.122 47.4885C138.374 46.8258 137.408 46.459 136.407 46.4575C135.367 46.4514 134.358 46.8076 133.555 47.4645C132.751 48.1213 132.203 49.0375 132.006 50.0543H140.469Z" fill="#909090"/>
<path fill-rule="evenodd" clip-rule="evenodd" d="M148.284 62.9601V42.4369H153.572V44.0865C155.201 42.7408 157.253 42.0075 159.369 42.0145C160.724 42.0107 162.064 42.3045 163.293 42.875C164.522 43.4455 165.61 44.2786 166.479 45.3153C168.061 47.3682 168.815 49.9364 168.594 52.5153V62.9601H163.093V52.0801C163.17 51.3883 163.101 50.6882 162.89 50.0248C162.678 49.3614 162.33 48.7496 161.866 48.2289C161.029 47.4566 159.918 47.0459 158.778 47.0865C157.809 47.1149 156.858 47.3575 155.994 47.7966C155.131 48.2357 154.376 48.8605 153.784 49.6257V62.9601H148.284Z" fill="#909090"/>
<path fill-rule="evenodd" clip-rule="evenodd" d="M182.76 42.0144C180.346 42.0094 177.987 42.7268 175.987 44.0736C173.988 45.4204 172.441 47.3344 171.547 49.5677C170.652 51.8009 170.452 54.2503 170.972 56.5983C171.491 58.9462 172.707 61.0846 174.461 62.736C174.872 63.1263 175.411 63.357 175.978 63.3864C176.545 63.4157 177.105 63.2418 177.554 62.896C179.038 61.7958 180.839 61.2016 182.689 61.2016C184.539 61.2016 186.339 61.7958 187.823 62.896C188.278 63.2426 188.842 63.415 189.413 63.3818C189.984 63.3486 190.524 63.112 190.934 62.7152C192.675 61.0699 193.882 58.9443 194.402 56.6108C194.922 54.2774 194.731 51.8424 193.852 49.618C192.974 47.3937 191.449 45.4813 189.473 44.126C187.496 42.7708 185.159 42.0344 182.76 42.0112M182.689 60C181.896 60.0214 181.106 59.8815 180.369 59.5889C179.632 59.2964 178.962 58.8572 178.401 58.2983C177.84 57.7394 177.399 57.0724 177.105 56.3381C176.811 55.6038 176.671 54.8175 176.692 54.0272C176.692 52.4427 177.324 50.9231 178.448 49.8027C179.573 48.6823 181.098 48.0528 182.689 48.0528C184.279 48.0528 185.805 48.6823 186.929 49.8027C188.054 50.9231 188.686 52.4427 188.686 54.0272C188.707 54.8175 188.567 55.6038 188.273 56.3381C187.979 57.0724 187.538 57.7394 186.977 58.2983C186.415 58.8572 185.746 59.2964 185.009 59.5889C184.271 59.8815 183.482 60.0214 182.689 60Z" fill="#909090"/>
<path fill-rule="evenodd" clip-rule="evenodd" d="M205.569 62.96H201.472L193.302 42.4368H198.794L203.274 54.1648L207.666 42.4368H212.256L216.609 54.1648L221.127 42.4368H226.621L218.451 62.96H214.354L209.961 51.2736L205.569 62.96Z" fill="#909090"/>
<path d="M226.683 60.6399H226.219V61.5087H225.824V59.1311H226.788C226.889 59.1307 226.989 59.1502 227.082 59.1885C227.175 59.2267 227.26 59.2831 227.332 59.3542C227.403 59.4253 227.46 59.5098 227.498 59.6027C227.536 59.6957 227.556 59.7954 227.556 59.8959C227.554 60.045 227.509 60.1903 227.424 60.3134C227.34 60.4365 227.221 60.5318 227.082 60.5871L227.625 61.5135H227.194L226.683 60.6399ZM226.219 60.2895H226.788C226.894 60.2895 226.996 60.2474 227.072 60.1724C227.147 60.0973 227.189 59.9956 227.189 59.8895C227.189 59.7834 227.147 59.6817 227.072 59.6067C226.996 59.5317 226.894 59.4895 226.788 59.4895H226.224L226.219 60.2895Z" fill="#909090"/>
<path d="M226.627 58.1569C227.065 58.1566 227.494 58.2857 227.858 58.528C228.223 58.7702 228.507 59.1147 228.675 59.5178C228.842 59.921 228.887 60.3647 228.801 60.7928C228.716 61.2209 228.505 61.6142 228.196 61.9229C227.886 62.2316 227.491 62.4419 227.062 62.5272C226.632 62.6125 226.187 62.5689 225.782 62.4019C225.377 62.235 225.031 61.9522 224.788 61.5893C224.544 61.2264 224.414 60.7998 224.414 60.3633C224.415 59.7787 224.648 59.2182 225.063 58.8046C225.478 58.3911 226.04 58.1582 226.627 58.1569ZM226.627 57.8081C226.119 57.8081 225.622 57.9582 225.2 58.2395C224.777 58.5208 224.448 58.9207 224.253 59.3884C224.059 59.8562 224.008 60.3709 224.107 60.8675C224.206 61.3641 224.451 61.8203 224.81 62.1783C225.17 62.5363 225.628 62.7801 226.126 62.8789C226.624 62.9777 227.141 62.927 227.611 62.7332C228.08 62.5395 228.482 62.2114 228.764 61.7904C229.046 61.3694 229.197 60.8744 229.197 60.3681C229.197 59.6892 228.926 59.038 228.444 58.5579C227.962 58.0778 227.309 57.8081 226.627 57.8081Z" fill="#909090"/>
</g>
<defs>
<clipPath id="clip0_2048_146">
<rect width="212" height="32" fill="white" transform="translate(18 32)"/>
</clipPath>
</defs>
</svg>
