<svg width="248" height="96" viewBox="0 0 248 96" fill="none" xmlns="http://www.w3.org/2000/svg">
<path d="M63.2249 3.10891C62.145 3.41613 61.3257 4.07714 60.8416 5.05468C59.8361 7.10287 60.6088 9.39312 62.6291 10.3427C64.8914 11.4041 67.6099 9.9331 68.0754 7.4101C68.2988 6.20912 67.8333 4.97089 66.7999 4.00266C66.4089 3.63026 66.0365 3.3882 65.6734 3.24855C64.9659 2.97857 63.9045 2.92271 63.2249 3.10891Z" fill="#F0F0F0"/>
<path d="M79.8617 19.262C78.6794 19.4668 77.5436 20.3326 76.985 21.4685C76.6964 22.055 76.6777 22.1574 76.6777 23.0325C76.687 23.7773 76.7243 24.0659 76.9012 24.5035C77.1991 25.2669 78.0463 26.1514 78.847 26.5424C79.4335 26.831 79.5266 26.8496 80.4948 26.8496C81.4724 26.8496 81.5468 26.831 82.1427 26.5331C83.7998 25.7045 84.7122 23.768 84.2188 22.0922C84.0047 21.3381 83.7067 20.8633 83.0737 20.2675C82.422 19.6437 82.1054 19.4761 81.3048 19.2992C80.6158 19.1596 80.5134 19.1596 79.8617 19.262Z" fill="#F0F0F0"/>
<path d="M118.665 30.8059C116.18 31.1318 114.225 32.4817 113.219 34.5765C112.381 36.3174 112.195 37.5929 112.195 41.8569V44.4916L109.523 44.5102L106.842 44.5381V46.0743C106.842 46.9215 106.87 47.7221 106.916 47.8618C107.009 48.2155 107.503 48.7462 107.922 48.9697C108.238 49.1279 108.48 49.1465 110.24 49.1465H112.195V58.4099V67.6733H114.755H117.315V58.4099V49.1465H121.365H125.415L125.397 46.8377L125.369 44.5381L121.393 44.5102L117.409 44.4916V41.531C117.409 38.4122 117.483 37.7139 117.855 36.9877C118.07 36.5688 118.544 36.1033 118.954 35.8985C119.969 35.3864 122.427 35.6192 124.587 36.4291C125.061 36.606 125.471 36.7457 125.48 36.7271C125.564 36.6433 126.439 32.6214 126.402 32.519C126.337 32.3328 124.838 31.6066 123.963 31.3366C123.553 31.2063 122.874 31.0387 122.464 30.9549C121.514 30.778 119.513 30.6942 118.665 30.8059Z" fill="#F0F0F0"/>
<path d="M66.2427 32.0072C65.2093 32.3889 64.5203 33.0313 64.0269 34.0554C63.7569 34.6233 63.7383 34.7444 63.7383 35.6474C63.7383 36.5505 63.7569 36.6715 64.0362 37.2487C64.4179 38.068 65.0603 38.7383 65.7772 39.0921C67.7881 40.0697 70.097 39.2224 71.0745 37.1649C71.3445 36.5877 71.3724 36.4481 71.3724 35.6474C71.3724 34.8468 71.3445 34.7071 71.0745 34.1299C70.6835 33.3013 69.9666 32.5565 69.1939 32.1841C68.6539 31.9141 68.4957 31.8769 67.6578 31.8583C66.9316 31.8397 66.6151 31.8769 66.2427 32.0072Z" fill="#F0F0F0"/>
<path d="M24.6823 44.1657C23.0252 44.5195 21.9266 45.0967 20.8001 46.2232L19.9343 47.0797V45.7856V44.4916H17.4671H15V56.0825V67.6733H17.5137H20.0274V61.2215C20.0274 57.5441 20.0646 54.4346 20.1205 53.9691C20.3998 51.5113 21.6101 49.7982 23.5652 49.0814C24.2075 48.8393 24.3751 48.8207 25.5668 48.8207C26.2837 48.8207 27.1867 48.8579 27.5871 48.9045C28.518 49.0069 28.8998 48.9324 29.3373 48.5228C29.6259 48.2714 29.747 48.0573 29.8866 47.5732C30.1845 46.577 30.65 44.6591 30.6128 44.6219C30.5942 44.594 30.1566 44.4729 29.6539 44.3426C28.8532 44.1285 28.5087 44.0912 27.0098 44.0633C25.7809 44.0447 25.1106 44.0726 24.6823 44.1657Z" fill="#F0F0F0"/>
<path d="M42.5208 44.1755C38.0986 44.9762 34.6725 48.244 33.5274 52.7407C32.1867 57.9729 33.9929 63.3447 38.0427 66.2029C39.9792 67.5714 42.1484 68.2324 44.69 68.2324C47.455 68.2324 49.5498 67.3945 51.2907 65.5977L51.9611 64.8995V66.2866V67.6738H54.5213H57.0815L57.0629 56.1016L57.035 44.5386L54.5027 44.5107L51.9611 44.4921V45.9258V47.3595L51.3838 46.7544C50.006 45.3206 48.5722 44.5386 46.6544 44.1755C45.6955 43.9893 43.5356 43.9893 42.5208 44.1755ZM47.1758 48.8677C49.1122 49.3705 50.7973 50.8228 51.6445 52.7407C52.5104 54.6958 52.4917 57.4701 51.5887 59.4438C50.5087 61.8365 48.3954 63.2516 45.7141 63.3633C44.2897 63.4285 43.368 63.2516 42.1856 62.6744C41.4408 62.3206 41.1708 62.1251 40.5005 61.4455C39.8395 60.7752 39.6254 60.4772 39.2623 59.7511C38.6199 58.4477 38.443 57.6563 38.4337 56.0829C38.4244 54.1372 38.8433 52.7127 39.8395 51.3349C41.4501 49.1005 44.3083 48.1322 47.1758 48.8677Z" fill="#F0F0F0"/>
<path d="M88.1379 44.175C86.276 44.5381 84.656 45.4598 83.6412 46.7166C83.3992 47.0239 83.1664 47.2752 83.1292 47.2752C83.0826 47.2846 83.0547 46.6515 83.0547 45.8881V44.4916H80.541H78.0273V56.0825V67.6733H80.5317H83.0454L83.0733 60.7654C83.1106 53.9877 83.1106 53.8294 83.3154 53.1219C83.8647 51.1482 85.196 49.7238 87.058 49.1372C87.8307 48.8859 89.3855 48.8021 90.2885 48.9603C92.0947 49.2583 93.5098 50.5151 94.087 52.3212C94.4594 53.5036 94.506 54.537 94.506 61.3053V67.6733H97.0196H99.5426L99.5147 59.5923L99.4868 51.5206L99.2354 50.6268C98.7513 48.8486 98.053 47.6569 96.7683 46.4373C95.5673 45.2922 94.1522 44.5754 92.374 44.2123C91.2754 43.9888 89.162 43.9702 88.1379 44.175Z" fill="#F0F0F0"/>
<path d="M139.194 44.0729C139.12 44.0915 138.738 44.1567 138.356 44.2126C135.219 44.7153 132.156 46.6797 130.415 49.3051C129.018 51.3999 128.395 53.5039 128.395 56.1293C128.395 58.7268 129.028 60.8774 130.396 62.9256C132.23 65.6906 135.219 67.5526 138.71 68.1019C140.032 68.3067 142.583 68.2416 143.765 67.9623C146.139 67.413 148.048 66.4168 149.64 64.8993C152.256 62.3949 153.569 58.8106 153.243 55.0587C152.815 50.143 149.742 46.2235 145.106 44.6874C143.56 44.1753 142.536 44.0264 140.786 44.0357C139.985 44.045 139.269 44.0636 139.194 44.0729ZM143.058 48.9979C145.022 49.5285 146.623 50.8878 147.48 52.7312C147.955 53.746 148.132 54.4908 148.197 55.7569C148.355 59.2109 146.428 62.1156 143.244 63.1769C142.564 63.4097 142.378 63.4283 140.963 63.4376C139.604 63.4376 139.343 63.4097 138.729 63.2235C137.481 62.8325 136.625 62.3204 135.749 61.436C134.52 60.2164 133.878 58.8106 133.711 56.9951C133.347 52.9825 135.554 49.752 139.241 48.9048C139.995 48.7372 142.294 48.7838 143.058 48.9979Z" fill="#F0F0F0"/>
<path d="M168.056 44.1659C164.686 44.7338 162.005 46.4282 160.152 49.1746C159.677 49.8729 158.97 51.4369 158.7 52.3586C158.355 53.5596 158.188 54.7885 158.188 56.1943C158.188 62.4227 162.098 67.1242 168.103 68.0924C169.201 68.2693 171.342 68.2693 172.394 68.0924C174.685 67.6921 176.686 66.7052 178.297 65.1784C178.614 64.8712 178.856 64.564 178.837 64.4988C178.818 64.4336 178.129 63.6143 177.319 62.6834L175.839 60.9889L175.411 61.3334C173.018 63.3071 170.048 63.9216 167.591 62.9533C166.082 62.3482 164.816 61.1844 164.099 59.7228C163.457 58.4194 163.28 57.6467 163.28 56.036C163.28 54.9468 163.327 54.5465 163.485 53.9413C164.276 50.9901 166.408 49.0629 169.294 48.6812C171.203 48.4298 173.065 49.007 174.843 50.4128L175.625 51.0273L175.97 50.6735C176.156 50.4687 176.863 49.7146 177.543 48.9884C178.967 47.4616 178.949 47.6105 177.906 46.7168C176.305 45.3389 174.517 44.5103 172.404 44.1659C171.37 43.9983 169.043 43.9983 168.056 44.1659Z" fill="#F0F0F0"/>
<path d="M219.354 44.2125C216.058 44.799 213.814 46.419 212.93 48.8675C212.278 50.655 212.353 52.7683 213.116 54.2672C213.423 54.8724 214.122 55.7196 214.671 56.1479C216.235 57.3768 217.929 57.9261 221.681 58.4102C223.683 58.6802 224.474 58.8477 225.182 59.155C227.258 60.0673 227.202 62.339 225.079 63.3351C224.297 63.7075 223.329 63.8751 221.812 63.931C218.786 64.0241 216.524 63.4748 214.587 62.19L213.787 61.65L212.707 63.4096C212.111 64.3685 211.599 65.2157 211.571 65.2902C211.45 65.6161 213.88 66.9474 215.555 67.4781C217.864 68.2042 220.369 68.5022 222.715 68.3253C226.113 68.0739 228.515 67.115 230.2 65.3368C231.289 64.1917 231.885 62.7858 231.987 61.1566C232.118 58.9688 231.261 57.1068 229.567 55.9058C227.984 54.7886 226.392 54.2859 222.752 53.7552C220.192 53.3828 219.633 53.2618 218.814 52.8614C218.069 52.4984 217.753 52.0608 217.697 51.2974C217.604 50.0126 218.563 49.0071 220.285 48.5789C221.123 48.3647 223.469 48.4206 224.661 48.672C225.973 48.9513 227.342 49.4168 228.385 49.9381C228.859 50.1709 229.25 50.3571 229.269 50.3384C229.288 50.3198 229.781 49.4354 230.377 48.3647C231.187 46.9031 231.429 46.391 231.345 46.3352C230.926 46.0466 229.288 45.2925 228.515 45.0225C226.485 44.3149 224.549 44.0263 222.026 44.0356C220.816 44.0356 220.052 44.0915 219.354 44.2125Z" fill="#F0F0F0"/>
<path d="M64.9941 56.0825V67.6733H67.5544H70.1146L70.096 56.1011L70.0681 44.5381L67.5358 44.5102L64.9941 44.4916V56.0825Z" fill="#F0F0F0"/>
<path d="M184.348 51.7906C184.348 59.2479 184.376 59.8344 184.72 61.203C185.856 65.6345 189.785 68.353 195.054 68.353C196.59 68.353 197.68 68.1854 198.983 67.7665C202.865 66.519 205.23 63.5212 205.667 59.2851C205.723 58.7265 205.761 55.5425 205.761 51.4182V44.4916H203.2H200.649L200.612 51.8186C200.584 59.9368 200.612 59.5365 199.96 60.8771C199.607 61.594 198.759 62.4878 198.061 62.8602C196.479 63.7074 193.546 63.7074 191.954 62.8602C191.218 62.4691 190.483 61.6871 190.092 60.8771C189.422 59.5272 189.44 59.7041 189.403 51.6789L189.366 44.4916H186.852H184.348V51.7906Z" fill="#F0F0F0"/>
</svg>
