<svg width="248" height="96" viewBox="0 0 248 96" fill="none" xmlns="http://www.w3.org/2000/svg">
<g clip-path="url(#clip0_712_1016)">
<path d="M94.3361 56.1235C94.3361 60.892 89.7189 64.2191 83.1017 64.2191C77.3072 64.2191 73.6191 61.896 71.5446 59.9509L71.0269 59.4646L73.6652 56.9527L74.1369 57.404C76.4809 59.6255 79.6619 60.8465 83.0982 60.8465C87.4352 60.8465 90.2402 59.0553 90.2402 56.2775C90.2402 53.4996 88.2189 52.5935 84.9174 51.3656L80.0449 49.5673C77.9313 48.7802 72.9844 46.933 72.9844 42.1225C72.9844 37.7564 77.332 34.5938 83.3251 34.5938C87.0486 34.5938 90.5771 35.8602 92.9992 38.0678L93.5276 38.5506L91.0417 40.94L90.5665 40.5342C88.5806 38.8304 86.1444 37.9663 83.3251 37.9663C79.5307 37.9663 77.0767 39.5231 77.0767 41.9336C77.0767 44.5785 79.903 45.607 82.1761 46.4327L87.0522 48.2309C90.5771 49.5463 94.3361 51.3516 94.3361 56.1235Z" fill="#909090"/>
<path d="M122.17 35.0762V52.3798C122.17 60.0135 117.957 64.2152 110.308 64.2152C102.659 64.2152 98.4922 60.0135 98.4922 52.3798V35.0762H102.542V52.2678C102.542 57.9599 105.156 60.8426 110.308 60.8426C115.461 60.8426 118.252 57.9564 118.252 52.2678V35.0762H122.167H122.17Z" fill="#909090"/>
<path d="M151.459 35.0762V63.7289H147.646L134.164 44.6376L131.639 40.8732C131.639 40.9047 131.639 40.9397 131.646 40.9746C131.759 42.8149 131.876 44.7145 131.876 46.6877V63.7289H127.961V35.0762H131.77L145.299 54.1255L147.76 57.8689C147.639 55.9027 147.54 53.9086 147.54 51.9284V35.0762H151.455H151.459Z" fill="#909090"/>
<path d="M178.545 38.9105C175.853 36.3671 171.917 35.0762 166.849 35.0762H158.477V63.7289H166.895C176.793 63.7289 182.467 58.4741 182.467 49.3116C182.467 44.872 181.147 41.37 178.545 38.914V38.9105ZM162.523 38.2948H166.58C174.236 38.2948 178.282 42.1047 178.282 49.3081C178.282 54.3984 176.25 60.4718 166.58 60.4718H162.523V38.2948Z" fill="#909090"/>
<path d="M207.304 60.4333V63.7289H187.428V35.0762H206.815V38.3333H191.478V46.9466H204.396V50.2072H191.478V60.4333H207.304Z" fill="#909090"/>
<path d="M226.067 51.0363C230.94 50.0882 233.709 47.223 233.709 43.0528C233.709 36.4581 227.429 35.0762 222.159 35.0762H211.953V63.7289H215.999V51.4072H221.62L230.294 63.7289H234.996L226.063 51.0398L226.067 51.0363ZM216.003 38.2948H221.535C225.532 38.2948 229.617 38.8615 229.617 43.0528C229.617 46.4568 226.897 48.1851 221.535 48.1851H216.003V38.2948Z" fill="#909090"/>
<path d="M15.6242 46.1216H13.0532L13.0674 45.8837C13.9043 33.0512 24.7699 23 37.8093 23C50.8488 23 61.7143 33.0512 62.5513 45.8837L62.569 46.1216H59.9944L59.9767 45.9117C59.1646 34.4856 49.4267 25.5329 37.8093 25.5329C26.1919 25.5329 16.4576 34.4856 15.642 45.9117L15.6278 46.1216H15.6242Z" fill="#909090"/>
<path d="M15.8442 58.958H59.718L59.53 59.2904C59.1222 60.0251 58.6577 60.7632 58.147 61.4874L58.0796 61.5854H17.4826L17.4152 61.4874C16.9046 60.7632 16.4365 60.0251 16.0286 59.2904L15.8442 58.958Z" fill="#909090"/>
<path d="M26.7911 69.4912H48.767L47.7741 69.9215C44.6109 71.2999 41.2455 71.9961 37.7773 71.9961C34.3091 71.9961 30.9473 71.2964 27.7805 69.9215L26.7876 69.4912H26.7911Z" fill="#909090"/>
<path d="M13.7803 53.6885H61.7818L61.7038 53.9719C61.4946 54.724 61.2534 55.4622 60.9839 56.1689L60.9272 56.3159H14.6314L14.5782 56.1689C14.3051 55.4622 14.064 54.7205 13.8583 53.9719L13.7803 53.6885Z" fill="#909090"/>
<path d="M19.6489 64.2266H55.9125L55.5366 64.6114C54.7671 65.3881 53.9302 66.1297 53.0507 66.8085L52.9904 66.8574H22.571L22.5107 66.8085C21.6313 66.1297 20.7944 65.3916 20.0248 64.6114L19.6489 64.2266Z" fill="#909090"/>
<path d="M13 48.4238H62.5619L62.5512 48.6582C62.5193 49.3649 62.4519 50.1031 62.3455 50.8553L62.3207 51.0512H13.2411L13.2128 50.8553C13.1099 50.1031 13.0426 49.3649 13.0106 48.6582L13 48.4238Z" fill="#909090"/>
</g>
<defs>
<clipPath id="clip0_712_1016">
<rect width="222" height="49" fill="white" transform="translate(13 23)"/>
</clipPath>
</defs>
</svg>
