<svg width="248" height="96" viewBox="0 0 248 96" fill="none" xmlns="http://www.w3.org/2000/svg">
<path d="M93.4085 62.6022H87.101L92.5449 51.5753H92.62L93.4085 62.6022ZM93.7088 67.5699L94.0843 71.9355H100.992L98.7022 46.457H88.4151L75.3872 71.9355H82.4455L84.6231 67.5699H93.7088Z" fill="#909090"/>
<path d="M110.679 60.7957H111.692L116.648 54.0968H123.031L116.198 62.6775L120.403 71.9355H113.607L110.867 64.7097H109.853L108.314 71.9355H102.494L107.863 46.457H113.72L110.679 60.7957Z" fill="#909090"/>
<path d="M130.502 64.5592C132.417 64.5592 133.656 64.7098 133.356 66.1775C132.943 68.0592 132.154 68.3603 129.714 68.3603C128.813 68.3603 127.161 68.3603 127.574 66.441C127.912 64.8227 129.075 64.5592 130.502 64.5592ZM132.117 71.9356H137.936L140.301 60.7958C141.615 54.6614 139.25 53.9087 133.28 53.9087C129.113 53.9087 125.096 53.8711 123.894 59.4033H129.714C130.052 57.785 131.028 57.484 132.492 57.484C135.045 57.484 134.932 58.5377 134.557 60.1936L133.956 63.0162H133.693C133.468 60.984 130.915 61.0216 129.263 61.0216C125.058 61.0216 122.543 62.3388 121.642 66.6291C120.666 71.1829 122.843 72.1614 126.898 72.1614C128.925 72.1614 131.666 71.7474 132.605 69.3012H132.792L132.117 71.9356Z" fill="#909090"/>
<path d="M149.725 54.0969L149.199 56.6184H149.425C150.588 54.5108 152.879 53.9087 154.868 53.9087C157.384 53.9087 159.862 54.3603 159.524 57.4087H159.787C160.65 54.8496 163.241 53.9087 165.494 53.9087C169.586 53.9087 171.35 55.6022 170.449 59.742L167.859 71.9356H162.039L164.217 61.6237C164.517 59.742 164.818 58.3872 162.565 58.3872C160.312 58.3872 159.524 59.8926 159.149 61.8119L157.009 71.9356H151.189L153.479 61.1345C153.742 59.5162 153.892 58.3872 151.865 58.3872C149.462 58.3872 148.749 59.6668 148.298 61.8119L146.158 71.9356H140.339L144.131 54.0969H149.725Z" fill="#909090"/>
<path d="M179.61 64.5592C181.487 64.5592 182.764 64.7098 182.464 66.1775C182.088 68.0592 181.262 68.3603 178.822 68.3603C177.958 68.3603 176.269 68.3603 176.682 66.441C177.02 64.8227 178.184 64.5592 179.61 64.5592ZM181.225 71.9356H187.044L189.409 60.7958C190.723 54.6614 188.358 53.9087 182.388 53.9087C178.221 53.9087 174.166 53.8711 173.002 59.4033H178.822C179.16 57.785 180.136 57.484 181.6 57.484C184.153 57.484 184.04 58.5377 183.665 60.1936L183.139 63.0162H182.877C182.651 60.984 180.098 61.0216 178.446 61.0216C174.241 61.0216 171.726 62.3388 170.825 66.6291C169.849 71.1829 172.026 72.1614 176.081 72.1614C178.108 72.1614 180.849 71.7474 181.825 69.3012H182.013L181.225 71.9356Z" fill="#909090"/>
<path d="M195.454 71.9356H189.634L193.389 54.0969H199.208L195.454 71.9356Z" fill="#909090"/>
<path d="M78.3531 78.1075C65.4379 74.1559 56.0143 62.1881 56.0143 48.0376C56.0143 33.6989 65.6256 21.6182 78.7661 17.8172C80.1177 17.4408 79.7423 16.5376 78.1279 16.5376C60.6698 16.5376 46.478 30.6505 46.478 48.0376C46.478 65.4247 60.6322 79.5 78.1279 79.5C79.7423 79.5 79.8173 78.5591 78.3531 78.1075Z" fill="#909090"/>
<path d="M62.0215 55.3763C61.9464 54.5483 61.8713 53.6827 61.8713 52.8171C61.8713 39.0053 73.022 27.8279 86.8007 27.8279C99.8286 27.8279 103.733 33.6612 104.221 33.2849C104.747 32.8709 99.4907 21.3171 84.2102 21.3171C70.4314 21.3171 59.2808 32.4946 59.2808 46.3064C59.2808 49.5053 59.8815 52.5537 60.9703 55.3386C61.4208 56.5429 62.1341 56.5429 62.0215 55.3763Z" fill="#909090"/>
<path d="M72.4587 37.387C78.9163 34.5644 87.0634 34.4891 95.0603 37.2741C100.429 39.1558 103.545 41.8278 103.808 41.7149C104.221 41.5267 100.692 35.8816 94.2719 33.473C86.5002 30.5375 78.1654 32.0805 72.0832 36.8601C71.4074 37.387 71.6702 37.7257 72.4587 37.387Z" fill="#909090"/>
<path d="M200.522 49.1665C200.522 50.973 199.058 52.4407 197.256 52.4407C195.453 52.4407 193.989 50.973 193.989 49.1665C193.989 47.3601 195.453 45.8923 197.256 45.8923C199.058 45.8923 200.522 47.3601 200.522 49.1665Z" fill="#909090"/>
</svg>
