<svg width="248" height="96" viewBox="0 0 248 96" fill="none" xmlns="http://www.w3.org/2000/svg">
<path d="M188.445 40.4325C188.445 38.7824 187.159 37.4736 185.532 37.4736H151.871C145.707 37.4736 140.765 42.2894 140.765 48.5511C140.765 54.8127 145.776 59.5587 151.871 59.5587H178.894C181.534 59.5587 183.635 62.0364 183.635 64.6486C183.635 67.3306 181.468 69.7385 178.894 69.7385H145.233C143.609 69.7385 142.32 71.0446 142.32 72.6974C142.32 74.3501 143.606 75.6562 145.233 75.6562H178.894C185.058 75.6562 190 70.8404 190 64.6486C190 58.387 184.99 53.641 178.894 53.641H151.871C149.231 53.641 147.13 51.1632 147.13 48.5511C147.13 45.8691 149.297 43.4612 151.871 43.4612H185.532C187.156 43.4612 188.445 42.0852 188.445 40.4351V40.4325Z" fill="#909090"/>
<path d="M129.113 24.3348C129.113 21.9269 127.216 20 124.846 20C122.475 20 120.578 21.9269 120.578 24.3348C120.578 26.7427 122.475 28.6695 124.846 28.6695C127.216 28.5997 129.113 26.6755 129.113 24.3348Z" fill="#909090"/>
<path d="M115.567 24.3348C115.567 21.9269 113.67 20 111.3 20C108.929 20 107.032 21.9269 107.032 24.3348C107.032 26.7427 108.929 28.6695 111.3 28.6695C113.67 28.5997 115.567 26.6755 115.567 24.3348Z" fill="#909090"/>
<path d="M102.021 24.3348C102.021 21.9269 100.124 20 97.7538 20C95.3833 20 93.4863 21.9269 93.4863 24.3348C93.4863 26.7427 95.3833 28.6695 97.7538 28.6695C100.124 28.5997 102.021 26.6755 102.021 24.3348Z" fill="#909090"/>
<path d="M88.5437 24.3348C88.5437 21.9269 86.6468 20 84.2762 20C81.9057 20 80.0088 21.9269 80.0088 24.3348C80.0088 26.7427 81.9057 28.6695 84.2762 28.6695C86.6468 28.5997 88.5437 26.6755 88.5437 24.3348Z" fill="#909090"/>
<path d="M74.9988 24.3348C74.9988 21.9269 73.1018 20 70.7313 20C68.3608 20 66.4639 21.9269 66.4639 24.3348C66.4639 26.7427 68.3608 28.6695 70.7313 28.6695C73.1018 28.5997 74.9988 26.6755 74.9988 24.3348Z" fill="#909090"/>
<path d="M106.019 37.4736C105.95 37.4736 105.815 37.4736 105.749 37.4736H77.099C65.72 37.4736 58 45.0413 58 56.5998V72.7672C58 74.557 59.4234 76.0002 61.1827 76.0002C62.9421 76.0002 64.3655 74.5544 64.3655 72.7672V56.5998C64.3655 48.6183 69.1065 43.3913 77.099 43.3913H105.749C105.818 43.3913 105.953 43.3913 106.019 43.3913C107.643 43.3913 108.932 42.0852 108.932 40.4325C108.932 38.8496 107.646 37.4736 106.019 37.4736Z" fill="#909090"/>
<path d="M67.6143 56.5995C67.6143 58.2495 68.9 59.5583 70.5271 59.5583H99.7194C101.344 59.5583 102.632 58.2522 102.632 56.5995C102.632 54.9467 101.346 53.6406 99.7194 53.6406H70.5271C68.9027 53.6406 67.6143 55.0166 67.6143 56.5995Z" fill="#909090"/>
<path d="M121.662 40.4322V72.7669C121.662 74.5567 123.085 75.9999 124.845 75.9999C126.604 75.9999 128.028 74.554 128.028 72.7669V40.4322C128.028 38.6424 126.604 37.1992 124.845 37.1992C123.083 37.2691 121.662 38.7122 121.662 40.4322Z" fill="#909090"/>
</svg>
