<svg width="248" height="96" viewBox="0 0 248 96" fill="none" xmlns="http://www.w3.org/2000/svg">
<path d="M38.9551 48.962C39.6304 48.962 40.1778 48.4146 40.1778 47.7393C40.1778 47.064 39.6304 46.5166 38.9551 46.5166C38.2798 46.5166 37.7324 47.064 37.7324 47.7393C37.7324 48.4146 38.2798 48.962 38.9551 48.962Z" fill="#909090"/>
<path d="M20.0177 48.7589C20.2189 48.7589 20.4157 48.6993 20.583 48.5874C20.7504 48.4756 20.8808 48.3167 20.9578 48.1307C21.0349 47.9448 21.055 47.7402 21.0158 47.5428C20.9765 47.3454 20.8796 47.164 20.7372 47.0217C20.5949 46.8794 20.4136 46.7825 20.2162 46.7432C20.0188 46.7039 19.8142 46.7241 19.6282 46.8011C19.4423 46.8781 19.2833 47.0086 19.1715 47.1759C19.0597 47.3433 19 47.54 19 47.7413C19.0004 48.0111 19.1078 48.2697 19.2985 48.4604C19.4893 48.6512 19.7479 48.7585 20.0177 48.7589Z" fill="#909090"/>
<path d="M39.418 57.9054C40.0933 57.9054 40.6407 57.3579 40.6407 56.6827C40.6407 56.0074 40.0933 55.46 39.418 55.46C38.7427 55.46 38.1953 56.0074 38.1953 56.6827C38.1953 57.3579 38.7427 57.9054 39.418 57.9054Z" fill="#909090"/>
<path d="M20.6918 59.6723C20.8917 59.6512 21.0809 59.5714 21.2355 59.4429C21.3901 59.3144 21.5031 59.143 21.5605 58.9503C21.6178 58.7577 21.6167 58.5523 21.5575 58.3603C21.4982 58.1682 21.3834 57.998 21.2275 57.871C21.0716 57.7441 20.8817 57.6662 20.6816 57.6472C20.4814 57.6281 20.2802 57.6687 20.1031 57.7639C19.9261 57.8591 19.7812 58.0046 19.6867 58.182C19.5923 58.3595 19.5525 58.5609 19.5724 58.7609C19.5858 58.8943 19.6255 59.0238 19.6891 59.1419C19.7527 59.2599 19.839 59.3643 19.9429 59.4489C20.0469 59.5336 20.1666 59.5969 20.2951 59.6352C20.4236 59.6736 20.5584 59.6861 20.6918 59.6723Z" fill="#909090"/>
<path d="M40.8155 66.7501C41.4908 66.7501 42.0382 66.2027 42.0382 65.5274C42.0382 64.8521 41.4908 64.3047 40.8155 64.3047C40.1402 64.3047 39.5928 64.8521 39.5928 65.5274C39.5928 66.2027 40.1402 66.7501 40.8155 66.7501Z" fill="#909090"/>
<path d="M22.5046 70.4576C22.7007 70.4143 22.8797 70.314 23.0189 70.1692C23.1581 70.0244 23.2513 69.8416 23.2868 69.6439C23.3224 69.4462 23.2986 69.2424 23.2185 69.0582C23.1384 68.874 23.0056 68.7176 22.8368 68.6087C22.668 68.4999 22.4708 68.4434 22.27 68.4464C22.0691 68.4494 21.8736 68.5118 21.7082 68.6257C21.5427 68.7396 21.4147 68.8999 21.3402 69.0864C21.2657 69.273 21.248 69.4774 21.2895 69.6739C21.3174 69.8054 21.3711 69.93 21.4473 70.0407C21.5236 70.1513 21.621 70.2457 21.734 70.3186C21.8469 70.3914 21.9731 70.4412 22.1054 70.4651C22.2376 70.489 22.3733 70.4864 22.5046 70.4576Z" fill="#909090"/>
<path d="M208.17 66.8341C208.845 66.8341 209.393 66.2867 209.393 65.6114C209.393 64.9361 208.845 64.3887 208.17 64.3887C207.495 64.3887 206.947 64.9361 206.947 65.6114C206.947 66.2867 207.495 66.8341 208.17 66.8341Z" fill="#909090"/>
<path d="M226.901 68.5535C226.704 68.5116 226.499 68.5291 226.312 68.6037C226.126 68.6782 225.965 68.8066 225.851 68.9724C225.737 69.1383 225.675 69.3342 225.672 69.5354C225.669 69.7366 225.726 69.9341 225.836 70.103C225.945 70.2718 226.103 70.4043 226.288 70.4838C226.472 70.5633 226.677 70.5862 226.875 70.5496C227.073 70.513 227.255 70.4185 227.399 70.2782C227.544 70.1378 227.643 69.9578 227.685 69.761C227.713 69.6303 227.715 69.4953 227.69 69.3638C227.666 69.2324 227.616 69.107 227.543 68.9949C227.47 68.8827 227.376 68.786 227.266 68.7103C227.156 68.6346 227.032 68.5813 226.901 68.5535Z" fill="#909090"/>
<path d="M209.574 57.9903C210.25 57.9903 210.797 57.4429 210.797 56.7676C210.797 56.0923 210.25 55.5449 209.574 55.5449C208.899 55.5449 208.352 56.0923 208.352 56.7676C208.352 57.4429 208.899 57.9903 209.574 57.9903Z" fill="#909090"/>
<path d="M228.513 57.7355C228.313 57.7156 228.111 57.7553 227.934 57.8498C227.756 57.9443 227.611 58.0893 227.516 58.2664C227.421 58.4436 227.38 58.6449 227.399 58.8451C227.418 59.0453 227.496 59.2353 227.623 59.3911C227.75 59.547 227.921 59.6617 228.113 59.7208C228.305 59.7799 228.511 59.7808 228.703 59.7232C228.896 59.6657 229.067 59.5524 229.196 59.3975C229.324 59.2427 229.404 59.0534 229.424 58.8534C229.438 58.7201 229.425 58.5855 229.387 58.4571C229.348 58.3288 229.285 58.2093 229.2 58.1055C229.116 58.0017 229.012 57.9156 228.894 57.8521C228.776 57.7886 228.646 57.749 228.513 57.7355Z" fill="#909090"/>
<path d="M210.048 49.0489C210.723 49.0489 211.271 48.5015 211.271 47.8262C211.271 47.1509 210.723 46.6035 210.048 46.6035C209.373 46.6035 208.825 47.1509 208.825 47.8262C208.825 48.5015 209.373 49.0489 210.048 49.0489Z" fill="#909090"/>
<path d="M228.982 46.8076C228.781 46.8076 228.584 46.8673 228.417 46.9791C228.25 47.0909 228.119 47.2499 228.042 47.4358C227.965 47.6218 227.945 47.8264 227.984 48.0238C228.024 48.2212 228.121 48.4025 228.263 48.5449C228.405 48.6872 228.587 48.7841 228.784 48.8234C228.981 48.8626 229.186 48.8425 229.372 48.7655C229.558 48.6884 229.717 48.558 229.829 48.3907C229.94 48.2233 230 48.0266 230 47.8253C230 47.5555 229.892 47.2969 229.702 47.1061C229.511 46.9154 229.252 46.808 228.982 46.8076Z" fill="#909090"/>
<path d="M209.583 40.1056C210.258 40.1056 210.806 39.5581 210.806 38.8829C210.806 38.2076 210.258 37.6602 209.583 37.6602C208.908 37.6602 208.36 38.2076 208.36 38.8829C208.36 39.5581 208.908 40.1056 209.583 40.1056Z" fill="#909090"/>
<path d="M228.307 35.8922C228.107 35.9133 227.918 35.9931 227.764 36.1216C227.609 36.25 227.496 36.4214 227.439 36.6141C227.381 36.8068 227.382 37.0121 227.442 37.2042C227.501 37.3963 227.616 37.5665 227.772 37.6934C227.928 37.8203 228.118 37.8982 228.318 37.9173C228.518 37.9363 228.719 37.8957 228.896 37.8005C229.073 37.7053 229.218 37.5599 229.312 37.3824C229.407 37.205 229.447 37.0035 229.427 36.8035C229.413 36.6701 229.374 36.5407 229.31 36.4226C229.246 36.3045 229.16 36.2002 229.056 36.1155C228.952 36.0309 228.833 35.9675 228.704 35.9292C228.576 35.8909 228.441 35.8783 228.307 35.8922Z" fill="#909090"/>
<path d="M208.188 31.2618C208.863 31.2618 209.41 30.7144 209.41 30.0391C209.41 29.3638 208.863 28.8164 208.188 28.8164C207.512 28.8164 206.965 29.3638 206.965 30.0391C206.965 30.7144 207.512 31.2618 208.188 31.2618Z" fill="#909090"/>
<path d="M226.498 25.106C226.301 25.1479 226.121 25.2471 225.981 25.3912C225.841 25.5354 225.746 25.7179 225.709 25.9157C225.673 26.1135 225.695 26.3178 225.775 26.5027C225.854 26.6876 225.987 26.8448 226.155 26.9545C226.324 27.0642 226.521 27.1214 226.723 27.1189C226.924 27.1165 227.12 27.0544 227.286 26.9406C227.451 26.8269 227.58 26.6664 227.655 26.4796C227.73 26.2929 227.747 26.0881 227.706 25.8912C227.65 25.6271 227.491 25.396 227.264 25.2488C227.038 25.1015 226.762 25.0502 226.498 25.106Z" fill="#909090"/>
<path d="M40.8321 31.1778C41.5074 31.1778 42.0548 30.6304 42.0548 29.9551C42.0548 29.2798 41.5074 28.7324 40.8321 28.7324C40.1568 28.7324 39.6094 29.2798 39.6094 29.9551C39.6094 30.6304 40.1568 31.1778 40.8321 31.1778Z" fill="#909090"/>
<path d="M22.0985 27.0131C22.2954 27.0549 22.5002 27.0374 22.6871 26.9629C22.874 26.8883 23.0347 26.76 23.1487 26.5942C23.2627 26.4283 23.325 26.2324 23.3276 26.0312C23.3303 25.8299 23.2732 25.6324 23.1637 25.4636C23.0541 25.2948 22.8969 25.1623 22.7121 25.0828C22.5272 25.0033 22.3229 24.9804 22.125 25.017C21.9271 25.0536 21.7445 25.148 21.6003 25.2884C21.4561 25.4288 21.3567 25.6087 21.3148 25.8056C21.2593 26.0696 21.3106 26.3447 21.4575 26.571C21.6044 26.7973 21.8348 26.9562 22.0985 27.0131Z" fill="#909090"/>
<path d="M39.4278 40.0206C40.1031 40.0206 40.6505 39.4732 40.6505 38.7979C40.6505 38.1226 40.1031 37.5752 39.4278 37.5752C38.7525 37.5752 38.2051 38.1226 38.2051 38.7979C38.2051 39.4732 38.7525 40.0206 39.4278 40.0206Z" fill="#909090"/>
<path d="M20.4889 37.8301C20.6889 37.85 20.8904 37.8102 21.0678 37.7157C21.2453 37.6213 21.3907 37.4764 21.4859 37.2994C21.5811 37.1223 21.6217 36.9211 21.6027 36.7209C21.5836 36.5208 21.5057 36.3308 21.3788 36.175C21.2519 36.0191 21.0817 35.9043 20.8896 35.845C20.6975 35.7858 20.4922 35.7847 20.2995 35.842C20.1068 35.8993 19.9354 36.0124 19.807 36.167C19.6785 36.3216 19.5987 36.5108 19.5776 36.7107C19.5639 36.844 19.5767 36.9788 19.6151 37.1072C19.6535 37.2356 19.7168 37.3552 19.8014 37.4591C19.886 37.5631 19.9903 37.6494 20.1083 37.713C20.2262 37.7767 20.3556 37.8165 20.4889 37.8301Z" fill="#909090"/>
<path d="M79.0264 28.0566H81.2758L83.6741 35.2835L86.2198 28.0566H87.7918L90.3375 35.2835L92.7358 28.0566H94.9853L91.1486 39.632H89.5765L86.9944 32.3065L84.4305 39.632H82.8585L79.0264 28.0566Z" fill="#909090"/>
<path d="M96.4717 39.632L101.432 28.0566H103.003L107.964 39.632H105.632L104.542 37.0697H99.8937L98.8017 39.632H96.4717ZM100.738 35.0845H103.682L102.212 31.6609L100.738 35.0845Z" fill="#909090"/>
<path d="M118.05 28.0566V30.0403H114.991V39.632H112.76V30.0403H109.701V28.0566H118.05Z" fill="#909090"/>
<path d="M123.175 33.8439C123.165 34.3662 123.26 34.8851 123.455 35.3699C123.649 35.8547 123.939 36.2953 124.308 36.6656C124.676 37.0359 125.116 37.3283 125.599 37.5254C126.083 37.7224 126.602 37.8202 127.124 37.8127C127.757 37.8199 128.383 37.6786 128.951 37.4C129.52 37.1215 130.015 36.7135 130.397 36.2088L131.934 37.5758C131.346 38.2908 130.603 38.862 129.76 39.2458C128.918 39.6296 127.999 39.8158 127.074 39.7903C126.276 39.8179 125.481 39.685 124.736 39.3994C123.991 39.1137 123.311 38.6813 122.736 38.1276C122.161 37.574 121.704 36.9105 121.39 36.1765C121.077 35.4425 120.914 34.6531 120.912 33.8551C120.91 33.057 121.068 32.2667 121.377 31.531C121.686 30.7953 122.14 30.1292 122.712 29.5723C123.284 29.0155 123.961 28.5792 124.705 28.2894C125.448 27.9996 126.243 27.8622 127.04 27.8853C128.613 27.8619 130.133 28.4551 131.274 29.5379L129.835 31.0567C129.468 30.6825 129.031 30.3847 128.548 30.1803C128.066 29.9759 127.548 29.8691 127.024 29.8659C126.508 29.8675 125.997 29.9725 125.523 30.1746C125.048 30.3767 124.619 30.6719 124.26 31.0426C123.901 31.4134 123.62 31.8524 123.434 32.3335C123.247 32.8146 123.159 33.3282 123.175 33.8439Z" fill="#909090"/>
<path d="M143.598 34.7297H137.811V39.6327H135.578V28.0573H137.811V32.7415H143.598V28.0527H145.831V39.6281H143.598V34.7297Z" fill="#909090"/>
<path d="M153.023 30.0409V32.7415H156.579V34.7252H153.023V37.6445H157.901V39.6281H150.79V28.0527H157.734V30.0364L153.023 30.0409Z" fill="#909090"/>
<path d="M60.8987 43.6348L65.8928 55.2086H64.8994L63.3806 51.7152H57.7607L56.2418 55.2086H55.25L60.2441 43.6348H60.8987ZM58.1541 50.7735H62.9659L60.5676 45.1855L58.1541 50.7735Z" fill="#909090"/>
<path d="M69.4443 43.6348H70.105L77.8772 53.2736V43.6348H78.8705V55.2086H78.2083L70.4377 45.5683V55.2086H69.4458L69.4443 43.6348Z" fill="#909090"/>
<path d="M91.4533 54.1152C90.2833 54.9125 88.8808 55.2968 87.4677 55.2073H84.1611V43.6349H87.4647C88.8778 43.545 90.2804 43.9293 91.4502 44.727C92.1657 45.2829 92.7447 45.9949 93.1429 46.8087C93.5412 47.6225 93.7482 48.5166 93.7482 49.4226C93.7482 50.3286 93.5412 51.2227 93.1429 52.0365C92.7447 52.8503 92.1657 53.5623 91.4502 54.1182L91.4533 54.1152ZM90.9399 45.5502C89.9139 44.8276 88.6691 44.483 87.4176 44.5751H85.1514V54.2671H87.4176C88.6692 54.3594 89.914 54.0148 90.9399 53.292C91.5091 52.8205 91.9672 52.2293 92.2817 51.5605C92.5961 50.8916 92.7592 50.1617 92.7592 49.4226C92.7592 48.6835 92.5961 47.9536 92.2817 47.2848C91.9672 46.6159 91.5091 46.0247 90.9399 45.5533V45.5502Z" fill="#909090"/>
<path d="M97.8018 43.6348H100.051L102.45 50.8601L104.995 43.6348H106.567L109.114 50.8601L111.51 43.6348H113.759L109.922 55.2086H108.352L105.77 47.8831L103.206 55.2086H101.634L97.8018 43.6348Z" fill="#909090"/>
<path d="M122.439 43.4719C123.613 43.488 124.756 43.851 125.725 44.515C126.693 45.1791 127.443 46.1146 127.882 47.204C128.32 48.2934 128.426 49.4879 128.187 50.6375C127.948 51.787 127.374 52.8402 126.538 53.6647C125.702 54.4891 124.641 55.048 123.488 55.271C122.335 55.494 121.142 55.3711 120.059 54.9179C118.976 54.4648 118.051 53.7014 117.401 52.724C116.75 51.7465 116.403 50.5985 116.403 49.4244C116.389 48.6315 116.535 47.8439 116.834 47.1095C117.133 46.375 117.579 45.7092 118.144 45.1524C118.708 44.5955 119.38 44.1594 120.119 43.8705C120.857 43.5816 121.647 43.446 122.439 43.4719ZM122.439 53.3932C123.232 53.4281 124.016 53.225 124.692 52.8102C125.368 52.3953 125.904 51.7877 126.231 51.0655C126.559 50.3434 126.663 49.5397 126.53 48.758C126.396 47.9763 126.032 47.2523 125.484 46.6794C124.936 46.1064 124.229 45.7106 123.454 45.543C122.679 45.3754 121.871 45.4436 121.135 45.7389C120.399 46.0342 119.768 46.543 119.324 47.1998C118.88 47.8566 118.642 48.6314 118.642 49.4244C118.626 49.9352 118.712 50.4441 118.895 50.9212C119.078 51.3984 119.355 51.8343 119.708 52.2033C120.062 52.5723 120.486 52.8671 120.955 53.0703C121.424 53.2736 121.928 53.3813 122.439 53.3871V53.3932Z" fill="#909090"/>
<path d="M132.608 43.6348H134.178L140.628 51.1745V43.6348H142.86V55.2086H141.288L134.839 47.6689V55.2086H132.606L132.608 43.6348Z" fill="#909090"/>
<path d="M151.461 43.6349C152.874 43.5449 154.276 43.9292 155.446 44.727C156.162 45.2829 156.741 45.9949 157.139 46.8087C157.537 47.6226 157.744 48.5166 157.744 49.4226C157.744 50.3287 157.537 51.2227 157.139 52.0365C156.741 52.8503 156.162 53.5624 155.446 54.1182C154.276 54.9157 152.874 55.3 151.461 55.2103H147.815V43.6349H151.461ZM154.669 46.9081C154.313 46.474 153.859 46.1306 153.345 45.9064C152.83 45.6822 152.27 45.5836 151.71 45.6186H150.057V53.2251H151.711C152.271 53.2604 152.832 53.1619 153.346 52.9377C153.861 52.7134 154.315 52.37 154.67 51.9356C155.217 51.2121 155.513 50.3298 155.513 49.4226C155.513 48.5155 155.217 47.6332 154.67 46.9097L154.669 46.9081Z" fill="#909090"/>
<path d="M164.107 45.623V48.3281H167.663V50.3178H164.107V53.2356H168.986V55.2208H161.876V43.6348H168.82V45.6184L164.107 45.623Z" fill="#909090"/>
<path d="M175.518 50.3191V55.2114H173.285V43.636H178.203C179.127 43.5771 180.037 43.8861 180.734 44.4957C181.39 45.155 181.759 46.0473 181.759 46.9776C181.759 47.9078 181.39 48.8002 180.734 49.4594C180.404 49.7705 180.009 50.0027 179.576 50.1384L182.271 55.2129H179.743L177.263 50.3206L175.518 50.3191ZM178.071 48.3339C178.272 48.3635 178.478 48.3477 178.672 48.2878C178.867 48.2279 179.045 48.1254 179.195 47.9876C179.41 47.6978 179.526 47.3466 179.526 46.9859C179.526 46.6252 179.41 46.2741 179.195 45.9842C179.047 45.8433 178.869 45.7373 178.675 45.6742C178.48 45.6112 178.274 45.5925 178.071 45.6197H175.518V48.3339H178.071Z" fill="#909090"/>
<path d="M190.079 48.4611C187.801 47.9173 187.44 47.5072 187.44 46.7402V46.7068C187.44 45.9473 188.15 45.4279 189.208 45.4279C190.316 45.468 191.38 45.8757 192.232 46.5868L192.291 46.6309L193.438 44.9996L193.385 44.9585C192.22 43.9964 190.75 43.482 189.24 43.508C188.756 43.4517 188.266 43.4962 187.8 43.6387C187.335 43.7812 186.903 44.0186 186.534 44.336C186.165 44.6533 185.865 45.0438 185.654 45.4827C185.443 45.9216 185.326 46.3994 185.309 46.886V46.9194C185.309 49.058 186.65 49.7901 189.126 50.3946C191.252 50.8883 191.621 51.3272 191.621 52.0654V52.0988C191.621 52.9251 190.862 53.4658 189.691 53.4658C188.372 53.4496 187.111 52.925 186.17 52.0016L186.114 51.953L184.827 53.4977L184.879 53.5433C186.179 54.7339 187.879 55.3916 189.642 55.3857C192.138 55.3857 193.743 54.0187 193.743 51.909V51.8771C193.752 49.7886 192.283 49.0018 190.079 48.4611Z" fill="#909090"/>
<path d="M166.292 32.8873C164.014 32.3435 163.653 31.935 163.653 31.1664V31.1345C163.653 30.3751 164.363 29.8541 165.42 29.8541C166.529 29.8942 167.593 30.3019 168.445 31.013L168.504 31.0586L169.651 29.4273L169.597 29.3848C168.432 28.4234 166.963 27.9096 165.452 27.9358C164.969 27.8794 164.479 27.924 164.013 28.0665C163.547 28.209 163.116 28.4464 162.747 28.7637C162.378 29.0811 162.078 29.4715 161.867 29.9104C161.656 30.3493 161.539 30.8271 161.522 31.3138V31.3456C161.522 33.4842 162.863 34.2163 165.338 34.8209C167.465 35.3145 167.834 35.7534 167.834 36.4916V36.5235C167.834 37.3498 167.075 37.8905 165.903 37.8905C164.585 37.8737 163.324 37.3487 162.383 36.4248L162.327 36.3762L161.04 37.9194L161.092 37.9665C162.392 39.1572 164.092 39.815 165.855 39.8089C168.35 39.8089 169.956 38.4419 169.956 36.3321V36.3003C169.959 34.2072 168.496 33.4204 166.292 32.8873Z" fill="#909090"/>
<path d="M134.493 65.1348H114.593V67.2597H134.493V65.1348Z" fill="#909090"/>
</svg>
