<svg width="248" height="96" viewBox="0 0 248 96" fill="none" xmlns="http://www.w3.org/2000/svg">
<path d="M99.208 56.4253H79.8376C80.136 58.1646 81.049 59.7391 82.4104 60.8621C83.7718 61.9851 85.4911 62.582 87.2555 62.5443C89.9702 62.6733 92.6292 61.7447 94.6735 59.9539L98.0894 63.3687C95.7932 65.4889 91.789 67.0187 87.2555 67.0187C79.8955 67.0187 74.5967 61.8368 74.5967 54.4779C74.5967 47.178 79.8955 41.9951 87.2555 41.9951C94.5554 41.9951 99.3862 47.177 99.3862 54.4779C99.3853 55.1311 99.3256 55.7828 99.208 56.4253ZM87.2566 46.476C85.4922 46.4382 83.7729 47.0351 82.4115 48.1581C81.0501 49.2811 80.1371 50.8556 79.8386 52.595H94.3203C94.1196 50.8772 93.2834 49.2967 91.9762 48.1643C90.669 47.032 88.9854 46.4297 87.2566 46.476Z" fill="#909090"/>
<path d="M105.861 62.3131C107.09 62.9017 108.444 63.1846 109.806 63.1375C113.456 63.3136 115.517 62.078 115.34 59.8408C115.164 57.7206 112.043 57.0142 110.159 56.661C106.096 55.8956 100.68 55.0121 100.091 49.5962C99.9432 48.3806 100.168 47.1487 100.735 46.0633C102.207 43.3548 105.268 42.1182 109.919 42.1182C115.513 42.1182 119.281 44.4144 120.281 47.8883L116.395 49.7723C116.039 48.8046 115.404 47.9644 114.57 47.358C113.242 46.4875 111.683 46.0364 110.096 46.0633C107.387 45.9452 104.738 46.8287 105.15 49.242C105.503 51.0669 108.624 51.6563 110.567 52.1276C114.276 52.952 119.692 53.8935 120.281 59.3104C120.417 60.6907 120.151 62.0808 119.516 63.3136C117.691 66.3194 113.982 67.3178 109.271 67.1406C103.737 66.9055 100.147 65.0215 99.0859 61.0764L103.031 59.3104C103.582 60.6197 104.586 61.6861 105.861 62.3131Z" fill="#909090"/>
<path d="M121.699 34.3475C121.691 33.9251 121.768 33.5054 121.924 33.1129C122.08 32.7204 122.313 32.3629 122.609 32.0614C122.905 31.76 123.258 31.5205 123.648 31.357C124.037 31.1936 124.455 31.1094 124.878 31.1094C125.3 31.1094 125.719 31.1936 126.108 31.357C126.498 31.5205 126.851 31.76 127.147 32.0614C127.443 32.3629 127.676 32.7204 127.832 33.1129C127.988 33.5054 128.065 33.9251 128.057 34.3475C128.042 35.1806 127.7 35.9744 127.106 36.5581C126.511 37.1418 125.711 37.4689 124.878 37.4689C124.045 37.4689 123.245 37.1418 122.65 36.5581C122.056 35.9744 121.714 35.1806 121.699 34.3475ZM122.343 66.3757V42.6511H127.407V66.379L122.343 66.3757Z" fill="#909090"/>
<path d="M152.019 50.9502C152.019 56.131 147.132 59.958 141.009 59.958C140.497 59.9502 139.986 59.9111 139.478 59.841L136.946 62.8469C138.661 62.5852 140.393 62.4475 142.128 62.4346C149.428 62.4346 153.02 65.7314 152.372 70.442C151.728 75.0924 146.425 77.919 139.597 77.5658C134.594 77.3296 130.295 75.7408 127.705 73.3265L130.412 69.3813C133.05 71.8678 136.557 73.221 140.181 73.1504C143.36 73.1504 147.187 72.5611 147.364 69.9116C147.54 67.2032 144.009 66.4968 141.3 66.4968C138.538 66.5806 135.828 67.2637 133.356 68.4989L130.294 65.1431L135.652 58.9608C134.01 58.3476 132.589 57.2576 131.572 55.8308C130.554 54.4039 129.986 52.7054 129.941 50.9534C129.941 45.7727 134.828 42.0036 141.01 42.0036C143.003 41.9677 144.977 42.3908 146.78 43.2403L153.08 42.0036V45.6535H150.074C151.332 47.1315 152.021 49.0095 152.019 50.9502ZM141.009 46.2987C137.359 46.2987 134.997 48.4189 134.997 50.9502C134.997 53.5406 137.353 55.6017 141.009 55.6017C144.541 55.6017 146.955 53.5406 146.955 50.9502C146.955 48.4189 144.541 46.2987 141.009 46.2987Z" fill="#909090"/>
<path d="M168.15 42.0003C174.979 42.0003 177.865 46.5927 177.865 52.2458V66.3786H172.801V53.4815C172.801 49.7134 170.858 46.5927 167.09 46.5927C161.556 46.5927 160.201 51.7155 160.201 55.4836V66.3786H155.138V42.654H160.201V47.3056C160.835 45.7215 161.933 44.3665 163.352 43.4194C164.771 42.4723 166.444 41.9775 168.15 42.0003Z" fill="#909090"/>
<path d="M180.454 34.347C180.446 33.9246 180.522 33.5049 180.679 33.1124C180.835 32.7199 181.068 32.3624 181.364 32.061C181.66 31.7595 182.013 31.52 182.403 31.3566C182.792 31.1931 183.21 31.1089 183.633 31.1089C184.055 31.1089 184.474 31.1931 184.863 31.3566C185.253 31.52 185.606 31.7595 185.902 32.061C186.198 32.3624 186.431 32.7199 186.587 33.1124C186.743 33.5049 186.82 33.9246 186.812 34.347C186.797 35.1801 186.455 35.9739 185.861 36.5576C185.266 37.1413 184.466 37.4684 183.633 37.4684C182.8 37.4684 182 37.1413 181.405 36.5576C180.811 35.9739 180.469 35.1801 180.454 34.347ZM181.098 66.3753V42.6507H186.162V66.3785L181.098 66.3753Z" fill="#909090"/>
<path d="M212.542 56.4253H193.171C193.47 58.1647 194.383 59.7392 195.745 60.8622C197.106 61.9852 198.826 62.5821 200.59 62.5443C203.305 62.6733 205.964 61.7447 208.008 59.9539L211.423 63.3687C209.127 65.4889 205.124 67.0187 200.59 67.0187C193.23 67.0187 187.932 61.8368 187.932 54.4779C187.932 47.178 193.23 41.9951 200.59 41.9951C207.89 41.9951 212.721 47.177 212.721 54.4779C212.72 55.1311 212.66 55.7829 212.542 56.4253ZM200.59 46.476C198.826 46.4382 197.106 47.035 195.745 48.158C194.383 49.281 193.47 50.8555 193.171 52.595H207.655C207.455 50.877 206.618 49.2964 205.311 48.164C204.003 47.0316 202.319 46.4294 200.59 46.476Z" fill="#909090"/>
<path fill-rule="evenodd" clip-rule="evenodd" d="M73.8462 48.8128C73.885 52.3928 72.9491 55.9159 71.1388 59.0047C70.2652 60.4687 69.1857 61.7995 67.9333 62.9563C64.9092 65.7089 61.0378 67.3495 56.9567 67.6078C56.4442 67.6479 55.9272 67.6676 55.4054 67.6668C54.8311 67.6668 54.2536 67.6454 53.6717 67.5971C53.4502 67.5779 53.2329 67.5246 53.0276 67.4393C52.9218 67.396 52.8201 67.3431 52.7238 67.2815C52.4391 67.1002 52.2029 66.8522 52.0357 66.559C51.5107 65.6358 50.6831 64.1844 49.9123 62.8575C49.3261 61.8484 48.7722 60.9091 48.4094 60.3294C47.0983 58.252 45.8997 56.1059 44.8185 53.9001C44.2468 52.6737 43.8591 51.3697 43.6677 50.0301C43.5805 49.4863 43.5363 48.9363 43.5356 48.3855C43.533 46.5077 44.0939 44.6722 45.1459 43.1167L45.1523 43.1081C46.0146 41.8307 47.1774 40.7846 48.5386 40.0617C49.8998 39.3388 51.4177 38.9613 52.9589 38.9622H53.0663C53.2455 38.9622 53.4227 38.9708 53.603 38.9859C53.8048 38.9966 54.0045 39.017 54.201 39.0449L54.3674 39.0685C54.5166 39.0889 54.6647 39.1136 54.8118 39.1437L54.9106 39.163C57.024 39.6115 58.9193 40.7723 60.2793 42.4511C61.6392 44.13 62.3812 46.225 62.3811 48.3855C62.3609 49.9661 62.0301 51.5272 61.4075 52.9801C61.4045 52.9927 61.3994 53.0047 61.3924 53.0156C60.5168 55.0216 59.3375 56.8809 57.896 58.528C57.2519 59.2795 56.6153 59.9505 56.0313 60.5237L54.0195 57.2377C54.1988 56.9736 55.6502 54.6376 56.1322 53.6522C56.1387 53.6371 56.1451 53.6243 56.1515 53.6114C57.0042 51.9957 57.4871 50.2107 57.5654 48.3855C57.5631 47.165 57.0775 45.995 56.2149 45.1315C55.3522 44.2681 54.1827 43.7814 52.9621 43.778C51.7416 43.7814 50.5721 44.2681 49.7094 45.1315C48.8468 45.995 48.3612 47.165 48.3589 48.3855C48.3759 49.4346 48.557 50.4745 48.8957 51.4676V51.4815C49.8059 53.8955 51.0465 56.1716 52.5821 58.2446C52.7206 58.4443 52.8451 58.6279 52.9589 58.7964C52.9782 58.834 53.0029 58.8694 53.0244 58.9038C53.5848 59.8216 54.2482 60.9177 54.742 61.7239L55.2917 62.6342C55.385 62.7856 55.4398 62.8726 55.4419 62.8726C55.677 62.8726 55.9089 62.8726 56.1408 62.8575C59.3062 62.7806 62.3377 61.5643 64.6784 59.4319C65.3173 58.8441 65.9036 58.2015 66.4304 57.5114C68.3085 55.0879 69.2829 52.0855 69.1861 49.021C69.0756 46.257 68.1131 43.5947 66.4304 41.3991C64.747 39.1795 62.4514 37.5004 59.8262 36.5683C58.3766 36.0541 56.8501 35.7905 55.312 35.7889C54.7055 35.7696 54.0356 35.7718 53.2788 35.7889H39.6227V62.908H47.9113L49.835 66.2026C49.9089 66.3404 49.9479 66.4943 49.9487 66.6507C49.9495 66.8071 49.912 66.9613 49.8394 67.0999C49.7669 67.2385 49.6616 67.3572 49.5326 67.4458C49.4037 67.5343 49.255 67.5899 49.0996 67.6078C49.064 67.6123 49.0282 67.6144 48.9923 67.6143L37.4885 67.6776C37.151 67.6799 36.8164 67.6153 36.5039 67.4877C36.1914 67.3601 35.9072 67.172 35.6678 66.9341C35.4283 66.6962 35.2382 66.4133 35.1086 66.1017C34.9789 65.7901 34.9121 65.4559 34.9121 65.1183V31.0816L52.0937 31H52.1441H53.0244H53.2767C53.4914 31 53.6986 31 53.9068 31H53.9573C60.378 31.1138 64.9372 32.8658 68.4615 36.4159C69.4888 37.4695 70.3868 38.6418 71.1367 39.908C72.8093 42.5854 73.7441 45.6575 73.8462 48.8128Z" fill="#909090"/>
</svg>
