<svg width="248" height="96" viewBox="0 0 248 96" fill="none" xmlns="http://www.w3.org/2000/svg">
<path d="M82.3869 54.801C80.5218 56.6331 78.1331 57.4838 75.6135 57.4838C69.0692 57.4838 66.157 52.9689 66.1243 48.2578C66.0916 43.5139 69.2001 38.8027 75.6135 38.8027C78.0349 38.8027 80.3582 39.7188 82.1906 41.5182L80.26 43.383C78.9839 42.1071 77.2823 41.5182 75.6135 41.5182C71.0325 41.5182 68.9383 44.888 68.9711 48.1923C69.0038 51.4967 70.9671 54.7356 75.6135 54.7356C77.2823 54.7356 79.1475 54.0486 80.3909 52.7726L82.3869 54.801Z" fill="#909090"/>
<path d="M92.9558 47.0795L98.0931 39.1294H101.562V39.2603L94.3956 49.7295V57.1234H91.5161V49.7295L84.5791 39.2603V39.1294H88.0149L92.9558 47.0795Z" fill="#909090"/>
<path d="M108.205 54.4406H113.604C115.207 54.4406 117.399 53.9172 117.399 51.9542C117.399 50.0239 115.273 49.1406 113.604 49.1406H108.172V54.4406H108.205ZM108.205 46.5887H113.636C115.796 46.5887 116.876 45.7381 116.876 44.3313C116.876 43.0554 115.763 41.7467 113.604 41.7467H108.205V46.5887ZM113.604 39.1294C117.039 39.1294 119.723 40.6998 119.723 44.2659C119.723 45.7708 118.937 47.1449 117.236 47.8319C119.395 48.4863 120.312 50.6128 120.312 51.9869C120.312 55.9129 117.17 57.1234 113.636 57.1234H105.391V39.1294H113.604Z" fill="#909090"/>
<path d="M138.374 57.1234H125.057V39.1294H138.276V41.9103H127.936V46.785H137.883V49.4678H127.936V54.2771H138.374V57.1234Z" fill="#909090"/>
<path d="M146.228 41.7477V48.2909H151.692C154.081 48.2909 155.128 46.786 155.128 45.0847C155.128 43.4489 154.081 41.7804 151.692 41.7804H146.228V41.7477ZM158.891 57.1244H155.521L150.056 50.9083H146.26V57.1244H143.381V39.0977C146.195 39.0977 148.976 39.1304 151.758 39.1304C155.913 39.1304 158.106 41.9767 158.106 45.0193C158.106 47.6039 156.764 50.1231 153.23 50.6138L158.596 56.6009L158.891 57.1244Z" fill="#909090"/>
<path d="M171.161 44.1677L168.838 49.8931H173.452L171.161 44.1677ZM175.186 54.1789H167.137L165.959 57.1234H160.56L168.642 39.1294H173.779L181.829 57.1234H176.364L175.186 54.1789Z" fill="#909090"/>
<path d="M189.616 43.1862V47.5048H193.379C194.72 47.5048 195.309 46.4906 195.309 45.4109C195.309 44.2659 194.655 43.1862 193.313 43.1862H189.616ZM201.199 57.1234H195.604L191.415 51.2999H189.648V57.1234H184.544V39.1294H193.313C197.927 39.1294 200.316 42.0739 200.316 45.3128C200.316 47.5375 199.53 49.4023 196.52 50.7437L201.199 56.7962V57.1234Z" fill="#909090"/>
<path d="M220.702 39.4248L213.405 47.9311C215.925 50.712 218.837 53.9509 221.324 56.7972V57.0916H215.008L209.871 51.1046V57.0916H204.767V39.0977H209.871V45.0193C211.409 43.1218 213.078 40.9952 214.616 39.0977H220.702V39.4248Z" fill="#909090"/>
<path d="M224.955 36.9053H224.726V37.6578H224.955C225.348 37.6578 225.479 37.5269 225.479 37.2652C225.446 37.0035 225.282 36.9053 224.955 36.9053ZM225.806 38.9665H225.609C225.577 38.9665 225.544 38.9665 225.511 38.9337C225.446 38.8356 225.413 38.7702 225.348 38.6393C225.184 38.3776 225.086 38.214 224.955 38.0504C224.922 38.0177 224.89 37.985 224.824 37.985H224.726V38.8683C224.726 38.9337 224.661 38.9992 224.628 38.9992H224.497C224.431 38.9992 224.366 38.9337 224.366 38.8683V36.7745C224.366 36.709 224.431 36.6763 224.497 36.6763H225.086C225.609 36.6763 225.871 36.9708 225.871 37.3306C225.871 37.6578 225.675 37.9523 225.249 37.985C225.38 38.0504 225.642 38.4103 225.904 38.901C225.904 38.8683 225.904 38.9665 225.806 38.9665ZM225.053 35.9893C224.104 35.9893 223.319 36.7745 223.319 37.7887C223.319 38.8029 224.072 39.5881 225.053 39.5881C226.002 39.5881 226.787 38.8029 226.787 37.7887C226.787 36.7745 226.002 35.9893 225.053 35.9893ZM225.053 39.8825C223.908 39.8825 222.959 38.9665 222.959 37.7887C222.959 36.5782 223.908 35.6948 225.053 35.6948C226.198 35.6948 227.147 36.6109 227.147 37.7887C227.147 38.9992 226.198 39.8825 225.053 39.8825Z" fill="#909090"/>
<mask id="mask0_2292_90" style="mask-type:luminance" maskUnits="userSpaceOnUse" x="21" y="27" width="37" height="42">
<path d="M56.93 58.3998L40.1112 68.1166V58.5307L56.93 48.8139V58.3998ZM31.2436 53.8195L39.424 58.5307V68.1166L22.9324 58.6288L31.2436 53.8195ZM39.3913 28.8897V38.4756L31.2436 43.1867L22.8996 38.4101L39.3913 28.8897ZM56.5701 38.3774L48.2588 43.1867L40.0784 38.4756V28.8897L56.5701 38.3774ZM30.8837 53.2306L22.5724 58.04L22.5397 38.999L30.851 43.7756V53.2306H30.8837ZM39.3913 48.2905L31.5708 52.8053V43.8083L39.3913 39.2935V48.2905V48.2905ZM40.0784 39.2935L47.8989 43.8083V52.8381L40.0784 48.2905V39.2935ZM39.7512 57.9091L31.9308 53.4269L39.7512 48.9121L47.5717 53.4269L39.7512 57.9091ZM57.0937 47.8979L48.5861 52.8053V43.8083L57.4209 38.7046V38.1157L39.9148 27.9736H39.5549L22.0161 38.1157L21.8525 38.4101L21.8853 58.6288L22.0489 58.9233L39.5876 68.9999H39.9476L57.4536 58.8906L57.6172 58.5961V48.1923L57.0937 47.8979Z" fill="white"/>
</mask>
<g mask="url(#mask0_2292_90)">
<path d="M57.6172 27.9736H21.8525V69.0326H57.6172V27.9736Z" fill="#909090"/>
</g>
</svg>
