<svg width="248" height="96" viewBox="0 0 248 96" fill="none" xmlns="http://www.w3.org/2000/svg">
<g clip-path="url(#clip0_665_96)">
<path fill-rule="evenodd" clip-rule="evenodd" d="M42.8048 24C29.0884 24 18 35.1701 18 48.9891C18 60.0353 25.1047 69.3857 34.9608 72.6951C36.1931 72.9439 36.6445 72.1574 36.6445 71.4959C36.6445 70.9165 36.6038 68.9308 36.6038 66.8618C29.7037 68.3515 28.2669 63.8829 28.2669 63.8829C27.158 60.9868 25.515 60.2425 25.515 60.2425C23.2566 58.7117 25.6795 58.7117 25.6795 58.7117C28.1846 58.8772 29.4991 61.2767 29.4991 61.2767C31.7164 65.0827 35.2893 64.0073 36.7267 63.3452C36.9318 61.7316 37.5893 60.6146 38.2875 59.9942C32.7842 59.4149 26.994 57.2636 26.994 47.6649C26.994 44.9343 27.979 42.7003 29.5398 40.9628C29.2935 40.3424 28.4309 37.7768 29.7865 34.343C29.7865 34.343 31.8809 33.6809 36.6033 36.9081C38.6252 36.3611 40.7103 36.0828 42.8048 36.0805C44.8992 36.0805 47.0342 36.3704 49.0057 36.9081C53.7286 33.6809 55.823 34.343 55.823 34.343C57.1787 37.7768 56.3155 40.3424 56.0693 40.9628C57.6712 42.7003 58.6156 44.9343 58.6156 47.6649C58.6156 57.2636 52.8254 59.3732 47.2809 59.9942C48.1847 60.7802 48.9646 62.2693 48.9646 64.6278C48.9646 67.9788 48.924 70.6683 48.924 71.4953C48.924 72.1574 49.3759 72.9439 50.6076 72.6956C60.4637 69.3852 67.5684 60.0353 67.5684 48.9891C67.609 35.1701 56.48 24 42.8048 24Z" fill="#909090"/>
</g>
<path d="M97.3892 44.5693C97.0935 44.5693 96.7978 44.8659 96.7978 45.1625V51.2431C96.7978 51.5397 97.0935 51.8363 97.3892 51.8363H102.268V59.4C102.268 59.4 101.233 59.8449 98.1284 59.8449C94.5802 59.8449 89.7015 58.5101 89.7015 47.5354C89.7015 36.5607 94.8759 35.226 99.7546 35.226C104.042 35.226 105.816 35.9675 106.999 36.2641C107.294 36.4124 107.738 35.9675 107.738 35.6709L109.069 29.7386C109.069 29.5903 109.069 29.442 108.773 29.2937C108.329 28.9971 105.52 27.3657 98.2762 27.3657C89.8493 27.3657 81.5703 30.7768 81.5703 47.9804C81.5703 65.0356 91.3277 67.5569 99.4589 67.5569C106.26 67.5569 110.399 64.739 110.399 64.739C110.547 64.5907 110.547 64.4424 110.547 64.2941V45.1625C110.547 44.8659 110.251 44.5693 109.956 44.5693" fill="#909090"/>
<path d="M173.823 29.4419C173.823 29.1452 173.527 28.8486 173.231 28.8486H166.283C165.987 28.8486 165.691 29.1452 165.691 29.4419V42.9378H154.751V29.4419C154.751 29.1452 154.456 28.8486 154.16 28.8486H147.211C146.916 28.8486 146.62 29.1452 146.62 29.4419V66.0736C146.62 66.3703 146.916 66.6669 147.211 66.6669H154.16C154.456 66.6669 154.751 66.3703 154.751 66.0736V50.3531H165.691V66.0736C165.691 66.3703 165.987 66.6669 166.283 66.6669H173.231C173.527 66.6669 173.823 66.3703 173.823 66.0736V29.4419Z" fill="#909090"/>
<path d="M118.53 38.9333C121.061 38.9333 123.113 36.8749 123.113 34.3358C123.113 31.7967 121.061 29.7383 118.53 29.7383C115.999 29.7383 113.947 31.7967 113.947 34.3358C113.947 36.8749 115.999 38.9333 118.53 38.9333Z" fill="#909090"/>
<path d="M122.522 41.4546C122.522 41.1579 122.226 40.8613 121.93 40.8613H114.982C114.686 40.8613 114.391 41.1579 114.391 41.4546V65.7769C114.391 66.5184 114.834 66.6667 115.426 66.6667H121.783C122.522 66.6667 122.67 66.3701 122.67 65.7769" fill="#909090"/>
<path d="M193.486 41.0098C193.19 41.0098 192.894 41.3064 192.894 41.603V59.5481C192.894 59.5481 191.12 60.8829 188.607 60.8829C186.094 60.8829 185.502 59.6964 185.502 57.3235V41.603C185.502 41.3064 185.207 41.0098 184.911 41.0098H177.962C177.667 41.0098 177.371 41.3064 177.371 41.603V58.51C177.371 65.777 181.363 67.5567 186.981 67.5567C191.564 67.5567 195.26 65.0355 195.26 65.0355C195.26 65.0355 195.408 66.3702 195.555 66.5185C195.703 66.6668 195.851 66.8151 195.999 66.8151H200.434C200.73 66.8151 201.025 66.5185 201.025 66.2219V41.603C201.025 41.3064 200.73 41.0098 200.434 41.0098" fill="#909090"/>
<path d="M216.844 61.0312C213.887 61.0312 212.556 59.6964 212.556 59.6964V47.9802C212.556 47.9802 214.182 46.9421 216.104 46.7938C218.618 46.4971 220.983 47.387 220.983 53.3193C220.983 59.6964 220.244 61.0312 216.696 61.0312H216.844ZM212.852 41.8996V29.4419C212.852 29.1452 212.556 28.8486 212.261 28.8486H205.312C205.016 28.8486 204.721 29.1452 204.721 29.4419V66.0736C204.721 66.3703 205.016 66.6669 205.312 66.6669H210.191C210.339 66.6669 210.634 66.5186 210.634 66.3703C210.782 66.2219 210.93 64.7389 210.93 64.7389C210.93 64.7389 213.739 67.5567 219.209 67.5567C225.566 67.5567 229.262 64.294 229.262 53.0226C229.262 41.7513 223.496 40.2683 219.505 40.2683C215.513 40.2683 212.852 42.0479 212.852 42.0479V41.8996Z" fill="#909090"/>
<path d="M137.454 40.8616V33.8912C137.454 33.5946 137.306 33.4463 137.01 33.4463H129.766C129.47 33.4463 129.323 33.5946 129.323 34.0395V41.3065C129.323 41.3065 125.774 42.1964 125.479 42.1964C125.183 42.3447 125.035 42.493 125.035 42.7896V47.3871C125.035 47.6837 125.331 47.9804 125.627 47.9804H129.323V58.8067C129.323 66.9636 134.94 67.7052 138.784 67.7052C140.558 67.7052 142.628 67.1119 142.924 66.9636C143.072 66.8153 143.219 66.667 143.219 66.3704V61.4763C143.219 61.1797 142.924 60.883 142.628 60.883C142.332 60.883 141.593 61.0314 140.706 61.0314C138.193 61.0314 137.306 59.8449 137.306 58.2135C137.306 56.5821 137.306 47.9804 137.306 47.9804H142.48C142.776 47.9804 143.072 47.6837 143.072 47.3871V41.4549C143.072 41.1582 142.776 40.8616 142.48 40.8616" fill="#909090"/>
<defs>
<clipPath id="clip0_665_96">
<rect width="49.7578" height="48.7423" fill="white" transform="translate(18 24)"/>
</clipPath>
</defs>
</svg>
