<svg width="248" height="96" viewBox="0 0 248 96" fill="none" xmlns="http://www.w3.org/2000/svg">
<path d="M152.341 51.357L152.058 53.8624C146.182 51.3956 145.16 56.2163 148.024 57.0048C156.426 59.3179 153.343 65.6439 149.762 66.3808C147.987 66.7463 145.52 66.7288 143.569 66.0027L143.853 63.2681C146.286 64.7022 150.052 64.5385 150.052 62.2659C150.052 59.7683 145.461 60.3075 143.74 57.4348C142.747 55.7766 142.871 51.416 147.835 50.8123C150.122 50.5341 152.341 51.357 152.341 51.357ZM119.626 51.0509H122.796V66.3507H119.626V51.0509ZM91.1597 51.0509H99.705V53.4598H94.2118V57.2831H99.4211V59.6307H94.2118V66.3511H91.1597V51.0509Z" fill="#909090"/>
<path d="M101.017 66.6775C99.5049 68.1312 97.9156 69.2535 96.6602 71.0265C94.4007 73.1159 96.919 68.7073 97.5547 67.6961C98.2625 66.2387 99.0643 64.9162 99.9381 63.491C101.147 61.5701 102.607 59.4848 103.956 57.5034C106.009 54.9894 107.97 52.0987 110.291 49.6898C112.03 47.5036 114.046 45.3864 115.846 43.4243C118.535 40.6604 121.263 37.8857 124.228 35.324C126.312 33.3636 128.62 31.592 130.72 29.6814C132.509 28.2119 134.417 26.8031 136.2 25.3454C138.061 23.6542 140.252 22.2789 142.203 20.6661C145.731 18.2561 149.28 15.4755 153.172 13.5178C154.182 12.5658 156.295 13.0061 156.464 14.1909C155.692 15.745 153.315 16.3667 152.044 17.6623C150.56 19.4037 148.458 20.3803 146.89 22.0102C145.539 23.1529 144.355 24.5564 142.78 25.6908C141.319 27.2412 139.235 28.7042 137.686 30.31C136.377 31.6859 134.846 32.846 133.632 34.3381C132.256 35.8929 130.499 37.4167 129.11 38.8693C127.665 40.1499 126.414 41.6281 125.023 42.8804C123.668 44.2785 122.289 46.1616 120.776 47.3496C119.711 48.3476 118.755 49.6559 117.734 50.7117C117.032 51.3104 116.094 52.3977 115.475 53.0998C114.338 54.4593 112.874 55.8302 111.838 57.1346C110.644 58.3393 110.36 58.5106 109.112 59.7345C108.17 60.5849 107.084 61.7534 106.19 62.8179C105.228 63.3793 104.8 64.7022 103.847 64.7982C103.683 64.4678 106.19 61.6203 103.798 63.5418C102.741 64.4877 102.048 65.6057 101.017 66.6779V66.6775Z" fill="#909090"/>
<path d="M147.491 34.8123C150.083 31.944 152.883 29.1531 155.674 26.4173C157.846 24.7441 155.841 28.572 155.143 29.2731C154.263 30.8114 153.586 32.3898 152.557 33.8295C151.882 35.3127 151.105 36.5311 150.131 37.9059C149.26 39.3774 148.235 40.6907 147.32 42.128C146.009 43.8755 145.012 45.8372 143.717 47.6433C143.065 48.6961 142.261 49.9633 141.724 51.1107C140.68 52.6008 139.588 54.1388 138.78 55.8012C137.624 57.9221 136.263 59.9306 135.176 62.0563C134.465 63.3906 133.412 64.9816 132.726 66.4258C131.782 67.7717 130.631 69.6354 129.988 71.3136C128.921 73.5999 127.728 75.8808 126.35 78.0036C126.195 78.5153 126.427 77.0013 125.937 78.4032C125.49 78.7575 124.087 81.0916 124.458 79.4766C124.666 78.0537 123.066 81.1999 122.687 81.8391C121.969 81.8096 121.081 84.6781 120.818 83.6058C121.008 82.2756 121.053 80.8654 121.575 79.6835C121.785 77.632 122.56 75.6691 123.165 73.7081C123.707 71.8261 124.512 69.9728 125.204 68.1735C126.342 66.0309 127.131 63.705 128.379 61.6349C129.12 60.0501 130.126 58.3122 130.927 56.9486C131.938 55.0511 133.142 53.3674 134.224 51.5821C135.746 49.3379 137.401 47.0698 138.999 44.8736C139.947 43.7726 140.723 42.5763 141.613 41.5431C142.554 40.3075 143.642 39.0049 144.736 37.8942C145.506 36.7681 146.559 35.8135 147.491 34.8119L147.491 34.8123Z" fill="#909090"/>
</svg>
