<svg width="18" height="28" viewBox="0 0 18 28" fill="none" xmlns="http://www.w3.org/2000/svg">
<path d="M8.685 8.87031C8.76375 8.79922 8.88188 8.75 9 8.75C9.11812 8.75 9.23625 8.79375 9.315 8.87031L16.0762 15.0773C16.155 15.1484 16.2 15.2523 16.2 15.3617C16.2 15.575 16.02 15.75 15.8006 15.75H2.19937C1.98 15.75 1.8 15.575 1.8 15.3617C1.8 15.2523 1.845 15.1539 1.92375 15.0773L8.685 8.87031ZM7.4475 7.59609L0.691875 13.8031C0.2475 14.2078 0 14.7711 0 15.3617C0 16.543 0.984375 17.5 2.19937 17.5H15.8006C17.0156 17.5 18 16.543 18 15.3617C18 14.7711 17.7525 14.2078 17.3081 13.8086L10.5525 7.59609C10.1363 7.21328 9.57937 7 9 7C8.42062 7 7.86937 7.21328 7.4475 7.59609Z" fill="#A4D1A2"/>
</svg>
