<svg width="16" height="16" viewBox="0 0 16 16" fill="none" xmlns="http://www.w3.org/2000/svg">
<path d="M3.11562 8.89813L7.35078 12.7511C7.52656 12.9109 7.75859 13 8 13C8.24141 13 8.47344 12.9109 8.64922 12.7511L12.8844 8.89813C13.5969 8.25179 14 7.34508 14 6.39727V6.2648C14 4.66836 12.8164 3.30716 11.2016 3.04452C10.1328 2.87094 9.04531 3.21124 8.28125 3.95579L8 4.22986L7.71875 3.95579C6.95469 3.21124 5.86719 2.87094 4.79844 3.04452C3.18359 3.30716 2 4.66836 2 6.2648V6.39727C2 7.34508 2.40312 8.25179 3.11562 8.89813Z" fill="#E1A7B4"/>
</svg>
