<svg width="42" height="34" viewBox="0 0 42 34" fill="none" xmlns="http://www.w3.org/2000/svg">
<path d="M0 15.5059C0 10.459 4.03594 6.375 9.02344 6.375C11.6025 6.375 14.0569 7.49063 15.7631 9.43633L21 15.3996L26.2369 9.43633C27.9497 7.49063 30.4041 6.375 32.9766 6.375C37.9641 6.375 42 10.459 42 15.5059V18.5008C42 23.541 37.9641 27.625 32.9766 27.625C30.3975 27.625 27.9431 26.5094 26.2369 24.5637L21 18.6004L15.7631 24.5637C14.0503 26.5094 11.5959 27.625 9.02344 27.625C4.03594 27.625 0 23.541 0 18.4941V15.5059ZM19.5956 17L14.1947 10.8508C12.8822 9.35664 10.9987 8.5 9.02344 8.5C5.1975 8.5 2.1 11.6344 2.1 15.5059V18.5008C2.1 22.3656 5.1975 25.5 9.02344 25.5C10.9987 25.5 12.8822 24.6434 14.1947 23.1492L19.5956 17ZM22.4044 17L27.8053 23.1492C29.1178 24.6434 31.0012 25.5 32.9766 25.5C36.8025 25.5 39.9 22.3656 39.9 18.4941V15.5059C39.9 11.6344 36.8025 8.5 32.9766 8.5C31.0012 8.5 29.1178 9.35664 27.8053 10.8508L22.4044 17Z" fill="#E48C66"/>
</svg>
