<svg width="42" height="34" viewBox="0 0 42 34" fill="none" xmlns="http://www.w3.org/2000/svg">
<path d="M29.4002 5.31295C29.4002 4.72857 28.9277 4.25045 28.3502 4.25045C27.7727 4.25045 27.3002 4.72857 27.3002 5.31295V28.6879C27.3002 29.2723 27.7727 29.7504 28.3502 29.7504C28.9277 29.7504 29.4002 29.2723 29.4002 28.6879V5.31295ZM37.8002 5.31295C37.8002 4.72857 37.3277 4.25045 36.7502 4.25045C36.1727 4.25045 35.7002 4.72857 35.7002 5.31295V28.6879C35.7002 29.2723 36.1727 29.7504 36.7502 29.7504C37.3277 29.7504 37.8002 29.2723 37.8002 28.6879V5.31295ZM18.9002 17.0004L6.3002 27.6254V6.37545L18.9002 17.0004ZM7.64551 4.74185C7.02207 4.21724 6.14926 4.09771 5.4077 4.44966C4.66613 4.80162 4.2002 5.55201 4.2002 6.37545V27.6254C4.2002 28.4489 4.6727 29.1993 5.4077 29.5512C6.1427 29.9032 7.01551 29.7903 7.64551 29.259L20.2455 18.634C20.7246 18.229 21.0002 17.6313 21.0002 17.0004C21.0002 16.3696 20.7246 15.7719 20.2455 15.3669L7.64551 4.74185Z" fill="#E48C66"/>
</svg>
