<svg width="40" height="40" viewBox="0 0 40 40" fill="none" xmlns="http://www.w3.org/2000/svg">
<path d="M32.6011 28.1406C32.8511 27.75 33.2808 27.5 33.7495 27.5C34.7104 27.5 35.3354 28.5 34.8198 29.3125C31.7183 34.2344 26.2417 37.5 19.9995 37.5C10.3354 37.5 2.49951 29.6641 2.49951 20C2.49951 10.3359 10.3354 2.5 19.9995 2.5C24.3823 2.5 28.3901 4.10937 31.4604 6.77344L33.8589 4.375C34.2573 3.97656 34.8042 3.75 35.3667 3.75C36.5464 3.75 37.4995 4.70313 37.4995 5.88281V13.75C37.4995 14.4375 36.937 15 36.2495 15H28.3823C27.2026 15 26.2495 14.0469 26.2495 12.8672C26.2495 12.3047 26.4761 11.7578 26.8745 11.3594L29.687 8.54688C27.0698 6.33594 23.6948 5 19.9995 5C11.7183 5 4.99951 11.7188 4.99951 20C4.99951 28.2812 11.7183 35 19.9995 35C25.2808 35 29.9292 32.2656 32.6011 28.1406ZM34.9995 6.76562L29.2651 12.5H34.9995V6.76562Z" fill="#E48C66"/>
</svg>
