<svg width="56" height="45" viewBox="0 0 56 45" fill="none" xmlns="http://www.w3.org/2000/svg">
<g clip-path="url(#clip0_2004_27)">
<path d="M33.6 5.625C33.6 8.24414 31.815 10.4502 29.4 11.0742V42.1875H46.2C46.97 42.1875 47.6 42.8203 47.6 43.5938C47.6 44.3672 46.97 45 46.2 45H28H9.8C9.03 45 8.4 44.3672 8.4 43.5938C8.4 42.8203 9.03 42.1875 9.8 42.1875H26.6V11.0742C24.185 10.4502 22.4 8.24414 22.4 5.625H9.8C9.03 5.625 8.4 4.99219 8.4 4.21875C8.4 3.44531 9.03 2.8125 9.8 2.8125H23.1525C24.115 1.13379 25.9262 0 28 0C30.0737 0 31.885 1.13379 32.8475 2.8125H44.8C45.57 2.8125 46.2 3.44531 46.2 4.21875C46.2 4.99219 45.57 5.625 44.8 5.625H33.6ZM38.5612 31.8428C40.0575 32.9678 42.2537 33.75 44.8 33.75C47.3462 33.75 49.5425 32.9678 51.0387 31.8428C52.535 30.7178 53.2 29.373 53.2 28.125H36.4V27.9844V27.9932V28.125C36.4 29.373 37.065 30.7178 38.5612 31.8428ZM44.8 12.9463L37.3012 25.3125H52.2988L44.8 12.9463ZM33.6 28.125V27.9844C33.6 26.6924 33.95 25.4268 34.6237 24.3281L42.6738 11.0391C43.1287 10.292 43.9338 9.83496 44.8 9.83496C45.6662 9.83496 46.48 10.292 46.9262 11.0391L54.9762 24.3281C55.6412 25.4268 56 26.6924 56 27.9844V28.125C56 32.7832 50.9862 36.5625 44.8 36.5625C38.6138 36.5625 33.6 32.7832 33.6 28.125ZM2.8 28.125C2.8 29.373 3.465 30.7178 4.96125 31.8428C6.4575 32.9678 8.65375 33.75 11.2 33.75C13.7463 33.75 15.9425 32.9678 17.4387 31.8428C18.935 30.7178 19.6 29.373 19.6 28.125H2.8V27.9844V27.9932V28.125ZM3.70125 25.3125H18.6987L11.2 12.9463L3.70125 25.3125ZM11.2 36.5625C5.01375 36.5625 0 32.7832 0 28.125V27.9844C0 26.6924 0.35 25.4268 1.02375 24.3281L9.07375 11.0391C9.52875 10.292 10.3337 9.83496 11.2 9.83496C12.0662 9.83496 12.88 10.292 13.3263 11.0391L21.3762 24.3281C22.0413 25.4268 22.4 26.6924 22.4 27.9844V28.125C22.4 32.7832 17.3862 36.5625 11.2 36.5625ZM28 8.4375C28.7426 8.4375 29.4548 8.14118 29.9799 7.61374C30.505 7.08629 30.8 6.37092 30.8 5.625C30.8 4.87908 30.505 4.16371 29.9799 3.63626C29.4548 3.10882 28.7426 2.8125 28 2.8125C27.2574 2.8125 26.5452 3.10882 26.0201 3.63626C25.495 4.16371 25.2 4.87908 25.2 5.625C25.2 6.37092 25.495 7.08629 26.0201 7.61374C26.5452 8.14118 27.2574 8.4375 28 8.4375Z" fill="#A4D1A2"/>
</g>
<defs>
<clipPath id="clip0_2004_27">
<rect width="56" height="45" fill="white"/>
</clipPath>
</defs>
</svg>
