<svg width="35" height="40" viewBox="0 0 35 40" fill="none" xmlns="http://www.w3.org/2000/svg">
<path d="M2.5 17.9297V6.25003C2.5 5.56253 3.0625 5.00003 3.75 5.00003H15.4297C16.0938 5.00003 16.7266 5.26565 17.1953 5.7344L30.9453 19.4844C31.9219 20.461 31.9219 22.0469 30.9453 23.0235L20.5156 33.4453C19.5391 34.4219 17.9531 34.4219 16.9766 33.4453L3.22656 19.6953C2.75781 19.2266 2.49219 18.5938 2.49219 17.9297H2.5ZM0 17.9297C0 19.2578 0.523438 20.5313 1.46094 21.4688L15.2109 35.2188C17.1641 37.1719 20.3281 37.1719 22.2812 35.2188L32.7109 24.7891C34.6641 22.836 34.6641 19.6719 32.7109 17.7188L18.9609 3.96878C18.0234 3.03128 16.75 2.50784 15.4219 2.50784H3.75C1.67969 2.50003 0 4.17971 0 6.25003V17.9297ZM8.75 13.125C9.24728 13.125 9.72419 12.9275 10.0758 12.5759C10.4275 12.2242 10.625 11.7473 10.625 11.25C10.625 10.7527 10.4275 10.2758 10.0758 9.9242C9.72419 9.57257 9.24728 9.37503 8.75 9.37503C8.25272 9.37503 7.77581 9.57257 7.42417 9.9242C7.07254 10.2758 6.875 10.7527 6.875 11.25C6.875 11.7473 7.07254 12.2242 7.42417 12.5759C7.77581 12.9275 8.25272 13.125 8.75 13.125Z" fill="#E48C66"/>
</svg>
