<svg width="42" height="34" viewBox="0 0 42 34" fill="none" xmlns="http://www.w3.org/2000/svg">
<g clip-path="url(#clip0_711_705)">
<path d="M14.7 2.125C15.5273 2.125 16.3466 2.28989 17.1109 2.61027C17.8753 2.93064 18.5698 3.40022 19.1548 3.99219C19.7398 4.58417 20.2038 5.28694 20.5204 6.06039C20.837 6.83384 21 7.66282 21 8.5C21 9.33718 20.837 10.1662 20.5204 10.9396C20.2038 11.7131 19.7398 12.4158 19.1548 13.0078C18.5698 13.5998 17.8753 14.0694 17.1109 14.3897C16.3466 14.7101 15.5273 14.875 14.7 14.875C13.8727 14.875 13.0534 14.7101 12.2891 14.3897C11.5247 14.0694 10.8302 13.5998 10.2452 13.0078C9.66022 12.4158 9.19616 11.7131 8.87956 10.9396C8.56295 10.1662 8.4 9.33718 8.4 8.5C8.4 7.66282 8.56295 6.83384 8.87956 6.06039C9.19616 5.28694 9.66022 4.58417 10.2452 3.99219C10.8302 3.40022 11.5247 2.93064 12.2891 2.61027C13.0534 2.28989 13.8727 2.125 14.7 2.125ZM14.7 17C16.9278 17 19.0644 16.1045 20.6397 14.5104C22.215 12.9163 23.1 10.7543 23.1 8.5C23.1 6.24566 22.215 4.08365 20.6397 2.48959C19.0644 0.895533 16.9278 0 14.7 0C12.4722 0 10.3356 0.895533 8.7603 2.48959C7.185 4.08365 6.3 6.24566 6.3 8.5C6.3 10.7543 7.185 12.9163 8.7603 14.5104C10.3356 16.1045 12.4722 17 14.7 17ZM11.7009 22.3125H17.6991C22.9491 22.3125 27.2147 26.5824 27.3 31.875H2.1C2.17875 26.5824 6.44438 22.3125 11.7009 22.3125ZM11.7009 20.1875C5.23688 20.1875 0 25.4867 0 32.0277C0 33.1168 0.872813 34 1.94906 34H27.4509C28.5272 34 29.4 33.1168 29.4 32.0277C29.4 25.4867 24.1631 20.1875 17.6991 20.1875H11.7009ZM41.6916 12.4379C42.0984 12.0262 42.0984 11.3488 41.6916 10.9371C41.2847 10.5254 40.6153 10.5254 40.2084 10.9371L32.55 18.6867L29.0916 15.1871C28.6847 14.7754 28.0153 14.7754 27.6084 15.1871C27.2016 15.5988 27.2016 16.2762 27.6084 16.6879L31.8084 20.9379C32.2153 21.3496 32.8847 21.3496 33.2916 20.9379L41.6916 12.4379Z" fill="#E48C66"/>
</g>
<defs>
<clipPath id="clip0_711_705">
<rect width="42" height="34" fill="white"/>
</clipPath>
</defs>
</svg>
